# Made in Blockbench 5.0.4
mtllib ballistaArm1.mtl

o BallistaArrow
v 0.10556125977512329 1.1047178711040808 -0.89375
v 0.10423543456039847 1.1060436963188056 -0.89375
v -0.11540960934567276 0.8837470019832847 -0.89375
v -0.11673543456039759 0.8850728271980095 -0.89375
v 0.10423543456039801 1.1060436963188058 1.23125
v 0.10556125977512283 1.104717871104081 1.23125
v -0.11673543456039809 0.8850728271980097 1.23125
v -0.11540960934567326 0.8837470019832849 1.23125
vt 0.00023437500000000888 0.437265625
vt 0.265859375 0.437265625
vt 0.265859375 0.398203125
vt 0.00023437500000000888 0.398203125
vt 0 0.437265625
vt 0.00023437500000000888 0.437265625
vt 0.00023437500000000888 0.398203125
vt 0 0.398203125
vt 0.26609375 0.437265625
vt 0.53171875 0.437265625
vt 0.53171875 0.398203125
vt 0.26609375 0.398203125
vt 0.265859375 0.437265625
vt 0.26609375 0.437265625
vt 0.26609375 0.398203125
vt 0.265859375 0.398203125
vt 0.265859375 0.437265625
vt 0.00023437500000000888 0.437265625
vt 0.00023437500000000888 0.4375
vt 0.265859375 0.4375
vt 0.531484375 0.4375
vt 0.265859375 0.4375
vt 0.265859375 0.437265625
vt 0.531484375 0.437265625
vn -0.7071067811865476 0.7071067811865475 -2.355138688025663
vn 2.3551386880256634 -2.355138688025663 -1
vn 0.7071067811865476 -0.7071067811865475 2.355138688025663
vn -2.3551386880256634 2.355138688025663 1
vn 0.7071067811865476 0.7071067811865476 7.850462293418876
vn -0.7071067811865476 -0.7071067811865476 -7.850462293418876
usemtl m_2cf9f893-9a4e-eb5e-7b47-b25e8bca0b40
f 4/4/1 7/3/1 5/2/1 2/1/1
f 3/8/2 4/7/2 2/6/2 1/5/2
f 8/12/3 3/11/3 1/10/3 6/9/3
f 7/16/4 8/15/4 6/14/4 5/13/4
f 6/20/5 1/19/5 2/18/5 5/17/5
f 7/24/6 4/23/6 3/22/6 8/21/6
o BallistaArrow
v -0.11540960934567279 1.1073695215335309 -0.89375
v -0.11673543456039762 1.106043696318806 -0.89375
v 0.10556125977512329 0.8863986524127347 -0.89375
v 0.10423543456039847 0.88507282719801 -0.89375
v -0.11673543456039807 1.1060436963188058 1.2312499999999997
v -0.11540960934567325 1.1073695215335306 1.2312499999999997
v 0.10423543456039797 0.8850728271980097 1.2312499999999997
v 0.10556125977512279 0.8863986524127345 1.2312499999999997
vt 0.00023437500000000888 0.437265625
vt 0.265859375 0.437265625
vt 0.265859375 0.398203125
vt 0.00023437500000000888 0.398203125
vt 0 0.437265625
vt 0.00023437500000000888 0.437265625
vt 0.00023437500000000888 0.398203125
vt 0 0.398203125
vt 0.26609375 0.437265625
vt 0.53171875 0.437265625
vt 0.53171875 0.398203125
vt 0.26609375 0.398203125
vt 0.265859375 0.437265625
vt 0.26609375 0.437265625
vt 0.26609375 0.398203125
vt 0.265859375 0.398203125
vt 0.265859375 0.437265625
vt 0.00023437500000000888 0.437265625
vt 0.00023437500000000888 0.4375
vt 0.265859375 0.4375
vt 0.531484375 0.4375
vt 0.265859375 0.4375
vt 0.265859375 0.437265625
vt 0.531484375 0.437265625
vn -0.7071067811865476 -0.7071067811865475 -2.355138688025663
vn 2.3551386880256634 2.355138688025663 -1
vn 0.7071067811865476 0.7071067811865475 2.355138688025663
vn -2.3551386880256634 -2.355138688025663 1
vn -0.7071067811865476 0.7071067811865476 -7.850462293418876
vn 0.7071067811865476 -0.7071067811865476 7.850462293418876
usemtl m_2cf9f893-9a4e-eb5e-7b47-b25e8bca0b40
f 12/28/7 15/27/7 13/26/7 10/25/7
f 11/32/8 12/31/8 10/30/8 9/29/8
f 16/36/9 11/35/9 9/34/9 14/33/9
f 15/40/10 16/39/10 14/38/10 13/37/10
f 14/44/11 9/43/11 10/42/11 13/41/11
f 15/48/12 12/47/12 11/46/12 16/45/12
o BallistaArrow
v -0.09331252243359314 1.0852724346214513 -1.08125
v -0.09463834764831797 1.0839466094067265 -1.08125
v 0.08346417286304372 0.9084957393248144 -1.08125
v 0.0821383476483189 0.9071699141100896 -1.08125
v -0.09463834764831802 1.0839466094067265 -0.83125
v -0.0933125224335932 1.0852724346214513 -0.83125
v 0.08213834764831884 0.9071699141100896 -0.83125
v 0.08346417286304367 0.9084957393248144 -0.83125
vt 0.593984375 0.437265625
vt 0.625234375 0.437265625
vt 0.625234375 0.406015625
vt 0.593984375 0.406015625
vt 0.59375 0.437265625
vt 0.593984375 0.437265625
vt 0.593984375 0.406015625
vt 0.59375 0.406015625
vt 0.62546875 0.437265625
vt 0.65671875 0.437265625
vt 0.65671875 0.406015625
vt 0.62546875 0.406015625
vt 0.625234375 0.437265625
vt 0.62546875 0.437265625
vt 0.62546875 0.406015625
vt 0.625234375 0.406015625
vt 0.625234375 0.437265625
vt 0.593984375 0.437265625
vt 0.593984375 0.4375
vt 0.625234375 0.4375
vt 0.656484375 0.4375
vt 0.625234375 0.4375
vt 0.625234375 0.437265625
vt 0.656484375 0.437265625
vn -0.7071067811865476 -0.7071067811865475 -2.355138688025663
vn 2.3551386880256634 2.355138688025663 -1
vn 0.7071067811865476 0.7071067811865475 2.355138688025663
vn -2.3551386880256634 -2.355138688025663 1
vn -0.7071067811865476 0.7071067811865476 -7.850462293418876
vn 0.7071067811865476 -0.7071067811865476 7.850462293418876
usemtl m_2cf9f893-9a4e-eb5e-7b47-b25e8bca0b40
f 20/52/13 23/51/13 21/50/13 18/49/13
f 19/56/14 20/55/14 18/54/14 17/53/14
f 24/60/15 19/59/15 17/58/15 22/57/15
f 23/64/16 24/63/16 22/62/16 21/61/16
f 22/68/17 17/67/17 18/66/17 21/65/17
f 23/72/18 20/71/18 19/70/18 24/69/18
o BallistaArrow
v 0.08346417286304372 1.082620784192001 -1.08125
v 0.0821383476483189 1.083946609406726 -1.08125
v -0.09331252243359309 0.9058440888953643 -1.08125
v -0.09463834764831791 0.9071699141100892 -1.08125
v 0.08213834764831884 1.083946609406726 -0.83125
v 0.08346417286304367 1.0826207841920013 -0.83125
v -0.09463834764831797 0.9071699141100892 -0.83125
v -0.09331252243359314 0.9058440888953643 -0.83125
vt 0.531484375 0.437265625
vt 0.562734375 0.437265625
vt 0.562734375 0.406015625
vt 0.531484375 0.406015625
vt 0.53125 0.437265625
vt 0.531484375 0.437265625
vt 0.531484375 0.406015625
vt 0.53125 0.406015625
vt 0.56296875 0.437265625
vt 0.59421875 0.437265625
vt 0.59421875 0.406015625
vt 0.56296875 0.406015625
vt 0.562734375 0.437265625
vt 0.56296875 0.437265625
vt 0.56296875 0.406015625
vt 0.562734375 0.406015625
vt 0.562734375 0.437265625
vt 0.531484375 0.437265625
vt 0.531484375 0.4375
vt 0.562734375 0.4375
vt 0.593984375 0.4375
vt 0.562734375 0.4375
vt 0.562734375 0.437265625
vt 0.593984375 0.437265625
vn -0.7071067811865476 0.7071067811865475 -2.355138688025663
vn 2.3551386880256634 -2.355138688025663 -1
vn 0.7071067811865476 -0.7071067811865475 2.355138688025663
vn -2.3551386880256634 2.355138688025663 1
vn 0.7071067811865476 0.7071067811865476 7.850462293418876
vn -0.7071067811865476 -0.7071067811865476 -7.850462293418876
usemtl m_2cf9f893-9a4e-eb5e-7b47-b25e8bca0b40
f 28/76/19 31/75/19 29/74/19 26/73/19
f 27/80/20 28/79/20 26/78/20 25/77/20
f 32/84/21 27/83/21 25/82/21 30/81/21
f 31/88/22 32/87/22 30/86/22 29/85/22
f 30/92/23 25/91/23 26/90/23 29/89/23
f 31/96/24 28/95/24 27/94/24 32/93/24