# Made in Blockbench 5.0.3
mtllib catapult_one.mtl

o bb_main
v 0 3.1875 0.3125
v 0 3.1875 0.3125
v 0 3.1875 0.3125
v 0 3.1875 0.3125
v 0 3.1875 0.3125
v 0 3.1875 0.3125
v 0 3.1875 0.3125
v 0 3.1875 0.3125
vt 0 1
vt 0 1
vt 0 1
vt 0 1
vt 0 1
vt 0 1
vt 0 1
vt 0 1
vt 0 1
vt 0 1
vt 0 1
vt 0 1
vt 0 1
vt 0 1
vt 0 1
vt 0 1
vt 0 1
vt 0 1
vt 0 1
vt 0 1
vt 0 1
vt 0 1
vt 0 1
vt 0 1
vn 0 0 -1
vn 1 0 0
vn 0 0 1
vn -1 0 0
vn 0 1 0
vn 0 -1 0
usemtl m_2b589b47-8383-c5ef-633b-b18148573e96
f 4/4/1 7/3/1 5/2/1 2/1/1
f 3/8/2 4/7/2 2/6/2 1/5/2
f 8/12/3 3/11/3 1/10/3 6/9/3
f 7/16/4 8/15/4 6/14/4 5/13/4
f 6/20/5 1/19/5 2/18/5 5/17/5
f 7/24/6 4/23/6 3/22/6 8/21/6
o Lever
v 0.09999999999999998 2.787052277491148 0.5469725066989483
v 0.09999999999999998 2.754396117196401 0.600262516971079
v 0.09999999999999998 3.1067923391239325 0.7429094684674292
v 0.09999999999999998 3.0741361788291854 0.79619947873956
v -0.08750000000000002 2.754396117196401 0.600262516971079
v -0.08750000000000002 2.787052277491148 0.5469725066989483
v -0.08750000000000002 3.0741361788291854 0.79619947873956
v -0.08750000000000002 3.1067923391239325 0.7429094684674292
vt 0.23828125 0.99609375
vt 0.25 0.99609375
vt 0.25 0.97265625
vt 0.23828125 0.97265625
vt 0.234375 0.99609375
vt 0.23828125 0.99609375
vt 0.23828125 0.97265625
vt 0.234375 0.97265625
vt 0.25390625 0.99609375
vt 0.265625 0.99609375
vt 0.265625 0.97265625
vt 0.25390625 0.97265625
vt 0.25 0.99609375
vt 0.25390625 0.99609375
vt 0.25390625 0.97265625
vt 0.25 0.97265625
vt 0.25 0.99609375
vt 0.23828125 0.99609375
vt 0.23828125 1
vt 0.25 1
vt 0.26171875 1
vt 0.25 1
vt 0.25 0.99609375
vt 0.26171875 0.99609375
vn 0 -0.5224985647159492 0.8526401643540921
vn 1 0 0
vn 0 0.5224985647159492 -0.8526401643540921
vn -1 0 0
vn 0 -0.8526401643540921 -0.5224985647159492
vn 0 0.8526401643540921 0.5224985647159492
usemtl m_2b589b47-8383-c5ef-633b-b18148573e96
f 12/28/7 15/27/7 13/26/7 10/25/7
f 11/32/8 12/31/8 10/30/8 9/29/8
f 16/36/9 11/35/9 9/34/9 14/33/9
f 15/40/10 16/39/10 14/38/10 13/37/10
f 14/44/11 9/43/11 10/42/11 13/41/11
f 15/48/12 12/47/12 11/46/12 16/45/12
o Lever
v 0.09999999999999998 2.9164437736998687 0.3846509392731521
v 0.09999999999999998 0.28289613003138897 -0.1511503844730659
v 0.09999999999999998 2.8666017900955696 0.6296321154283596
v 0.09999999999999998 0.23305414642708963 0.09383079168214148
v -0.08750000000000002 0.28289613003138897 -0.1511503844730659
v -0.08750000000000002 2.9164437736998687 0.3846509392731521
v -0.08750000000000002 0.23305414642708963 0.09383079168214148
v -0.08750000000000002 2.8666017900955696 0.6296321154283596
vt 0.4921875 0.83203125
vt 0.50390625 0.83203125
vt 0.50390625 0.81640625
vt 0.4921875 0.81640625
vt 0.32421875 0.83203125
vt 0.4921875 0.83203125
vt 0.4921875 0.81640625
vt 0.32421875 0.81640625
vt 0.671875 0.83203125
vt 0.68359375 0.83203125
vt 0.68359375 0.81640625
vt 0.671875 0.81640625
vt 0.50390625 0.83203125
vt 0.671875 0.83203125
vt 0.671875 0.81640625
vt 0.50390625 0.81640625
vt 0.50390625 0.83203125
vt 0.4921875 0.83203125
vt 0.4921875 1
vt 0.50390625 1
vt 0.515625 1
vt 0.50390625 1
vt 0.50390625 0.83203125
vt 0.515625 0.83203125
vn 0 -0.9799247046208297 -0.1993679344171974
vn 1 0 0
vn 0 0.9799247046208297 0.1993679344171974
vn -1 0 0
vn 0 0.1993679344171974 -0.9799247046208297
vn 0 -0.1993679344171974 0.9799247046208297
usemtl m_2b589b47-8383-c5ef-633b-b18148573e96
f 20/52/13 23/51/13 21/50/13 18/49/13
f 19/56/14 20/55/14 18/54/14 17/53/14
f 24/60/15 19/59/15 17/58/15 22/57/15
f 23/64/16 24/63/16 22/62/16 21/61/16
f 22/68/17 17/67/17 18/66/17 21/65/17
f 23/72/18 20/71/18 19/70/18 24/69/18
o Lever
v 0.03749999999999998 3.032064606802699 0.771334391400073
v 0.03749999999999998 3.0413026949982993 0.8331478828601928
v 0.03749999999999998 3.4029455555634174 0.7159058622264691
v 0.03749999999999998 3.4121836437590183 0.777719353686589
v -0.025000000000000022 3.0413026949982993 0.8331478828601928
v -0.025000000000000022 3.032064606802699 0.771334391400073
v -0.025000000000000022 3.4121836437590183 0.777719353686589
v -0.025000000000000022 3.4029455555634174 0.7159058622264691
vt 0.328125 0.99609375
vt 0.33203125 0.99609375
vt 0.33203125 0.97265625
vt 0.328125 0.97265625
vt 0.32421875 0.99609375
vt 0.328125 0.99609375
vt 0.328125 0.97265625
vt 0.32421875 0.97265625
vt 0.3359375 0.99609375
vt 0.33984375 0.99609375
vt 0.33984375 0.97265625
vt 0.3359375 0.97265625
vt 0.33203125 0.99609375
vt 0.3359375 0.99609375
vt 0.3359375 0.97265625
vt 0.33203125 0.97265625
vt 0.33203125 0.99609375
vt 0.328125 0.99609375
vt 0.328125 1
vt 0.33203125 1
vt 0.3359375 1
vt 0.33203125 1
vt 0.33203125 0.99609375
vt 0.3359375 0.99609375
vn 0 0.14780941112961044 0.9890158633619168
vn 1 0 0
vn 0 -0.14780941112961044 -0.9890158633619168
vn -1 0 0
vn 0 -0.9890158633619168 0.14780941112961044
vn 0 0.9890158633619168 -0.14780941112961044
usemtl m_2b589b47-8383-c5ef-633b-b18148573e96
f 28/76/19 31/75/19 29/74/19 26/73/19
f 27/80/20 28/79/20 26/78/20 25/77/20
f 32/84/21 27/83/21 25/82/21 30/81/21
f 31/88/22 32/87/22 30/86/22 29/85/22
f 30/92/23 25/91/23 26/90/23 29/89/23
f 31/96/24 28/95/24 27/94/24 32/93/24
o Lever
v 0.13124999999999998 2.9357390707967266 0.298103120499851
v 0.13124999999999998 2.874493776757925 0.28564262459877615
v 0.13124999999999998 2.8609760953902774 0.6655748847326621
v 0.13124999999999998 2.7997308013514757 0.6531143888315873
v -0.11875000000000002 2.874493776757925 0.28564262459877615
v -0.11875000000000002 2.9357390707967266 0.298103120499851
v -0.11875000000000002 2.7997308013514757 0.6531143888315873
v -0.11875000000000002 2.8609760953902774 0.6655748847326621
vt 0.2265625 0.69140625
vt 0.2421875 0.69140625
vt 0.2421875 0.66796875
vt 0.2265625 0.66796875
vt 0.22265625 0.69140625
vt 0.2265625 0.69140625
vt 0.2265625 0.66796875
vt 0.22265625 0.66796875
vt 0.24609375 0.69140625
vt 0.26171875 0.69140625
vt 0.26171875 0.66796875
vt 0.24609375 0.66796875
vt 0.2421875 0.69140625
vt 0.24609375 0.69140625
vt 0.24609375 0.66796875
vt 0.2421875 0.66796875
vt 0.2421875 0.69140625
vt 0.2265625 0.69140625
vt 0.2265625 0.6953125
vt 0.2421875 0.6953125
vt 0.2578125 0.6953125
vt 0.2421875 0.6953125
vt 0.2421875 0.69140625
vt 0.2578125 0.69140625
vn 0 -0.9799247046208297 -0.1993679344171974
vn 1 0 0
vn 0 0.9799247046208297 0.1993679344171974
vn -1 0 0
vn 0 0.1993679344171974 -0.9799247046208297
vn 0 -0.1993679344171974 0.9799247046208297
usemtl m_2b589b47-8383-c5ef-633b-b18148573e96
f 36/100/25 39/99/25 37/98/25 34/97/25
f 35/104/26 36/103/26 34/102/26 33/101/26
f 40/108/27 35/107/27 33/106/27 38/105/27
f 39/112/28 40/111/28 38/110/28 37/109/28
f 38/116/29 33/115/29 34/114/29 37/113/29
f 39/120/30 36/119/30 35/118/30 40/117/30
o Lever
v 0.03749999999999998 3.548192011184745 0.4227080795105994
v 0.03749999999999998 3.486946717145943 0.4102475836095245
v 0.03749999999999998 3.473429035778296 0.7901798437434105
v 0.03749999999999998 3.4121837417394945 0.7777193478423357
v -0.025000000000000022 3.486946717145943 0.4102475836095245
v -0.025000000000000022 3.548192011184745 0.4227080795105994
v -0.025000000000000022 3.4121837417394945 0.7777193478423357
v -0.025000000000000022 3.473429035778296 0.7901798437434105
vt 0.328125 0.9140625
vt 0.33203125 0.9140625
vt 0.33203125 0.890625
vt 0.328125 0.890625
vt 0.32421875 0.9140625
vt 0.328125 0.9140625
vt 0.328125 0.890625
vt 0.32421875 0.890625
vt 0.3359375 0.9140625
vt 0.33984375 0.9140625
vt 0.33984375 0.890625
vt 0.3359375 0.890625
vt 0.33203125 0.9140625
vt 0.3359375 0.9140625
vt 0.3359375 0.890625
vt 0.33203125 0.890625
vt 0.33203125 0.9140625
vt 0.328125 0.9140625
vt 0.328125 0.91796875
vt 0.33203125 0.91796875
vt 0.3359375 0.91796875
vt 0.33203125 0.91796875
vt 0.33203125 0.9140625
vt 0.3359375 0.9140625
vn 0 -0.9799247046208297 -0.1993679344171974
vn 1 0 0
vn 0 0.9799247046208297 0.1993679344171974
vn -1 0 0
vn 0 0.1993679344171974 -0.9799247046208297
vn 0 -0.1993679344171974 0.9799247046208297
usemtl m_2b589b47-8383-c5ef-633b-b18148573e96
f 44/124/31 47/123/31 45/122/31 42/121/31
f 43/128/32 44/127/32 42/126/32 41/125/32
f 48/132/33 43/131/33 41/130/33 46/129/33
f 47/136/34 48/135/34 46/134/34 45/133/34
f 46/140/35 41/139/35 42/138/35 45/137/35
f 47/144/36 44/143/36 43/142/36 48/141/36
o Lever
v 0.06874999999999998 3.2003173117839028 0.7218585533808135
v 0.06874999999999998 3.077826723706299 0.6969375615786638
v 0.06874999999999998 3.187856815882828 0.7831038474196154
v 0.06874999999999998 3.065366227805224 0.7581828556174657
v -0.05625000000000002 3.077826723706299 0.6969375615786638
v -0.05625000000000002 3.2003173117839028 0.7218585533808135
v -0.05625000000000002 3.065366227805224 0.7581828556174657
v -0.05625000000000002 3.187856815882828 0.7831038474196154
vt 0.2421875 0.92578125
vt 0.25 0.92578125
vt 0.25 0.921875
vt 0.2421875 0.921875
vt 0.234375 0.92578125
vt 0.2421875 0.92578125
vt 0.2421875 0.921875
vt 0.234375 0.921875
vt 0.2578125 0.92578125
vt 0.265625 0.92578125
vt 0.265625 0.921875
vt 0.2578125 0.921875
vt 0.25 0.92578125
vt 0.2578125 0.92578125
vt 0.2578125 0.921875
vt 0.25 0.921875
vt 0.25 0.92578125
vt 0.2421875 0.92578125
vt 0.2421875 0.93359375
vt 0.25 0.93359375
vt 0.2578125 0.93359375
vt 0.25 0.93359375
vt 0.25 0.92578125
vt 0.2578125 0.92578125
vn 0 -0.9799247046208297 -0.1993679344171974
vn 1 0 0
vn 0 0.9799247046208297 0.1993679344171974
vn -1 0 0
vn 0 0.1993679344171974 -0.9799247046208297
vn 0 -0.1993679344171974 0.9799247046208297
usemtl m_2b589b47-8383-c5ef-633b-b18148573e96
f 52/148/37 55/147/37 53/146/37 50/145/37
f 51/152/38 52/151/38 50/150/38 49/149/38
f 56/156/39 51/155/39 49/154/39 54/153/39
f 55/160/40 56/159/40 54/158/40 53/157/40
f 54/164/41 49/163/41 50/162/41 53/161/41
f 55/168/42 52/167/42 51/166/42 56/165/42
o Lever
v 0.35150765577687015 3.1685593951692357 0.34864765469232806
v 0.2890224478043393 3.1699032157979743 0.3484404573290965
v 0.3487999296751206 3.0994836343346823 0.7172208597472879
v 0.2863147217025897 3.100827454963421 0.7170136623840564
v 0.2903050716993927 3.2313190408770947 0.3599600626085642
v 0.35279027967192356 3.229975220248356 0.3601672599717958
v 0.28759734559764316 3.1622432800425413 0.7285332676635241
v 0.35008255357017404 3.1608994594138027 0.7287404650267556
vt 0.25390625 0.86328125
vt 0.2578125 0.86328125
vt 0.2578125 0.83984375
vt 0.25390625 0.83984375
vt 0.25 0.86328125
vt 0.25390625 0.86328125
vt 0.25390625 0.83984375
vt 0.25 0.83984375
vt 0.26171875 0.86328125
vt 0.265625 0.86328125
vt 0.265625 0.83984375
vt 0.26171875 0.83984375
vt 0.2578125 0.86328125
vt 0.26171875 0.86328125
vt 0.26171875 0.83984375
vt 0.2578125 0.83984375
vt 0.2578125 0.86328125
vt 0.25390625 0.86328125
vt 0.25390625 0.8671875
vt 0.2578125 0.8671875
vt 0.26171875 0.8671875
vt 0.2578125 0.8671875
vt 0.2578125 0.86328125
vt 0.26171875 0.86328125
vn -0.9997633275604954 0.021501130059818307 -0.003315157811704505
vn -0.02052198232085517 -0.9826532012659243 -0.18431368447148308
vn 0.9997633275604954 -0.021501130059818307 0.003315157811704505
vn 0.02052198232085517 0.9826532012659243 0.18431368447148308
vn 0.007220602937999006 0.1842020288921424 -0.9828618801465596
vn -0.007220602937999006 -0.1842020288921424 0.9828618801465596
usemtl m_2b589b47-8383-c5ef-633b-b18148573e96
f 60/172/43 63/171/43 61/170/43 58/169/43
f 59/176/44 60/175/44 58/174/44 57/173/44
f 64/180/45 59/179/45 57/178/45 62/177/45
f 63/184/46 64/183/46 62/182/46 61/181/46
f 62/188/47 57/187/47 58/186/47 61/185/47
f 63/192/48 60/191/48 59/190/48 64/189/48
o Lever
v -0.08785957911220321 3.096056471091968 0.7841094901980755
v -0.06691245103185783 3.084778526912689 0.8419046093715375
v 0.26536785079756464 3.1121051027420177 0.6592182407788267
v 0.28631497887791 3.100827158562739 0.7170133599522888
v -0.06562982713680443 3.1461943519918094 0.8534242146510053
v -0.08657695521714981 3.157472296171088 0.7956290954775432
v 0.2875976027729634 3.162242983641859 0.7285329652317564
v 0.26665047469261804 3.173520927821138 0.6707378460582945
vt 0.25390625 0.765625
vt 0.2578125 0.765625
vt 0.2578125 0.7421875
vt 0.25390625 0.7421875
vt 0.25 0.765625
vt 0.25390625 0.765625
vt 0.25390625 0.7421875
vt 0.25 0.7421875
vt 0.26171875 0.765625
vt 0.265625 0.765625
vt 0.265625 0.7421875
vt 0.26171875 0.7421875
vt 0.2578125 0.765625
vt 0.26171875 0.765625
vt 0.26171875 0.7421875
vt 0.2578125 0.7421875
vt 0.2578125 0.765625
vt 0.25390625 0.765625
vt 0.25390625 0.76953125
vt 0.2578125 0.76953125
vt 0.26171875 0.76953125
vt 0.2578125 0.76953125
vt 0.2578125 0.765625
vt 0.26171875 0.765625
vn 0.3351540492855259 -0.18044710686846166 0.9247219067753922
vn -0.020521982320855496 -0.9826532012659243 -0.18431368447148308
vn -0.3351540492855259 0.18044710686846166 -0.9247219067753922
vn 0.020521982320855496 0.9826532012659243 0.18431368447148308
vn -0.9419398130927145 -0.04279635106680024 0.33304333178466367
vn 0.9419398130927145 0.04279635106680024 -0.33304333178466367
usemtl m_2b589b47-8383-c5ef-633b-b18148573e96
f 68/196/49 71/195/49 69/194/49 66/193/49
f 67/200/50 68/199/50 66/198/50 65/197/50
f 72/204/51 67/203/51 65/202/51 70/201/51
f 71/208/52 72/207/52 70/206/52 69/205/52
f 70/212/53 65/211/53 66/210/53 69/209/53
f 71/216/54 68/215/54 67/214/54 72/213/54
o Lever
v -0.3713814815264478 3.1336808802598974 0.6150861497173288
v -0.39317675301910104 3.1233221635287087 0.6727395375470525
v -0.020006245355494112 3.10247890866802 0.7423138211358771
v -0.04180151684814715 3.0921201919368313 0.7999672089656008
v -0.3918941291240474 3.184737988607829 0.6842591428265202
v -0.3700988576313944 3.1950967053390174 0.6266057549967965
v -0.040518892953093744 3.1535360170159517 0.8114868142450685
v -0.018723621460440487 3.1638947337471404 0.7538334264153448
vt 0.18359375 0.69140625
vt 0.1875 0.69140625
vt 0.1875 0.66796875
vt 0.18359375 0.66796875
vt 0.1796875 0.69140625
vt 0.18359375 0.69140625
vt 0.18359375 0.66796875
vt 0.1796875 0.66796875
vt 0.19140625 0.69140625
vt 0.1953125 0.69140625
vt 0.1953125 0.66796875
vt 0.19140625 0.66796875
vt 0.1875 0.69140625
vt 0.19140625 0.69140625
vt 0.19140625 0.66796875
vt 0.1875 0.66796875
vt 0.1875 0.69140625
vt 0.18359375 0.69140625
vt 0.18359375 0.6953125
vt 0.1875 0.6953125
vt 0.19140625 0.6953125
vt 0.1875 0.6953125
vt 0.1875 0.69140625
vt 0.19140625 0.69140625
vn -0.3487243438824509 -0.16573946769901607 0.9224542052755794
vn -0.0205219823208556 -0.9826532012659241 -0.18431368447148355
vn 0.3487243438824509 0.16573946769901607 -0.9224542052755794
vn 0.0205219823208556 0.9826532012659241 0.18431368447148355
vn -0.9370006297892103 0.0832052575783391 -0.33927379044946193
vn 0.9370006297892103 -0.0832052575783391 0.33927379044946193
usemtl m_2b589b47-8383-c5ef-633b-b18148573e96
f 76/220/55 79/219/55 77/218/55 74/217/55
f 75/224/56 76/223/56 74/222/56 73/221/56
f 80/228/57 75/227/57 73/226/57 78/225/57
f 79/232/58 80/231/58 78/230/58 77/229/58
f 78/236/59 73/235/59 74/234/59 77/233/59
f 79/240/60 76/239/60 75/238/60 80/237/60
o Lever
v -0.27334442394843905 3.1819976014566222 0.34657568106001263
v -0.33582963192097015 3.183341422085361 0.3463684836967811
v -0.2760521500501887 3.112921840622069 0.7151488861149725
v -0.3385373580227198 3.1142656612508075 0.714941688751741
v -0.33454700802591675 3.244757247164481 0.3578880889762488
v -0.27206180005338565 3.2434134265357426 0.35809528633948035
v -0.33725473412766616 3.175681486329928 0.7264612940312087
v -0.27476952615513506 3.1743376657011892 0.7266684913944402
vt 0.19921875 0.69140625
vt 0.203125 0.69140625
vt 0.203125 0.66796875
vt 0.19921875 0.66796875
vt 0.1953125 0.69140625
vt 0.19921875 0.69140625
vt 0.19921875 0.66796875
vt 0.1953125 0.66796875
vt 0.20703125 0.69140625
vt 0.2109375 0.69140625
vt 0.2109375 0.66796875
vt 0.20703125 0.66796875
vt 0.203125 0.69140625
vt 0.20703125 0.69140625
vt 0.20703125 0.66796875
vt 0.203125 0.66796875
vt 0.203125 0.69140625
vt 0.19921875 0.69140625
vt 0.19921875 0.6953125
vt 0.203125 0.6953125
vt 0.20703125 0.6953125
vt 0.203125 0.6953125
vt 0.203125 0.69140625
vt 0.20703125 0.69140625
vn -0.9997633275604954 0.021501130059818307 -0.003315157811704505
vn -0.02052198232085517 -0.9826532012659243 -0.18431368447148308
vn 0.9997633275604954 -0.021501130059818307 0.003315157811704505
vn 0.02052198232085517 0.9826532012659243 0.18431368447148308
vn 0.007220602937999006 0.1842020288921424 -0.9828618801465596
vn -0.007220602937999006 -0.1842020288921424 0.9828618801465596
usemtl m_2b589b47-8383-c5ef-633b-b18148573e96
f 84/244/61 87/243/61 85/242/61 82/241/61
f 83/248/62 84/247/62 82/246/62 81/245/62
f 88/252/63 83/251/63 81/250/63 86/249/63
f 87/256/64 88/255/64 86/254/64 85/253/64
f 86/260/65 81/259/65 82/258/65 85/257/65
f 87/264/66 84/263/66 83/262/66 88/261/66
o Lever
v 0.2355141792875184 2.950817165086952 0.3069875162973204
v 0.19031177850210046 2.9932998632962793 0.3146172814371947
v 0.23280641065741992 2.881741405828844 0.6755607213352909
v 0.18760400987200176 2.9242241040381716 0.6831904864751652
v 0.23347182132255528 3.0376724875474572 0.3232504106960619
v 0.27867422210797327 2.9951897893381294 0.31562064555618763
v 0.2307640526924566 2.9685967282893495 0.6918236157340324
v 0.2759664534778747 2.9261140300800217 0.684193850594158
vt 0.25390625 0.91796875
vt 0.2578125 0.91796875
vt 0.2578125 0.89453125
vt 0.25390625 0.89453125
vt 0.25 0.91796875
vt 0.25390625 0.91796875
vt 0.25390625 0.89453125
vt 0.25 0.89453125
vt 0.26171875 0.91796875
vt 0.265625 0.91796875
vt 0.265625 0.89453125
vt 0.26171875 0.89453125
vt 0.2578125 0.91796875
vt 0.26171875 0.91796875
vt 0.26171875 0.89453125
vt 0.2578125 0.89453125
vt 0.2578125 0.91796875
vt 0.25390625 0.91796875
vt 0.25390625 0.921875
vt 0.2578125 0.921875
vt 0.26171875 0.921875
vt 0.2578125 0.921875
vt 0.2578125 0.91796875
vt 0.26171875 0.91796875
vn -0.7232384125666884 0.6797231713492403 0.12207624223798899
vn -0.690560685127277 -0.7099619880188426 -0.1381300681418751
vn 0.7232384125666884 -0.6797231713492403 -0.12207624223798899
vn 0.690560685127277 0.7099619880188426 0.1381300681418751
vn 0.007220716346929569 0.18420202468828728 -0.9828618801012545
vn -0.007220716346929569 -0.18420202468828728 0.9828618801012545
usemtl m_2b589b47-8383-c5ef-633b-b18148573e96
f 92/268/67 95/267/67 93/266/67 90/265/67
f 91/272/68 92/271/68 90/270/68 89/269/68
f 96/276/69 91/275/69 89/274/69 94/273/69
f 95/280/70 96/279/70 94/278/70 93/277/70
f 94/284/71 89/283/71 90/282/71 93/281/71
f 95/288/72 92/287/72 91/286/72 96/285/72
o Lever
v -0.2165098285666618 3.375644147180227 0.38328516769606347
v -0.26171222935207994 3.418126845389555 0.3909149328359378
v -0.21921759719676037 3.3065683879221193 0.751858372734034
v -0.2644199979821784 3.3490510861314466 0.7594881378739082
v -0.218552186531625 3.4624994696407323 0.399548062094805
v -0.17334978574620696 3.4200167714314045 0.3919182969549307
v -0.2212599551617236 3.3934237103826246 0.7681212671327755
v -0.17605755437630555 3.3509410121732968 0.7604915019929012
vt 0.25390625 0.890625
vt 0.2578125 0.890625
vt 0.2578125 0.8671875
vt 0.25390625 0.8671875
vt 0.25 0.890625
vt 0.25390625 0.890625
vt 0.25390625 0.8671875
vt 0.25 0.8671875
vt 0.26171875 0.890625
vt 0.265625 0.890625
vt 0.265625 0.8671875
vt 0.26171875 0.8671875
vt 0.2578125 0.890625
vt 0.26171875 0.890625
vt 0.26171875 0.8671875
vt 0.2578125 0.8671875
vt 0.2578125 0.890625
vt 0.25390625 0.890625
vt 0.25390625 0.89453125
vt 0.2578125 0.89453125
vt 0.26171875 0.89453125
vt 0.2578125 0.89453125
vt 0.2578125 0.890625
vt 0.26171875 0.890625
vn -0.7232384125666884 0.6797231713492403 0.12207624223798899
vn -0.690560685127277 -0.7099619880188426 -0.1381300681418751
vn 0.7232384125666884 -0.6797231713492403 -0.12207624223798899
vn 0.690560685127277 0.7099619880188426 0.1381300681418751
vn 0.007220716346929569 0.18420202468828728 -0.9828618801012545
vn -0.007220716346929569 -0.18420202468828728 0.9828618801012545
usemtl m_2b589b47-8383-c5ef-633b-b18148573e96
f 100/292/73 103/291/73 101/290/73 98/289/73
f 99/296/74 100/295/74 98/294/74 97/293/74
f 104/300/75 99/299/75 97/298/75 102/297/75
f 103/304/76 104/303/76 102/302/76 101/301/76
f 102/308/77 97/307/77 98/306/77 101/305/77
f 103/312/78 100/311/78 99/310/78 104/309/78
o Lever
v -0.261156057073364 2.995221759435733 0.3116607042631607
v -0.21606539316061157 3.037699082822449 0.3199528104978613
v -0.2638638260221129 2.92614600681815 0.6802339105433173
v -0.2187731621093605 2.968623330204866 0.6885260167780177
v -0.17278862848384402 2.9933213130106986 0.3119537364485084
v -0.21787929239659665 2.950843989623983 0.3036616302138078
v -0.17549639743259293 2.9242455603931163 0.6805269427286648
v -0.22058706134534534 2.8817682370064004 0.6722348364939643
vt 0.23828125 0.91796875
vt 0.2421875 0.91796875
vt 0.2421875 0.89453125
vt 0.23828125 0.89453125
vt 0.234375 0.91796875
vt 0.23828125 0.91796875
vt 0.23828125 0.89453125
vt 0.234375 0.89453125
vt 0.24609375 0.91796875
vt 0.25 0.91796875
vt 0.25 0.89453125
vt 0.24609375 0.89453125
vt 0.2421875 0.91796875
vt 0.24609375 0.91796875
vt 0.24609375 0.89453125
vt 0.2421875 0.89453125
vt 0.2421875 0.91796875
vt 0.23828125 0.91796875
vt 0.23828125 0.921875
vt 0.2421875 0.921875
vt 0.24609375 0.921875
vt 0.2421875 0.921875
vt 0.2421875 0.91796875
vt 0.24609375 0.91796875
vn 0.721450622604041 0.6796371741874531 0.13267369975520873
vn -0.69242823482828 0.7100443169879981 0.12798518478964646
vn -0.721450622604041 -0.6796371741874531 -0.13267369975520873
vn 0.69242823482828 -0.7100443169879981 -0.12798518478964646
vn 0.007220717196663524 0.18420200698021996 -0.9828618834137506
vn -0.007220717196663524 -0.18420200698021996 0.9828618834137506
usemtl m_2b589b47-8383-c5ef-633b-b18148573e96
f 108/316/79 111/315/79 109/314/79 106/313/79
f 107/320/80 108/319/80 106/318/80 105/317/80
f 112/324/81 107/323/81 105/322/81 110/321/81
f 111/328/82 112/327/82 110/326/82 109/325/82
f 110/332/83 105/331/83 106/330/83 109/329/83
f 111/336/84 108/335/84 107/334/84 112/333/84
o Lever
v -0.2310470190282482 2.9816372011625005 0.5499213311692521
v 0.0238757795260911 3.2001269256883296 0.7169590725747532
v -0.24615381090148314 2.956922536177303 0.6053038209468724
v 0.008768987652856164 3.175412260703132 0.7723415623523734
v 0.06715254420285854 3.15574915587658 0.7089599985254003
v -0.18777025435148076 2.9372594313507507 0.5419222571198993
v 0.05204575232962361 3.1310344908913823 0.7643424883030205
v -0.2028770462247157 2.9125447663655533 0.5973047468975197
vt 0.34765625 0.921875
vt 0.3515625 0.921875
vt 0.3515625 0.91796875
vt 0.34765625 0.91796875
vt 0.32421875 0.921875
vt 0.34765625 0.921875
vt 0.34765625 0.91796875
vt 0.32421875 0.91796875
vt 0.375 0.921875
vt 0.37890625 0.921875
vt 0.37890625 0.91796875
vt 0.375 0.91796875
vt 0.3515625 0.921875
vt 0.375 0.921875
vt 0.375 0.91796875
vt 0.3515625 0.91796875
vt 0.3515625 0.921875
vt 0.34765625 0.921875
vt 0.34765625 0.9453125
vt 0.3515625 0.9453125
vt 0.35546875 0.9453125
vt 0.3515625 0.9453125
vt 0.3515625 0.921875
vt 0.35546875 0.921875
vn 0.6797941294782386 0.5826392654022108 0.4454339770813359
vn -0.69242823482828 0.7100443169879981 0.12798518478964654
vn -0.6797941294782386 -0.5826392654022108 -0.4454339770813359
vn 0.69242823482828 -0.7100443169879981 -0.12798518478964654
vn 0.241708669971759 0.3954346397631591 -0.8861198364419249
vn -0.241708669971759 -0.3954346397631591 0.8861198364419249
usemtl m_2b589b47-8383-c5ef-633b-b18148573e96
f 116/340/85 119/339/85 117/338/85 114/337/85
f 115/344/86 116/343/86 114/342/86 113/341/86
f 120/348/87 115/347/87 113/346/87 118/345/87
f 119/352/88 120/351/88 118/350/88 117/349/88
f 118/356/89 113/355/89 114/354/89 117/353/89
f 119/360/90 116/359/90 115/358/90 120/357/90
o Lever
v 0.19976044824636618 2.9372324558103027 0.545220105534699
v -0.05516235030797312 3.1557221803361317 0.7122578469401999
v 0.21486724011960112 2.912517790825105 0.6006025953123193
v -0.04005555843473818 3.1310075153509342 0.7676403367178203
v -0.011885585631205675 3.2000999501478815 0.7202569209895529
v 0.24303721292313374 2.9816102256220525 0.5532191795840519
v 0.003221206242029373 3.175385285162684 0.7756394107671731
v 0.25814400479636856 2.956895560636855 0.6086016693616723
vt 0.10546875 0.9765625
vt 0.109375 0.9765625
vt 0.109375 0.97265625
vt 0.10546875 0.97265625
vt 0.08203125 0.9765625
vt 0.10546875 0.9765625
vt 0.10546875 0.97265625
vt 0.08203125 0.97265625
vt 0.1328125 0.9765625
vt 0.13671875 0.9765625
vt 0.13671875 0.97265625
vt 0.1328125 0.97265625
vt 0.109375 0.9765625
vt 0.1328125 0.9765625
vt 0.1328125 0.97265625
vt 0.109375 0.97265625
vt 0.109375 0.9765625
vt 0.10546875 0.9765625
vt 0.10546875 1
vt 0.109375 1
vt 0.11328125 1
vt 0.109375 1
vt 0.109375 0.9765625
vt 0.11328125 0.9765625
vn -0.6797941294782386 0.5826392654022108 0.4454339770813359
vn -0.69242823482828 -0.7100443169879981 -0.12798518478964654
vn 0.6797941294782386 -0.5826392654022108 -0.4454339770813359
vn 0.69242823482828 0.7100443169879981 0.12798518478964654
vn -0.241708669971759 0.3954346397631591 -0.8861198364419249
vn 0.241708669971759 -0.3954346397631591 0.8861198364419249
usemtl m_2b589b47-8383-c5ef-633b-b18148573e96
f 124/364/91 127/363/91 125/362/91 122/361/91
f 123/368/92 124/367/92 122/366/92 121/365/92
f 128/372/93 123/371/93 121/370/93 126/369/93
f 127/376/94 128/375/94 126/374/94 125/373/94
f 126/380/95 121/379/95 122/378/95 125/377/95
f 127/384/96 124/383/96 123/382/96 128/381/96
o Lever
v 0.1897505820541614 3.419994993302891 0.39458176661016614
v 0.23484124596691403 3.462472316689607 0.40287387284486664
v 0.1870428131054125 3.3509192406853083 0.7631549728903226
v 0.2321334770181651 3.3933965640720243 0.7714470791250232
v 0.2781180106436814 3.4180945468778567 0.39487479879551374
v 0.23302734673092884 3.3756172234911412 0.38658269256081323
v 0.2754102416949326 3.3490187942602745 0.7634480050756702
v 0.23031957778218004 3.3065414708735585 0.7551558988409697
vt 0.23828125 0.890625
vt 0.2421875 0.890625
vt 0.2421875 0.8671875
vt 0.23828125 0.8671875
vt 0.234375 0.890625
vt 0.23828125 0.890625
vt 0.23828125 0.8671875
vt 0.234375 0.8671875
vt 0.24609375 0.890625
vt 0.25 0.890625
vt 0.25 0.8671875
vt 0.24609375 0.8671875
vt 0.2421875 0.890625
vt 0.24609375 0.890625
vt 0.24609375 0.8671875
vt 0.2421875 0.8671875
vt 0.2421875 0.890625
vt 0.23828125 0.890625
vt 0.23828125 0.89453125
vt 0.2421875 0.89453125
vt 0.24609375 0.89453125
vt 0.2421875 0.89453125
vt 0.2421875 0.890625
vt 0.24609375 0.890625
vn 0.721450622604041 0.6796371741874531 0.13267369975520873
vn -0.69242823482828 0.7100443169879981 0.12798518478964646
vn -0.721450622604041 -0.6796371741874531 -0.13267369975520873
vn 0.69242823482828 -0.7100443169879981 -0.12798518478964646
vn 0.007220717196663524 0.18420200698021996 -0.9828618834137506
vn -0.007220717196663524 -0.18420200698021996 0.9828618834137506
usemtl m_2b589b47-8383-c5ef-633b-b18148573e96
f 132/388/97 135/387/97 133/386/97 130/385/97
f 131/392/98 132/391/98 130/390/98 129/389/98
f 136/396/99 131/395/99 129/394/99 134/393/99
f 135/400/100 136/399/100 134/398/100 133/397/100
f 134/404/101 129/403/101 130/402/101 133/401/101
f 135/408/102 132/407/102 131/406/102 136/405/102
o Lever
v -0.06811209813887753 3.0877994988371675 0.8424622778606048
v -0.08310993505631137 3.0840897277726818 0.7819019568042632
v 0.18704219825597246 3.350918561671163 0.76315500325979
v 0.17204436133853862 3.3472087906066768 0.7025946822034485
v -0.039833170379544036 3.039711957960932 0.7739028827549104
v -0.0248353334621102 3.043421729025418 0.8344632038112518
v 0.21532112601530606 3.302831020794927 0.6945956081540956
v 0.2303189629327399 3.306540791859413 0.7551559292104371
vt 0.1953125 0.99609375
vt 0.19921875 0.99609375
vt 0.19921875 0.97265625
vt 0.1953125 0.97265625
vt 0.19140625 0.99609375
vt 0.1953125 0.99609375
vt 0.1953125 0.97265625
vt 0.19140625 0.97265625
vt 0.203125 0.99609375
vt 0.20703125 0.99609375
vt 0.20703125 0.97265625
vt 0.203125 0.97265625
vt 0.19921875 0.99609375
vt 0.203125 0.99609375
vt 0.203125 0.97265625
vt 0.19921875 0.97265625
vt 0.19921875 0.99609375
vt 0.1953125 0.99609375
vt 0.1953125 1
vt 0.19921875 1
vt 0.203125 1
vt 0.19921875 1
vt 0.19921875 0.99609375
vt 0.203125 0.99609375
vn -0.23996539067894052 -0.059356337031777895 -0.9689651369014645
vn -0.6924282348282799 0.7100443169879981 0.12798518478964646
vn 0.23996539067894052 0.059356337031777895 0.9689651369014645
vn 0.6924282348282799 -0.7100443169879981 -0.12798518478964646
vn -0.6804114570529337 -0.7016508342239873 0.21148606560217323
vn 0.6804114570529337 0.7016508342239873 -0.21148606560217323
usemtl m_2b589b47-8383-c5ef-633b-b18148573e96
f 140/412/103 143/411/103 141/410/103 138/409/103
f 139/416/104 140/415/104 138/414/104 137/413/104
f 144/420/105 139/419/105 137/418/105 142/417/105
f 143/424/106 144/423/106 142/422/106 141/421/106
f 142/428/107 137/427/107 138/426/107 141/425/107
f 143/432/108 140/431/108 139/430/108 144/429/108
o Lever
v 0.034326993072094636 3.043877500118623 0.8374955049534257
v 0.05006472182713917 3.039402950599243 0.777175091325606
v -0.21921795201416805 3.306568022050463 0.7518587692123802
v -0.2034802232591234 3.302093472531083 0.6915383555845604
v 0.09334148650390672 3.083780720410993 0.7851741653749589
v 0.07760375774886208 3.0882552699303734 0.8454945790027787
v -0.16020345858235585 3.3464712423428327 0.6995374296339134
v -0.1759411873374005 3.350945791862213 0.7598578432617331
vt 0.00390625 0.99609375
vt 0.0078125 0.99609375
vt 0.0078125 0.97265625
vt 0.00390625 0.97265625
vt 0 0.99609375
vt 0.00390625 0.99609375
vt 0.00390625 0.97265625
vt 0 0.97265625
vt 0.01171875 0.99609375
vt 0.015625 0.99609375
vt 0.015625 0.97265625
vt 0.01171875 0.97265625
vt 0.0078125 0.99609375
vt 0.01171875 0.99609375
vt 0.01171875 0.97265625
vt 0.0078125 0.97265625
vt 0.0078125 0.99609375
vt 0.00390625 0.99609375
vt 0.00390625 1
vt 0.0078125 1
vt 0.01171875 1
vt 0.0078125 1
vt 0.0078125 0.99609375
vt 0.01171875 0.99609375
vn 0.25180366008071364 -0.07159279231008527 -0.9651266180451152
vn -0.6924282348282802 -0.710044316987998 -0.12798518478964638
vn -0.25180366008071364 0.07159279231008527 0.9651266180451152
vn 0.6924282348282802 0.710044316987998 0.12798518478964638
vn 0.6761198535633672 -0.7005080584849059 0.2283646286427885
vn -0.6761198535633672 0.7005080584849059 -0.2283646286427885
usemtl m_2b589b47-8383-c5ef-633b-b18148573e96
f 148/436/109 151/435/109 149/434/109 146/433/109
f 147/440/110 148/439/110 146/438/110 145/437/110
f 152/444/111 147/443/111 145/442/111 150/441/111
f 151/448/112 152/447/112 150/446/112 149/445/112
f 150/452/113 145/451/113 146/450/113 149/449/113
f 151/456/114 148/455/114 147/454/114 152/453/114
o Lever
v 0.03749999999999998 2.372152398788859 0.5986993057219203
v 0.03749999999999998 2.24308591584628 0.4626916111571163
v 0.03749999999999998 2.326816500600591 0.6417214667027799
v 0.03749999999999998 2.197750017658012 0.5057137721379759
v -0.025000000000000022 2.24308591584628 0.4626916111571163
v -0.025000000000000022 2.372152398788859 0.5986993057219203
v -0.025000000000000022 2.197750017658012 0.5057137721379759
v -0.025000000000000022 2.326816500600591 0.6417214667027799
vt 0.24609375 0.9375
vt 0.25 0.9375
vt 0.25 0.93359375
vt 0.24609375 0.93359375
vt 0.234375 0.9375
vt 0.24609375 0.9375
vt 0.24609375 0.93359375
vt 0.234375 0.93359375
vt 0.26171875 0.9375
vt 0.265625 0.9375
vt 0.265625 0.93359375
vt 0.26171875 0.93359375
vt 0.25 0.9375
vt 0.26171875 0.9375
vt 0.26171875 0.93359375
vt 0.25 0.93359375
vt 0.25 0.9375
vt 0.24609375 0.9375
vt 0.24609375 0.94921875
vt 0.25 0.94921875
vt 0.25390625 0.94921875
vt 0.25 0.94921875
vt 0.25 0.9375
vt 0.25390625 0.9375
vn 0 -0.6883545756937539 -0.7253743710122877
vn 1 0 0
vn 0 0.6883545756937539 0.7253743710122877
vn -1 0 0
vn 0 0.7253743710122877 -0.6883545756937539
vn 0 -0.7253743710122877 0.6883545756937539
usemtl m_2b589b47-8383-c5ef-633b-b18148573e96
f 156/460/115 159/459/115 157/458/115 154/457/115
f 155/464/116 156/463/116 154/462/116 153/461/116
f 160/468/117 155/467/117 153/466/117 158/465/117
f 159/472/118 160/471/118 158/470/118 157/469/118
f 158/476/119 153/475/119 154/474/119 157/473/119
f 159/480/120 156/479/120 155/478/120 160/477/120
o Lever
v 0.03749999999999998 2.425397248304246 0.5820889526885829
v 0.03749999999999998 2.3021115481120917 0.561458001955998
v 0.03749999999999998 2.4150817729379535 0.6437318027846598
v 0.03749999999999998 2.2917960727457993 0.6231008520520751
v -0.025000000000000022 2.3021115481120917 0.561458001955998
v -0.025000000000000022 2.425397248304246 0.5820889526885829
v -0.025000000000000022 2.2917960727457993 0.6231008520520751
v -0.025000000000000022 2.4150817729379535 0.6437318027846598
vt 0.11328125 0.6875
vt 0.1171875 0.6875
vt 0.1171875 0.68359375
vt 0.11328125 0.68359375
vt 0.10546875 0.6875
vt 0.11328125 0.6875
vt 0.11328125 0.68359375
vt 0.10546875 0.68359375
vt 0.125 0.6875
vt 0.12890625 0.6875
vt 0.12890625 0.68359375
vt 0.125 0.68359375
vt 0.1171875 0.6875
vt 0.125 0.6875
vt 0.125 0.68359375
vt 0.1171875 0.68359375
vt 0.1171875 0.6875
vt 0.11328125 0.6875
vt 0.11328125 0.6953125
vt 0.1171875 0.6953125
vt 0.12109375 0.6953125
vt 0.1171875 0.6953125
vt 0.1171875 0.6875
vt 0.12109375 0.6875
vn 0 -0.9862856015372314 -0.16504760586067785
vn 1 0 0
vn 0 0.9862856015372314 0.16504760586067785
vn -1 0 0
vn 0 0.16504760586067785 -0.9862856015372314
vn 0 -0.16504760586067785 0.9862856015372314
usemtl m_2b589b47-8383-c5ef-633b-b18148573e96
f 164/484/121 167/483/121 165/482/121 162/481/121
f 163/488/122 164/487/122 162/486/122 161/485/122
f 168/492/123 163/491/123 161/490/123 166/489/123
f 167/496/124 168/495/124 166/494/124 165/493/124
f 166/500/125 161/499/125 162/498/125 165/497/125
f 167/504/126 164/503/126 163/502/126 168/501/126
o Lever
v 0.03749999999999998 2.378637071147054 0.5305397164213742
v 0.03749999999999998 2.3042842228031364 0.6310218239985264
v 0.03749999999999998 2.42887812493563 0.5677161405933331
v 0.03749999999999998 2.3545252765917124 0.6681982481704852
v -0.025000000000000022 2.3042842228031364 0.6310218239985264
v -0.025000000000000022 2.378637071147054 0.5305397164213742
v -0.025000000000000022 2.3545252765917124 0.6681982481704852
v -0.025000000000000022 2.42887812493563 0.5677161405933331
vt 0.12890625 0.68359375
vt 0.1328125 0.68359375
vt 0.1328125 0.6796875
vt 0.12890625 0.6796875
vt 0.12109375 0.68359375
vt 0.12890625 0.68359375
vt 0.12890625 0.6796875
vt 0.12109375 0.6796875
vt 0.140625 0.68359375
vt 0.14453125 0.68359375
vt 0.14453125 0.6796875
vt 0.140625 0.6796875
vt 0.1328125 0.68359375
vt 0.140625 0.68359375
vt 0.140625 0.6796875
vt 0.1328125 0.6796875
vt 0.1328125 0.68359375
vt 0.12890625 0.68359375
vt 0.12890625 0.69140625
vt 0.1328125 0.69140625
vt 0.13671875 0.69140625
vt 0.1328125 0.69140625
vt 0.1328125 0.68359375
vt 0.13671875 0.68359375
vn 0 -0.5948227867513417 0.803856860617217
vn 1 0 0
vn 0 0.5948227867513417 -0.803856860617217
vn -1 0 0
vn 0 -0.803856860617217 -0.5948227867513417
vn 0 0.803856860617217 0.5948227867513417
usemtl m_2b589b47-8383-c5ef-633b-b18148573e96
f 172/508/127 175/507/127 173/506/127 170/505/127
f 171/512/128 172/511/128 170/510/128 169/509/128
f 176/516/129 171/515/129 169/514/129 174/513/129
f 175/520/130 176/519/130 174/518/130 173/517/130
f 174/524/131 169/523/131 170/522/131 173/521/131
f 175/528/132 172/527/132 171/526/132 176/525/132
o Lever
v 1.00625 0.5763092248865763 -0.05153474556992094
v 1.00625 0.3098591735259225 -0.21481554704365502
v 1.00625 0.4130284234128422 0.21491530579073292
v 1.00625 0.1465783720521884 0.05163450431699884
v -0.99375 0.3098591735259225 -0.21481554704365502
v -0.99375 0.5763092248865763 -0.05153474556992094
v -0.99375 0.1465783720521884 0.05163450431699884
v -0.99375 0.4130284234128422 0.21491530579073292
vt 0.34375 0.67578125
vt 0.46875 0.67578125
vt 0.46875 0.65625
vt 0.34375 0.65625
vt 0.32421875 0.67578125
vt 0.34375 0.67578125
vt 0.34375 0.65625
vt 0.32421875 0.65625
vt 0.48828125 0.67578125
vt 0.61328125 0.67578125
vt 0.61328125 0.65625
vt 0.48828125 0.65625
vt 0.46875 0.67578125
vt 0.48828125 0.67578125
vt 0.48828125 0.65625
vt 0.46875 0.65625
vt 0.46875 0.67578125
vt 0.34375 0.67578125
vt 0.34375 0.6953125
vt 0.46875 0.6953125
vt 0.59375 0.6953125
vt 0.46875 0.6953125
vt 0.46875 0.67578125
vt 0.59375 0.67578125
vn 0 -0.8526401643540922 -0.522498564715949
vn 1 0 0
vn 0 0.8526401643540922 0.522498564715949
vn -1 0 0
vn 0 0.522498564715949 -0.8526401643540922
vn 0 -0.522498564715949 0.8526401643540922
usemtl m_2b589b47-8383-c5ef-633b-b18148573e96
f 180/532/133 183/531/133 181/530/133 178/529/133
f 179/536/134 180/535/134 178/534/134 177/533/134
f 184/540/135 179/539/135 177/538/135 182/537/135
f 183/544/136 184/543/136 182/542/136 181/541/136
f 182/548/137 177/547/137 178/546/137 181/545/137
f 183/552/138 180/551/138 179/550/138 184/549/138