# Made in Blockbench 5.0.3
mtllib taranArm1.mtl

o RamHead
v 0.031249999999999972 1.2464150429449554 -2.8
v 0.031249999999999972 1.2464150429449554 -2.8625
v 0.29641504294495535 0.98125 -2.8
v 0.29641504294495535 0.98125 -2.8625
v -0.23391504294495535 0.98125 -2.8625
v -0.23391504294495535 0.98125 -2.8
v 0.03125000000000003 0.7160849570550446 -2.8625
v 0.03125000000000003 0.7160849570550446 -2.8
vt 0.33203125 0.740234375
vt 0.34375 0.740234375
vt 0.34375 0.728515625
vt 0.33203125 0.728515625
vt 0.330078125 0.740234375
vt 0.33203125 0.740234375
vt 0.33203125 0.728515625
vt 0.330078125 0.728515625
vt 0.345703125 0.740234375
vt 0.357421875 0.740234375
vt 0.357421875 0.728515625
vt 0.345703125 0.728515625
vt 0.34375 0.740234375
vt 0.345703125 0.740234375
vt 0.345703125 0.728515625
vt 0.34375 0.728515625
vt 0.34375 0.740234375
vt 0.33203125 0.740234375
vt 0.33203125 0.7421875
vt 0.34375 0.7421875
vt 0.35546875 0.7421875
vt 0.34375 0.7421875
vt 0.34375 0.740234375
vt 0.35546875 0.740234375
vn 0 0 -1
vn 0.7071067811865475 0.7071067811865476 0
vn 0 0 1
vn -0.7071067811865475 -0.7071067811865476 0
vn -0.7071067811865476 0.7071067811865475 0
vn 0.7071067811865476 -0.7071067811865475 0
usemtl m_752d9ec4-c8dc-ccf0-b51b-b09c8f003af1
f 4/4/1 7/3/1 5/2/1 2/1/1
f 3/8/2 4/7/2 2/6/2 1/5/2
f 8/12/3 3/11/3 1/10/3 6/9/3
f 7/16/4 8/15/4 6/14/4 5/13/4
f 6/20/5 1/19/5 2/18/5 5/17/5
f 7/24/6 4/23/6 3/22/6 8/21/6
o RamHead
v 0.1875 1.1375 -2.8
v 0.1875 1.1375 -2.925
v 0.1875 0.825 -2.8
v 0.1875 0.825 -2.925
v -0.125 1.1375 -2.925
v -0.125 1.1375 -2.8
v -0.125 0.825 -2.925
v -0.125 0.825 -2.8
vt 0.330078125 0.796875
vt 0.33984375 0.796875
vt 0.33984375 0.787109375
vt 0.330078125 0.787109375
vt 0.326171875 0.796875
vt 0.330078125 0.796875
vt 0.330078125 0.787109375
vt 0.326171875 0.787109375
vt 0.34375 0.796875
vt 0.353515625 0.796875
vt 0.353515625 0.787109375
vt 0.34375 0.787109375
vt 0.33984375 0.796875
vt 0.34375 0.796875
vt 0.34375 0.787109375
vt 0.33984375 0.787109375
vt 0.33984375 0.796875
vt 0.330078125 0.796875
vt 0.330078125 0.80078125
vt 0.33984375 0.80078125
vt 0.349609375 0.80078125
vt 0.33984375 0.80078125
vt 0.33984375 0.796875
vt 0.349609375 0.796875
vn 0 0 -1
vn 1 0 0
vn 0 0 1
vn -1 0 0
vn 0 1 0
vn 0 -1 0
usemtl m_752d9ec4-c8dc-ccf0-b51b-b09c8f003af1
f 12/28/7 15/27/7 13/26/7 10/25/7
f 11/32/8 12/31/8 10/30/8 9/29/8
f 16/36/9 11/35/9 9/34/9 14/33/9
f 15/40/10 16/39/10 14/38/10 13/37/10
f 14/44/11 9/43/11 10/42/11 13/41/11
f 15/48/12 12/47/12 11/46/12 16/45/12
o RamHead
v 0.15625 1.1625 -2.8
v 0.15625 1.1625 -3.1125
v 0.15625 0.9125000000000001 -2.8
v 0.15625 0.9125000000000001 -3.1125
v -0.09375 1.1625 -3.1125
v -0.09375 1.1625 -2.8
v -0.09375 0.9125000000000001 -3.1125
v -0.09375 0.9125000000000001 -2.8
vt 0.31640625 0.765625
vt 0.32421875 0.765625
vt 0.32421875 0.7578125
vt 0.31640625 0.7578125
vt 0.306640625 0.765625
vt 0.31640625 0.765625
vt 0.31640625 0.7578125
vt 0.306640625 0.7578125
vt 0.333984375 0.765625
vt 0.341796875 0.765625
vt 0.341796875 0.7578125
vt 0.333984375 0.7578125
vt 0.32421875 0.765625
vt 0.333984375 0.765625
vt 0.333984375 0.7578125
vt 0.32421875 0.7578125
vt 0.32421875 0.765625
vt 0.31640625 0.765625
vt 0.31640625 0.775390625
vt 0.32421875 0.775390625
vt 0.33203125 0.775390625
vt 0.32421875 0.775390625
vt 0.32421875 0.765625
vt 0.33203125 0.765625
vn 0 0 -1
vn 1 0 0
vn 0 0 1
vn -1 0 0
vn 0 1 0
vn 0 -1 0
usemtl m_752d9ec4-c8dc-ccf0-b51b-b09c8f003af1
f 20/52/13 23/51/13 21/50/13 18/49/13
f 19/56/14 20/55/14 18/54/14 17/53/14
f 24/60/15 19/59/15 17/58/15 22/57/15
f 23/64/16 24/63/16 22/62/16 21/61/16
f 22/68/17 17/67/17 18/66/17 21/65/17
f 23/72/18 20/71/18 19/70/18 24/69/18
o RamHead
v 0.1875 1.23125 -3.1125
v 0.1875 1.23125 -3.3625
v 0.1875 0.91875 -3.1125
v 0.1875 0.91875 -3.3625
v -0.125 1.23125 -3.3625
v -0.125 1.23125 -3.1125
v -0.125 0.91875 -3.3625
v -0.125 0.91875 -3.1125
vt 0.306640625 0.78515625
vt 0.31640625 0.78515625
vt 0.31640625 0.775390625
vt 0.306640625 0.775390625
vt 0.298828125 0.78515625
vt 0.306640625 0.78515625
vt 0.306640625 0.775390625
vt 0.298828125 0.775390625
vt 0.32421875 0.78515625
vt 0.333984375 0.78515625
vt 0.333984375 0.775390625
vt 0.32421875 0.775390625
vt 0.31640625 0.78515625
vt 0.32421875 0.78515625
vt 0.32421875 0.775390625
vt 0.31640625 0.775390625
vt 0.31640625 0.78515625
vt 0.306640625 0.78515625
vt 0.306640625 0.79296875
vt 0.31640625 0.79296875
vt 0.326171875 0.79296875
vt 0.31640625 0.79296875
vt 0.31640625 0.78515625
vt 0.326171875 0.78515625
vn 0 0 -1
vn 1 0 0
vn 0 0 1
vn -1 0 0
vn 0 1 0
vn 0 -1 0
usemtl m_752d9ec4-c8dc-ccf0-b51b-b09c8f003af1
f 28/76/19 31/75/19 29/74/19 26/73/19
f 27/80/20 28/79/20 26/78/20 25/77/20
f 32/84/21 27/83/21 25/82/21 30/81/21
f 31/88/22 32/87/22 30/86/22 29/85/22
f 30/92/23 25/91/23 26/90/23 29/89/23
f 31/96/24 28/95/24 27/94/24 32/93/24
o RamHead
v 0.125 1.0244042627522734 -3.1359232386586093
v 0.125 0.9187496973170984 -3.3625001854177716
v 0.125 0.7978273159931109 -3.0302686732234343
v 0.125 0.692172750557936 -3.256845619982597
v -0.0625 0.9187496973170984 -3.3625001854177716
v -0.0625 1.0244042627522734 -3.1359232386586093
v -0.0625 0.692172750557936 -3.256845619982597
v -0.0625 0.7978273159931109 -3.0302686732234343
vt 0.314453125 0.75
vt 0.3203125 0.75
vt 0.3203125 0.7421875
vt 0.314453125 0.7421875
vt 0.306640625 0.75
vt 0.314453125 0.75
vt 0.314453125 0.7421875
vt 0.306640625 0.7421875
vt 0.328125 0.75
vt 0.333984375 0.75
vt 0.333984375 0.7421875
vt 0.328125 0.7421875
vt 0.3203125 0.75
vt 0.328125 0.75
vt 0.328125 0.7421875
vt 0.3203125 0.7421875
vt 0.3203125 0.75
vt 0.314453125 0.75
vt 0.314453125 0.7578125
vt 0.3203125 0.7578125
vt 0.326171875 0.7578125
vt 0.3203125 0.7578125
vt 0.3203125 0.75
vt 0.326171875 0.75
vn 0 -0.42261826174069944 -0.9063077870366499
vn 1 0 0
vn 0 0.42261826174069944 0.9063077870366499
vn -1 0 0
vn 0 0.9063077870366499 -0.42261826174069944
vn 0 -0.9063077870366499 0.42261826174069944
usemtl m_752d9ec4-c8dc-ccf0-b51b-b09c8f003af1
f 36/100/25 39/99/25 37/98/25 34/97/25
f 35/104/26 36/103/26 34/102/26 33/101/26
f 40/108/27 35/107/27 33/106/27 38/105/27
f 39/112/28 40/111/28 38/110/28 37/109/28
f 38/116/29 33/115/29 34/114/29 37/113/29
f 39/120/30 36/119/30 35/118/30 40/117/30
o RamHead
v 0.21875 1.2487625 -3.23605875
v 0.21875 1.2487625 -3.36105875
v 0.21875 1.1237625 -3.23605875
v 0.21875 1.1237625 -3.36105875
v 0.15625 1.2487625 -3.36105875
v 0.15625 1.2487625 -3.23605875
v 0.15625 1.1237625 -3.36105875
v 0.15625 1.1237625 -3.23605875
vt 0.0390625 0.685546875
vt 0.041015625 0.685546875
vt 0.041015625 0.681640625
vt 0.0390625 0.681640625
vt 0.03515625 0.685546875
vt 0.0390625 0.685546875
vt 0.0390625 0.681640625
vt 0.03515625 0.681640625
vt 0.044921875 0.685546875
vt 0.046875 0.685546875
vt 0.046875 0.681640625
vt 0.044921875 0.681640625
vt 0.041015625 0.685546875
vt 0.044921875 0.685546875
vt 0.044921875 0.681640625
vt 0.041015625 0.681640625
vt 0.041015625 0.685546875
vt 0.0390625 0.685546875
vt 0.0390625 0.689453125
vt 0.041015625 0.689453125
vt 0.04296875 0.689453125
vt 0.041015625 0.689453125
vt 0.041015625 0.685546875
vt 0.04296875 0.685546875
vn 0 0 -1
vn 1 0 0
vn 0 0 1
vn -1 0 0
vn 0 1 0
vn 0 -1 0
usemtl m_752d9ec4-c8dc-ccf0-b51b-b09c8f003af1
f 44/124/31 47/123/31 45/122/31 42/121/31
f 43/128/32 44/127/32 42/126/32 41/125/32
f 48/132/33 43/131/33 41/130/33 46/129/33
f 47/136/34 48/135/34 46/134/34 45/133/34
f 46/140/35 41/139/35 42/138/35 45/137/35
f 47/144/36 44/143/36 43/142/36 48/141/36
o RamHead
v 0.2375 1.3347569663756398 -3.2573242013623984
v 0.2375 1.2544085151648225 -3.3530797567522708
v 0.2375 1.2390014109857677 -3.176975750151581
v 0.2375 1.1586529597749502 -3.2727313055414533
v 0.175 1.2544085151648225 -3.3530797567522708
v 0.175 1.3347569663756398 -3.2573242013623984
v 0.175 1.1586529597749502 -3.2727313055414533
v 0.175 1.2390014109857677 -3.176975750151581
vt 0.02734375 0.685546875
vt 0.029296875 0.685546875
vt 0.029296875 0.681640625
vt 0.02734375 0.681640625
vt 0.0234375 0.685546875
vt 0.02734375 0.685546875
vt 0.02734375 0.681640625
vt 0.0234375 0.681640625
vt 0.033203125 0.685546875
vt 0.03515625 0.685546875
vt 0.03515625 0.681640625
vt 0.033203125 0.681640625
vt 0.029296875 0.685546875
vt 0.033203125 0.685546875
vt 0.033203125 0.681640625
vt 0.029296875 0.681640625
vt 0.029296875 0.685546875
vt 0.02734375 0.685546875
vt 0.02734375 0.689453125
vt 0.029296875 0.689453125
vt 0.03125 0.689453125
vt 0.029296875 0.689453125
vt 0.029296875 0.685546875
vt 0.03125 0.685546875
vn 0 -0.6427876096865394 -0.7660444431189781
vn 1 0 0
vn 0 0.6427876096865394 0.7660444431189781
vn -1 0 0
vn 0 0.7660444431189781 -0.6427876096865394
vn 0 -0.7660444431189781 0.6427876096865394
usemtl m_752d9ec4-c8dc-ccf0-b51b-b09c8f003af1
f 52/148/37 55/147/37 53/146/37 50/145/37
f 51/152/38 52/151/38 50/150/38 49/149/38
f 56/156/39 51/155/39 49/154/39 54/153/39
f 55/160/40 56/159/40 54/158/40 53/157/40
f 54/164/41 49/163/41 50/162/41 53/161/41
f 55/168/42 52/167/42 51/166/42 56/165/42
o RamHead
v 0.26875 1.3226970378215892 -3.2527264854084104
v 0.26875 1.199596068695063 -3.274432507616777
v 0.26875 1.300991015613223 -3.1296255162818847
v 0.26875 1.1778900464866968 -3.151331538490251
v 0.20625 1.199596068695063 -3.274432507616777
v 0.20625 1.3226970378215892 -3.2527264854084104
v 0.20625 1.1778900464866968 -3.151331538490251
v 0.20625 1.300991015613223 -3.1296255162818847
vt 0.015625 0.685546875
vt 0.017578125 0.685546875
vt 0.017578125 0.681640625
vt 0.015625 0.681640625
vt 0.01171875 0.685546875
vt 0.015625 0.685546875
vt 0.015625 0.681640625
vt 0.01171875 0.681640625
vt 0.021484375 0.685546875
vt 0.0234375 0.685546875
vt 0.0234375 0.681640625
vt 0.021484375 0.681640625
vt 0.017578125 0.685546875
vt 0.021484375 0.685546875
vt 0.021484375 0.681640625
vt 0.017578125 0.681640625
vt 0.017578125 0.685546875
vt 0.015625 0.685546875
vt 0.015625 0.689453125
vt 0.017578125 0.689453125
vt 0.01953125 0.689453125
vt 0.017578125 0.689453125
vt 0.017578125 0.685546875
vt 0.01953125 0.685546875
vn 0 -0.9848077530122081 -0.17364817766693055
vn 1 0 0
vn 0 0.9848077530122081 0.17364817766693055
vn -1 0 0
vn 0 0.17364817766693055 -0.9848077530122081
vn 0 -0.17364817766693055 0.9848077530122081
usemtl m_752d9ec4-c8dc-ccf0-b51b-b09c8f003af1
f 60/172/43 63/171/43 61/170/43 58/169/43
f 59/176/44 60/175/44 58/174/44 57/173/44
f 64/180/45 59/179/45 57/178/45 62/177/45
f 63/184/46 64/183/46 62/182/46 61/181/46
f 62/188/47 57/187/47 58/186/47 61/185/47
f 63/192/48 60/191/48 59/190/48 64/189/48
o RamHead
v 0.28125 1.2892797265357483 -3.124452647534425
v 0.28125 1.2221172754923955 -3.229876578261036
v 0.28125 1.1838557958091376 -3.0572901964910724
v 0.28125 1.1166933447657847 -3.162714127217683
v 0.21875 1.2221172754923955 -3.229876578261036
v 0.21875 1.2892797265357483 -3.124452647534425
v 0.21875 1.1166933447657847 -3.162714127217683
v 0.21875 1.1838557958091376 -3.0572901964910724
vt 0.00390625 0.685546875
vt 0.005859375 0.685546875
vt 0.005859375 0.681640625
vt 0.00390625 0.681640625
vt 0 0.685546875
vt 0.00390625 0.685546875
vt 0.00390625 0.681640625
vt 0 0.681640625
vt 0.009765625 0.685546875
vt 0.01171875 0.685546875
vt 0.01171875 0.681640625
vt 0.009765625 0.681640625
vt 0.005859375 0.685546875
vt 0.009765625 0.685546875
vt 0.009765625 0.681640625
vt 0.005859375 0.681640625
vt 0.005859375 0.685546875
vt 0.00390625 0.685546875
vt 0.00390625 0.689453125
vt 0.005859375 0.689453125
vt 0.0078125 0.689453125
vt 0.005859375 0.689453125
vt 0.005859375 0.685546875
vt 0.0078125 0.685546875
vn 0 -0.5372996083468239 -0.8433914458128857
vn 1 0 0
vn 0 0.5372996083468239 0.8433914458128857
vn -1 0 0
vn 0 0.8433914458128857 -0.5372996083468239
vn 0 -0.8433914458128857 0.5372996083468239
usemtl m_752d9ec4-c8dc-ccf0-b51b-b09c8f003af1
f 68/196/49 71/195/49 69/194/49 66/193/49
f 67/200/50 68/199/50 66/198/50 65/197/50
f 72/204/51 67/203/51 65/202/51 70/201/51
f 71/208/52 72/207/52 70/206/52 69/205/52
f 70/212/53 65/211/53 66/210/53 69/209/53
f 71/216/54 68/215/54 67/214/54 72/213/54
o RamHead
v 0.29375 1.0151631088852533 -3.1122476375254307
v 0.29375 1.063734731476314 -3.151580161966046
v 0.29375 0.9364980600040236 -3.2093908827075524
v 0.29375 0.9850696825950842 -3.2487234071481668
v 0.23125 1.063734731476314 -3.151580161966046
v 0.23125 1.0151631088852533 -3.1122476375254307
v 0.23125 0.9850696825950842 -3.2487234071481668
v 0.23125 0.9364980600040236 -3.2093908827075524
vt 0.001953125 0.779296875
vt 0.00390625 0.779296875
vt 0.00390625 0.775390625
vt 0.001953125 0.775390625
vt 0 0.779296875
vt 0.001953125 0.779296875
vt 0.001953125 0.775390625
vt 0 0.775390625
vt 0.005859375 0.779296875
vt 0.0078125 0.779296875
vt 0.0078125 0.775390625
vt 0.005859375 0.775390625
vt 0.00390625 0.779296875
vt 0.005859375 0.779296875
vt 0.005859375 0.775390625
vt 0.00390625 0.775390625
vt 0.00390625 0.779296875
vt 0.001953125 0.779296875
vt 0.001953125 0.78125
vt 0.00390625 0.78125
vt 0.005859375 0.78125
vt 0.00390625 0.78125
vt 0.00390625 0.779296875
vt 0.005859375 0.779296875
vn 0 0.7771459614569709 -0.6293203910498375
vn 1 0 0
vn 0 -0.7771459614569709 0.6293203910498375
vn -1 0 0
vn 0 0.6293203910498375 0.7771459614569709
vn 0 -0.6293203910498375 -0.7771459614569709
usemtl m_752d9ec4-c8dc-ccf0-b51b-b09c8f003af1
f 76/220/55 79/219/55 77/218/55 74/217/55
f 75/224/56 76/223/56 74/222/56 73/221/56
f 80/228/57 75/227/57 73/226/57 78/225/57
f 79/232/58 80/231/58 78/230/58 77/229/58
f 78/236/59 73/235/59 74/234/59 77/233/59
f 79/240/60 76/239/60 75/238/60 80/237/60
o RamHead
v 0.28125 1.0031257383691856 -3.1668379453745255
v 0.28125 1.0516973609602462 -3.20617046981514
v 0.28125 0.9244606894879559 -3.2639811905566467
v 0.28125 0.9730323120790165 -3.3033137149972616
v 0.21875 1.0516973609602462 -3.20617046981514
v 0.21875 1.0031257383691856 -3.1668379453745255
v 0.21875 0.9730323120790165 -3.3033137149972616
v 0.21875 0.9244606894879559 -3.2639811905566467
vt 0.150390625 0.837890625
vt 0.15234375 0.837890625
vt 0.15234375 0.833984375
vt 0.150390625 0.833984375
vt 0.1484375 0.837890625
vt 0.150390625 0.837890625
vt 0.150390625 0.833984375
vt 0.1484375 0.833984375
vt 0.154296875 0.837890625
vt 0.15625 0.837890625
vt 0.15625 0.833984375
vt 0.154296875 0.833984375
vt 0.15234375 0.837890625
vt 0.154296875 0.837890625
vt 0.154296875 0.833984375
vt 0.15234375 0.833984375
vt 0.15234375 0.837890625
vt 0.150390625 0.837890625
vt 0.150390625 0.83984375
vt 0.15234375 0.83984375
vt 0.154296875 0.83984375
vt 0.15234375 0.83984375
vt 0.15234375 0.837890625
vt 0.154296875 0.837890625
vn 0 0.7771459614569709 -0.6293203910498375
vn 1 0 0
vn 0 -0.7771459614569709 0.6293203910498375
vn -1 0 0
vn 0 0.6293203910498375 0.7771459614569709
vn 0 -0.6293203910498375 -0.7771459614569709
usemtl m_752d9ec4-c8dc-ccf0-b51b-b09c8f003af1
f 84/244/61 87/243/61 85/242/61 82/241/61
f 83/248/62 84/247/62 82/246/62 81/245/62
f 88/252/63 83/251/63 81/250/63 86/249/63
f 87/256/64 88/255/64 86/254/64 85/253/64
f 86/260/65 81/259/65 82/258/65 85/257/65
f 87/264/66 84/263/66 83/262/66 88/261/66
o RamHead
v 0.29375 1.1895764633252184 -3.0634480721220174
v 0.29375 1.2102074140578032 -3.186733772314171
v 0.29375 1.0662907631330645 -3.084079022854602
v 0.29375 1.0869217138656493 -3.207364723046756
v 0.23125 1.2102074140578032 -3.186733772314171
v 0.23125 1.1895764633252184 -3.0634480721220174
v 0.23125 1.0869217138656493 -3.207364723046756
v 0.23125 1.0662907631330645 -3.084079022854602
vt 0.291015625 0.6875
vt 0.29296875 0.6875
vt 0.29296875 0.68359375
vt 0.291015625 0.68359375
vt 0.287109375 0.6875
vt 0.291015625 0.6875
vt 0.291015625 0.68359375
vt 0.287109375 0.68359375
vt 0.296875 0.6875
vt 0.298828125 0.6875
vt 0.298828125 0.68359375
vt 0.296875 0.68359375
vt 0.29296875 0.6875
vt 0.296875 0.6875
vt 0.296875 0.68359375
vt 0.29296875 0.68359375
vt 0.29296875 0.6875
vt 0.291015625 0.6875
vt 0.291015625 0.69140625
vt 0.29296875 0.69140625
vt 0.294921875 0.69140625
vt 0.29296875 0.69140625
vt 0.29296875 0.6875
vt 0.294921875 0.6875
vn 0 0.16504760586067765 -0.9862856015372314
vn 1 0 0
vn 0 -0.16504760586067765 0.9862856015372314
vn -1 0 0
vn 0 0.9862856015372314 0.16504760586067765
vn 0 -0.9862856015372314 -0.16504760586067765
usemtl m_752d9ec4-c8dc-ccf0-b51b-b09c8f003af1
f 92/268/67 95/267/67 93/266/67 90/265/67
f 91/272/68 92/271/68 90/270/68 89/269/68
f 96/276/69 91/275/69 89/274/69 94/273/69
f 95/280/70 96/279/70 94/278/70 93/277/70
f 94/284/71 89/283/71 90/282/71 93/281/71
f 95/288/72 92/287/72 91/286/72 96/285/72
o RamHead
v 0.2875 1.074118440536004 -3.0855174288189007
v 0.2875 1.1356713855489373 -3.194311890811388
v 0.2875 0.9653239785435166 -3.147070373831834
v 0.2875 1.0268769235564499 -3.2558648358243216
v 0.22499999999999998 1.1356713855489373 -3.194311890811388
v 0.22499999999999998 1.074118440536004 -3.0855174288189007
v 0.22499999999999998 1.0268769235564499 -3.2558648358243216
v 0.22499999999999998 0.9653239785435166 -3.147070373831834
vt 0.279296875 0.6875
vt 0.28125 0.6875
vt 0.28125 0.68359375
vt 0.279296875 0.68359375
vt 0.275390625 0.6875
vt 0.279296875 0.6875
vt 0.279296875 0.68359375
vt 0.275390625 0.68359375
vt 0.28515625 0.6875
vt 0.287109375 0.6875
vt 0.287109375 0.68359375
vt 0.28515625 0.68359375
vt 0.28125 0.6875
vt 0.28515625 0.6875
vt 0.28515625 0.68359375
vt 0.28125 0.68359375
vt 0.28125 0.6875
vt 0.279296875 0.6875
vt 0.279296875 0.69140625
vt 0.28125 0.69140625
vt 0.283203125 0.69140625
vt 0.28125 0.69140625
vt 0.28125 0.6875
vt 0.283203125 0.6875
vn 0 0.4924235601034671 -0.8703556959398997
vn 1 0 0
vn 0 -0.4924235601034671 0.8703556959398997
vn -1 0 0
vn 0 0.8703556959398997 0.4924235601034671
vn 0 -0.8703556959398997 -0.4924235601034671
usemtl m_752d9ec4-c8dc-ccf0-b51b-b09c8f003af1
f 100/292/73 103/291/73 101/290/73 98/289/73
f 99/296/74 100/295/74 98/294/74 97/293/74
f 104/300/75 99/299/75 97/298/75 102/297/75
f 103/304/76 104/303/76 102/302/76 101/301/76
f 102/308/77 97/307/77 98/306/77 101/305/77
f 103/312/78 100/311/78 99/310/78 104/309/78
o RamHead
v -0.15625 1.0031255453121342 -3.166838282555517
v -0.15625 1.0516971679031948 -3.206170806996132
v -0.15625 0.9244604964309044 -3.2639815277376383
v -0.15625 0.9730321190219652 -3.303314052178253
v -0.21875 1.0516971679031948 -3.206170806996132
v -0.21875 1.0031255453121342 -3.166838282555517
v -0.21875 0.9730321190219652 -3.303314052178253
v -0.21875 0.9244604964309044 -3.2639815277376383
vt 0.001953125 0.962890625
vt 0.00390625 0.962890625
vt 0.00390625 0.958984375
vt 0.001953125 0.958984375
vt 0 0.962890625
vt 0.001953125 0.962890625
vt 0.001953125 0.958984375
vt 0 0.958984375
vt 0.005859375 0.962890625
vt 0.0078125 0.962890625
vt 0.0078125 0.958984375
vt 0.005859375 0.958984375
vt 0.00390625 0.962890625
vt 0.005859375 0.962890625
vt 0.005859375 0.958984375
vt 0.00390625 0.958984375
vt 0.00390625 0.962890625
vt 0.001953125 0.962890625
vt 0.001953125 0.96484375
vt 0.00390625 0.96484375
vt 0.005859375 0.96484375
vt 0.00390625 0.96484375
vt 0.00390625 0.962890625
vt 0.005859375 0.962890625
vn 0 0.7771459614569709 -0.6293203910498375
vn 1 0 0
vn 0 -0.7771459614569709 0.6293203910498375
vn -1 0 0
vn 0 0.6293203910498375 0.7771459614569709
vn 0 -0.6293203910498375 -0.7771459614569709
usemtl m_752d9ec4-c8dc-ccf0-b51b-b09c8f003af1
f 108/316/79 111/315/79 109/314/79 106/313/79
f 107/320/80 108/319/80 106/318/80 105/317/80
f 112/324/81 107/323/81 105/322/81 110/321/81
f 111/328/82 112/327/82 110/326/82 109/325/82
f 110/332/83 105/331/83 106/330/83 109/329/83
f 111/336/84 108/335/84 107/334/84 112/333/84
o RamHead
v -0.16875 1.0151629158282016 -3.1122479747064227
v -0.16875 1.0637345384192625 -3.1515804991470375
v -0.16875 0.936497866946972 -3.2093912198885444
v -0.16875 0.9850694895380327 -3.2487237443291592
v -0.23125 1.0637345384192625 -3.1515804991470375
v -0.23125 1.0151629158282016 -3.1122479747064227
v -0.23125 0.9850694895380327 -3.2487237443291592
v -0.23125 0.936497866946972 -3.2093912198885444
vt 0.001953125 0.98046875
vt 0.00390625 0.98046875
vt 0.00390625 0.9765625
vt 0.001953125 0.9765625
vt 0 0.98046875
vt 0.001953125 0.98046875
vt 0.001953125 0.9765625
vt 0 0.9765625
vt 0.005859375 0.98046875
vt 0.0078125 0.98046875
vt 0.0078125 0.9765625
vt 0.005859375 0.9765625
vt 0.00390625 0.98046875
vt 0.005859375 0.98046875
vt 0.005859375 0.9765625
vt 0.00390625 0.9765625
vt 0.00390625 0.98046875
vt 0.001953125 0.98046875
vt 0.001953125 0.982421875
vt 0.00390625 0.982421875
vt 0.005859375 0.982421875
vt 0.00390625 0.982421875
vt 0.00390625 0.98046875
vt 0.005859375 0.98046875
vn 0 0.7771459614569709 -0.6293203910498375
vn 1 0 0
vn 0 -0.7771459614569709 0.6293203910498375
vn -1 0 0
vn 0 0.6293203910498375 0.7771459614569709
vn 0 -0.6293203910498375 -0.7771459614569709
usemtl m_752d9ec4-c8dc-ccf0-b51b-b09c8f003af1
f 116/340/85 119/339/85 117/338/85 114/337/85
f 115/344/86 116/343/86 114/342/86 113/341/86
f 120/348/87 115/347/87 113/346/87 118/345/87
f 119/352/88 120/351/88 118/350/88 117/349/88
f 118/356/89 113/355/89 114/354/89 117/353/89
f 119/360/90 116/359/90 115/358/90 120/357/90
o RamHead
v -0.1625 1.0741189924941184 -3.085517809057741
v -0.1625 1.1356719375070516 -3.1943122710502285
v -0.1625 0.9653245305016308 -3.1470707540706746
v -0.1625 1.0268774755145642 -3.255865216063162
v -0.225 1.1356719375070516 -3.1943122710502285
v -0.225 1.0741189924941184 -3.085517809057741
v -0.225 1.0268774755145642 -3.255865216063162
v -0.225 0.9653245305016308 -3.1470707540706746
vt 0.310546875 0.796875
vt 0.3125 0.796875
vt 0.3125 0.79296875
vt 0.310546875 0.79296875
vt 0.306640625 0.796875
vt 0.310546875 0.796875
vt 0.310546875 0.79296875
vt 0.306640625 0.79296875
vt 0.31640625 0.796875
vt 0.318359375 0.796875
vt 0.318359375 0.79296875
vt 0.31640625 0.79296875
vt 0.3125 0.796875
vt 0.31640625 0.796875
vt 0.31640625 0.79296875
vt 0.3125 0.79296875
vt 0.3125 0.796875
vt 0.310546875 0.796875
vt 0.310546875 0.80078125
vt 0.3125 0.80078125
vt 0.314453125 0.80078125
vt 0.3125 0.80078125
vt 0.3125 0.796875
vt 0.314453125 0.796875
vn 0 0.4924235601034671 -0.8703556959398997
vn 1 0 0
vn 0 -0.4924235601034671 0.8703556959398997
vn -1 0 0
vn 0 0.8703556959398997 0.4924235601034671
vn 0 -0.8703556959398997 -0.4924235601034671
usemtl m_752d9ec4-c8dc-ccf0-b51b-b09c8f003af1
f 124/364/91 127/363/91 125/362/91 122/361/91
f 123/368/92 124/367/92 122/366/92 121/365/92
f 128/372/93 123/371/93 121/370/93 126/369/93
f 127/376/94 128/375/94 126/374/94 125/373/94
f 126/380/95 121/379/95 122/378/95 125/377/95
f 127/384/96 124/383/96 123/382/96 128/381/96
o RamHead
v -0.16875 1.1895767570238198 -3.0634480448751
v -0.16875 1.2102077077564046 -3.186733745067254
v -0.16875 1.066291056831666 -3.0840789956076846
v -0.16875 1.0869220075642507 -3.2073646957998387
v -0.23125 1.2102077077564046 -3.186733745067254
v -0.23125 1.1895767570238198 -3.0634480448751
v -0.23125 1.0869220075642507 -3.2073646957998387
v -0.23125 1.066291056831666 -3.0840789956076846
vt 0.115234375 0.72265625
vt 0.1171875 0.72265625
vt 0.1171875 0.71875
vt 0.115234375 0.71875
vt 0.111328125 0.72265625
vt 0.115234375 0.72265625
vt 0.115234375 0.71875
vt 0.111328125 0.71875
vt 0.12109375 0.72265625
vt 0.123046875 0.72265625
vt 0.123046875 0.71875
vt 0.12109375 0.71875
vt 0.1171875 0.72265625
vt 0.12109375 0.72265625
vt 0.12109375 0.71875
vt 0.1171875 0.71875
vt 0.1171875 0.72265625
vt 0.115234375 0.72265625
vt 0.115234375 0.7265625
vt 0.1171875 0.7265625
vt 0.119140625 0.7265625
vt 0.1171875 0.7265625
vt 0.1171875 0.72265625
vt 0.119140625 0.72265625
vn 0 0.16504760586067765 -0.9862856015372314
vn 1 0 0
vn 0 -0.16504760586067765 0.9862856015372314
vn -1 0 0
vn 0 0.9862856015372314 0.16504760586067765
vn 0 -0.9862856015372314 -0.16504760586067765
usemtl m_752d9ec4-c8dc-ccf0-b51b-b09c8f003af1
f 132/388/97 135/387/97 133/386/97 130/385/97
f 131/392/98 132/391/98 130/390/98 129/389/98
f 136/396/99 131/395/99 129/394/99 134/393/99
f 135/400/100 136/399/100 134/398/100 133/397/100
f 134/404/101 129/403/101 130/402/101 133/401/101
f 135/408/102 132/407/102 131/406/102 136/405/102
o RamHead
v -0.15625 1.2892795726549455 -3.1244527804751137
v -0.15625 1.2221171216115925 -3.229876711201724
v -0.15625 1.1838556419283348 -3.0572903294317606
v -0.15625 1.1166931908849818 -3.162714260158371
v -0.21875 1.2221171216115925 -3.229876711201724
v -0.21875 1.2892795726549455 -3.1244527804751137
v -0.21875 1.1166931908849818 -3.162714260158371
v -0.21875 1.1838556419283348 -3.0572903294317606
vt 0.150390625 0.763671875
vt 0.15234375 0.763671875
vt 0.15234375 0.759765625
vt 0.150390625 0.759765625
vt 0.146484375 0.763671875
vt 0.150390625 0.763671875
vt 0.150390625 0.759765625
vt 0.146484375 0.759765625
vt 0.15625 0.763671875
vt 0.158203125 0.763671875
vt 0.158203125 0.759765625
vt 0.15625 0.759765625
vt 0.15234375 0.763671875
vt 0.15625 0.763671875
vt 0.15625 0.759765625
vt 0.15234375 0.759765625
vt 0.15234375 0.763671875
vt 0.150390625 0.763671875
vt 0.150390625 0.767578125
vt 0.15234375 0.767578125
vt 0.154296875 0.767578125
vt 0.15234375 0.767578125
vt 0.15234375 0.763671875
vt 0.154296875 0.763671875
vn 0 -0.5372996083468239 -0.8433914458128857
vn 1 0 0
vn 0 0.5372996083468239 0.8433914458128857
vn -1 0 0
vn 0 0.8433914458128857 -0.5372996083468239
vn 0 -0.8433914458128857 0.5372996083468239
usemtl m_752d9ec4-c8dc-ccf0-b51b-b09c8f003af1
f 140/412/103 143/411/103 141/410/103 138/409/103
f 139/416/104 140/415/104 138/414/104 137/413/104
f 144/420/105 139/419/105 137/418/105 142/417/105
f 143/424/106 144/423/106 142/422/106 141/421/106
f 142/428/107 137/427/107 138/426/107 141/425/107
f 143/432/108 140/431/108 139/430/108 144/429/108
o RamHead
v -0.14375 1.3226975467778646 -3.252726271915406
v -0.14375 1.1995965776513384 -3.2744322941237725
v -0.14375 1.300991524569498 -3.1296253027888805
v -0.14375 1.1778905554429722 -3.1513313249972468
v -0.20625 1.1995965776513384 -3.2744322941237725
v -0.20625 1.3226975467778646 -3.252726271915406
v -0.20625 1.1778905554429722 -3.1513313249972468
v -0.20625 1.300991524569498 -3.1296253027888805
vt 0.150390625 0.9609375
vt 0.15234375 0.9609375
vt 0.15234375 0.95703125
vt 0.150390625 0.95703125
vt 0.146484375 0.9609375
vt 0.150390625 0.9609375
vt 0.150390625 0.95703125
vt 0.146484375 0.95703125
vt 0.15625 0.9609375
vt 0.158203125 0.9609375
vt 0.158203125 0.95703125
vt 0.15625 0.95703125
vt 0.15234375 0.9609375
vt 0.15625 0.9609375
vt 0.15625 0.95703125
vt 0.15234375 0.95703125
vt 0.15234375 0.9609375
vt 0.150390625 0.9609375
vt 0.150390625 0.96484375
vt 0.15234375 0.96484375
vt 0.154296875 0.96484375
vt 0.15234375 0.96484375
vt 0.15234375 0.9609375
vt 0.154296875 0.9609375
vn 0 -0.9848077530122081 -0.17364817766693055
vn 1 0 0
vn 0 0.9848077530122081 0.17364817766693055
vn -1 0 0
vn 0 0.17364817766693055 -0.9848077530122081
vn 0 -0.17364817766693055 0.9848077530122081
usemtl m_752d9ec4-c8dc-ccf0-b51b-b09c8f003af1
f 148/436/109 151/435/109 149/434/109 146/433/109
f 147/440/110 148/439/110 146/438/110 145/437/110
f 152/444/111 147/443/111 145/442/111 150/441/111
f 151/448/112 152/447/112 150/446/112 149/445/112
f 150/452/113 145/451/113 146/450/113 149/449/113
f 151/456/114 148/455/114 147/454/114 152/453/114
o RamHead
v -0.11249999999999999 1.3347574275580796 -3.257323438734689
v -0.11249999999999999 1.2544089763472621 -3.3530789941245613
v -0.11249999999999999 1.2390018721682072 -3.1769749875238715
v -0.11249999999999999 1.1586534209573898 -3.272730542913744
v -0.175 1.2544089763472621 -3.3530789941245613
v -0.175 1.3347574275580796 -3.257323438734689
v -0.175 1.1586534209573898 -3.272730542913744
v -0.175 1.2390018721682072 -3.1769749875238715
vt 0.150390625 0.978515625
vt 0.15234375 0.978515625
vt 0.15234375 0.974609375
vt 0.150390625 0.974609375
vt 0.146484375 0.978515625
vt 0.150390625 0.978515625
vt 0.150390625 0.974609375
vt 0.146484375 0.974609375
vt 0.15625 0.978515625
vt 0.158203125 0.978515625
vt 0.158203125 0.974609375
vt 0.15625 0.974609375
vt 0.15234375 0.978515625
vt 0.15625 0.978515625
vt 0.15625 0.974609375
vt 0.15234375 0.974609375
vt 0.15234375 0.978515625
vt 0.150390625 0.978515625
vt 0.150390625 0.982421875
vt 0.15234375 0.982421875
vt 0.154296875 0.982421875
vt 0.15234375 0.982421875
vt 0.15234375 0.978515625
vt 0.154296875 0.978515625
vn 0 -0.6427876096865394 -0.7660444431189781
vn 1 0 0
vn 0 0.6427876096865394 0.7660444431189781
vn -1 0 0
vn 0 0.7660444431189781 -0.6427876096865394
vn 0 -0.7660444431189781 0.6427876096865394
usemtl m_752d9ec4-c8dc-ccf0-b51b-b09c8f003af1
f 156/460/115 159/459/115 157/458/115 154/457/115
f 155/464/116 156/463/116 154/462/116 153/461/116
f 160/468/117 155/467/117 153/466/117 158/465/117
f 159/472/118 160/471/118 158/470/118 157/469/118
f 158/476/119 153/475/119 154/474/119 157/473/119
f 159/480/120 156/479/120 155/478/120 160/477/120
o RamHead
v -0.09375 1.2487625 -3.23605875
v -0.09375 1.2487625 -3.36105875
v -0.09375 1.1237625 -3.23605875
v -0.09375 1.1237625 -3.36105875
v -0.15625 1.2487625 -3.36105875
v -0.15625 1.2487625 -3.23605875
v -0.15625 1.1237625 -3.36105875
v -0.15625 1.1237625 -3.23605875
vt 0.150390625 0.99609375
vt 0.15234375 0.99609375
vt 0.15234375 0.9921875
vt 0.150390625 0.9921875
vt 0.146484375 0.99609375
vt 0.150390625 0.99609375
vt 0.150390625 0.9921875
vt 0.146484375 0.9921875
vt 0.15625 0.99609375
vt 0.158203125 0.99609375
vt 0.158203125 0.9921875
vt 0.15625 0.9921875
vt 0.15234375 0.99609375
vt 0.15625 0.99609375
vt 0.15625 0.9921875
vt 0.15234375 0.9921875
vt 0.15234375 0.99609375
vt 0.150390625 0.99609375
vt 0.150390625 1
vt 0.15234375 1
vt 0.154296875 1
vt 0.15234375 1
vt 0.15234375 0.99609375
vt 0.154296875 0.99609375
vn 0 0 -1
vn 1 0 0
vn 0 0 1
vn -1 0 0
vn 0 1 0
vn 0 -1 0
usemtl m_752d9ec4-c8dc-ccf0-b51b-b09c8f003af1
f 164/484/121 167/483/121 165/482/121 162/481/121
f 163/488/122 164/487/122 162/486/122 161/485/122
f 168/492/123 163/491/123 161/490/123 166/489/123
f 167/496/124 168/495/124 166/494/124 165/493/124
f 166/500/125 161/499/125 162/498/125 165/497/125
f 167/504/126 164/503/126 163/502/126 168/501/126
o RamHead
v 0.03125000000000003 1.2198985386504597 -2.8625
v 0.03125000000000003 1.2198985386504597 -2.925
v 0.20802669529663692 1.043121843353823 -2.8625
v 0.20802669529663692 1.043121843353823 -2.925
v -0.14552669529663687 1.0431218433538227 -2.925
v -0.14552669529663687 1.0431218433538227 -2.8625
v 0.031250000000000035 0.866345148057186 -2.925
v 0.031250000000000035 0.866345148057186 -2.8625
vt 0.27734375 0.849609375
vt 0.28515625 0.849609375
vt 0.28515625 0.841796875
vt 0.27734375 0.841796875
vt 0.275390625 0.849609375
vt 0.27734375 0.849609375
vt 0.27734375 0.841796875
vt 0.275390625 0.841796875
vt 0.287109375 0.849609375
vt 0.294921875 0.849609375
vt 0.294921875 0.841796875
vt 0.287109375 0.841796875
vt 0.28515625 0.849609375
vt 0.287109375 0.849609375
vt 0.287109375 0.841796875
vt 0.28515625 0.841796875
vt 0.28515625 0.849609375
vt 0.27734375 0.849609375
vt 0.27734375 0.8515625
vt 0.28515625 0.8515625
vt 0.29296875 0.8515625
vt 0.28515625 0.8515625
vt 0.28515625 0.849609375
vt 0.29296875 0.849609375
vn 0 0 -1
vn 0.7071067811865475 0.7071067811865476 0
vn 0 0 1
vn -0.7071067811865475 -0.7071067811865476 0
vn -0.7071067811865476 0.7071067811865475 0
vn 0.7071067811865476 -0.7071067811865475 0
usemtl m_752d9ec4-c8dc-ccf0-b51b-b09c8f003af1
f 172/508/127 175/507/127 173/506/127 170/505/127
f 171/512/128 172/511/128 170/510/128 169/509/128
f 176/516/129 171/515/129 169/514/129 174/513/129
f 175/520/130 176/519/130 174/518/130 173/517/130
f 174/524/131 169/523/131 170/522/131 173/521/131
f 175/528/132 172/527/132 171/526/132 176/525/132
o RamHead
v 0.09375 0.8781814666147592 -2.814285594497393
v 0.09375 0.9977700392288498 -3.1029979484071704
v 0.09375 0.8204389958328038 -2.8382033090202112
v 0.09375 0.9400275684468943 -3.126915662929988
v -0.03125 0.9977700392288498 -3.1029979484071704
v -0.03125 0.8781814666147592 -2.814285594497393
v -0.03125 0.9400275684468943 -3.126915662929988
v -0.03125 0.8204389958328038 -2.8382033090202112
vt 0.078125 0.6875
vt 0.08203125 0.6875
vt 0.08203125 0.685546875
vt 0.078125 0.685546875
vt 0.068359375 0.6875
vt 0.078125 0.6875
vt 0.078125 0.685546875
vt 0.068359375 0.685546875
vt 0.091796875 0.6875
vt 0.095703125 0.6875
vt 0.095703125 0.685546875
vt 0.091796875 0.685546875
vt 0.08203125 0.6875
vt 0.091796875 0.6875
vt 0.091796875 0.685546875
vt 0.08203125 0.685546875
vt 0.08203125 0.6875
vt 0.078125 0.6875
vt 0.078125 0.697265625
vt 0.08203125 0.697265625
vt 0.0859375 0.697265625
vt 0.08203125 0.697265625
vt 0.08203125 0.6875
vt 0.0859375 0.6875
vn 0 0.3826834323650897 -0.9238795325112867
vn 1 0 0
vn 0 -0.3826834323650897 0.9238795325112867
vn -1 0 0
vn 0 0.9238795325112867 0.3826834323650897
vn 0 -0.9238795325112867 -0.3826834323650897
usemtl m_752d9ec4-c8dc-ccf0-b51b-b09c8f003af1
f 180/532/133 183/531/133 181/530/133 178/529/133
f 179/536/134 180/535/134 178/534/134 177/533/134
f 184/540/135 179/539/135 177/538/135 182/537/135
f 183/544/136 184/543/136 182/542/136 181/541/136
f 182/548/137 177/547/137 178/546/137 181/545/137
f 183/552/138 180/551/138 179/550/138 184/549/138
o RamHead
v 0.03124999999999989 1.1933820343559642 -2.925
v 0.03124999999999989 1.1933820343559642 -2.9875
v 0.16383252147247757 1.0607995128834866 -2.925
v 0.16383252147247757 1.0607995128834866 -2.9875
v -0.10133252147247776 1.0607995128834866 -2.9875
v -0.10133252147247776 1.0607995128834866 -2.925
v 0.031249999999999903 0.928216991411009 -2.9875
v 0.031249999999999903 0.928216991411009 -2.925
vt 0.017578125 0.779296875
vt 0.0234375 0.779296875
vt 0.0234375 0.7734375
vt 0.017578125 0.7734375
vt 0.015625 0.779296875
vt 0.017578125 0.779296875
vt 0.017578125 0.7734375
vt 0.015625 0.7734375
vt 0.025390625 0.779296875
vt 0.03125 0.779296875
vt 0.03125 0.7734375
vt 0.025390625 0.7734375
vt 0.0234375 0.779296875
vt 0.025390625 0.779296875
vt 0.025390625 0.7734375
vt 0.0234375 0.7734375
vt 0.0234375 0.779296875
vt 0.017578125 0.779296875
vt 0.017578125 0.78125
vt 0.0234375 0.78125
vt 0.029296875 0.78125
vt 0.0234375 0.78125
vt 0.0234375 0.779296875
vt 0.029296875 0.779296875
vn 0 0 -1
vn 0.7071067811865475 0.7071067811865476 0
vn 0 0 1
vn -0.7071067811865475 -0.7071067811865476 0
vn -0.7071067811865476 0.7071067811865475 0
vn 0.7071067811865476 -0.7071067811865475 0
usemtl m_752d9ec4-c8dc-ccf0-b51b-b09c8f003af1
f 188/556/139 191/555/139 189/554/139 186/553/139
f 187/560/140 188/559/140 186/558/140 185/557/140
f 192/564/141 187/563/141 185/562/141 190/561/141
f 191/568/142 192/567/142 190/566/142 189/565/142
f 190/572/143 185/571/143 186/570/143 189/569/143
f 191/576/144 188/575/144 187/574/144 192/573/144
o RamHead
v 0.03125000000000003 1.1757043648263006 -2.9875
v 0.03125000000000003 1.1757043648263006 -3.05
v 0.11963834764831847 1.087316017177982 -2.9875
v 0.11963834764831847 1.087316017177982 -3.05
v -0.05713834764831842 1.087316017177982 -3.05
v -0.05713834764831842 1.087316017177982 -2.9875
v 0.03125000000000003 0.9989276695296636 -3.05
v 0.03125000000000003 0.9989276695296636 -2.9875
vt 0.001953125 0.845703125
vt 0.005859375 0.845703125
vt 0.005859375 0.841796875
vt 0.001953125 0.841796875
vt 0 0.845703125
vt 0.001953125 0.845703125
vt 0.001953125 0.841796875
vt 0 0.841796875
vt 0.0078125 0.845703125
vt 0.01171875 0.845703125
vt 0.01171875 0.841796875
vt 0.0078125 0.841796875
vt 0.005859375 0.845703125
vt 0.0078125 0.845703125
vt 0.0078125 0.841796875
vt 0.005859375 0.841796875
vt 0.005859375 0.845703125
vt 0.001953125 0.845703125
vt 0.001953125 0.84765625
vt 0.005859375 0.84765625
vt 0.009765625 0.84765625
vt 0.005859375 0.84765625
vt 0.005859375 0.845703125
vt 0.009765625 0.845703125
vn 0 0 -1
vn 0.7071067811865475 0.7071067811865476 0
vn 0 0 1
vn -0.7071067811865475 -0.7071067811865476 0
vn -0.7071067811865476 0.7071067811865475 0
vn 0.7071067811865476 -0.7071067811865475 0
usemtl m_752d9ec4-c8dc-ccf0-b51b-b09c8f003af1
f 196/580/145 199/579/145 197/578/145 194/577/145
f 195/584/146 196/583/146 194/582/146 193/581/146
f 200/588/147 195/587/147 193/586/147 198/585/147
f 199/592/148 200/591/148 198/590/148 197/589/148
f 198/596/149 193/595/149 194/594/149 197/593/149
f 199/600/150 196/599/150 195/598/150 200/597/150
o Ram
v 0.25 1.2 2.5125
v 0.25 1.2 -2.8
v 0.25 0.7625 2.5125
v 0.25 0.7625 -2.8
v -0.1875 1.2 -2.8
v -0.1875 1.2 2.5125
v -0.1875 0.7625 -2.8
v -0.1875 0.7625 2.5125
vt 0.43359375 0.6796875
vt 0.447265625 0.6796875
vt 0.447265625 0.666015625
vt 0.43359375 0.666015625
vt 0.267578125 0.6796875
vt 0.43359375 0.6796875
vt 0.43359375 0.666015625
vt 0.267578125 0.666015625
vt 0.61328125 0.6796875
vt 0.626953125 0.6796875
vt 0.626953125 0.666015625
vt 0.61328125 0.666015625
vt 0.447265625 0.6796875
vt 0.61328125 0.6796875
vt 0.61328125 0.666015625
vt 0.447265625 0.666015625
vt 0.447265625 0.6796875
vt 0.43359375 0.6796875
vt 0.43359375 0.845703125
vt 0.447265625 0.845703125
vt 0.4609375 0.845703125
vt 0.447265625 0.845703125
vt 0.447265625 0.6796875
vt 0.4609375 0.6796875
vn 0 0 -1
vn 1 0 0
vn 0 0 1
vn -1 0 0
vn 0 1 0
vn 0 -1 0
usemtl m_752d9ec4-c8dc-ccf0-b51b-b09c8f003af1
f 204/604/151 207/603/151 205/602/151 202/601/151
f 203/608/152 204/607/152 202/606/152 201/605/152
f 208/612/153 203/611/153 201/610/153 206/609/153
f 207/616/154 208/615/154 206/614/154 205/613/154
f 206/620/155 201/619/155 202/618/155 205/617/155
f 207/624/156 204/623/156 203/622/156 208/621/156
o Ram
v 0.28125 1.23125 -1.83125
v 0.28125 1.23125 -1.95625
v 0.28125 0.73125 -1.83125
v 0.28125 0.73125 -1.95625
v -0.21875 1.23125 -1.95625
v -0.21875 1.23125 -1.83125
v -0.21875 0.73125 -1.95625
v -0.21875 0.73125 -1.83125
vt 0.310546875 0.81640625
vt 0.326171875 0.81640625
vt 0.326171875 0.80078125
vt 0.310546875 0.80078125
vt 0.306640625 0.81640625
vt 0.310546875 0.81640625
vt 0.310546875 0.80078125
vt 0.306640625 0.80078125
vt 0.330078125 0.81640625
vt 0.345703125 0.81640625
vt 0.345703125 0.80078125
vt 0.330078125 0.80078125
vt 0.326171875 0.81640625
vt 0.330078125 0.81640625
vt 0.330078125 0.80078125
vt 0.326171875 0.80078125
vt 0.326171875 0.81640625
vt 0.310546875 0.81640625
vt 0.310546875 0.8203125
vt 0.326171875 0.8203125
vt 0.341796875 0.8203125
vt 0.326171875 0.8203125
vt 0.326171875 0.81640625
vt 0.341796875 0.81640625
vn 0 0 -1
vn 1 0 0
vn 0 0 1
vn -1 0 0
vn 0 1 0
vn 0 -1 0
usemtl m_752d9ec4-c8dc-ccf0-b51b-b09c8f003af1
f 212/628/157 215/627/157 213/626/157 210/625/157
f 211/632/158 212/631/158 210/630/158 209/629/158
f 216/636/159 211/635/159 209/634/159 214/633/159
f 215/640/160 216/639/160 214/638/160 213/637/160
f 214/644/161 209/643/161 210/642/161 213/641/161
f 215/648/162 212/647/162 211/646/162 216/645/162
o Ram
v 0.28125 1.23125 -2.6125
v 0.28125 1.23125 -2.7375
v 0.28125 0.73125 -2.6125
v 0.28125 0.73125 -2.7375
v -0.21875 1.23125 -2.7375
v -0.21875 1.23125 -2.6125
v -0.21875 0.73125 -2.7375
v -0.21875 0.73125 -2.6125
vt 0.00390625 0.705078125
vt 0.01953125 0.705078125
vt 0.01953125 0.689453125
vt 0.00390625 0.689453125
vt 0 0.705078125
vt 0.00390625 0.705078125
vt 0.00390625 0.689453125
vt 0 0.689453125
vt 0.0234375 0.705078125
vt 0.0390625 0.705078125
vt 0.0390625 0.689453125
vt 0.0234375 0.689453125
vt 0.01953125 0.705078125
vt 0.0234375 0.705078125
vt 0.0234375 0.689453125
vt 0.01953125 0.689453125
vt 0.01953125 0.705078125
vt 0.00390625 0.705078125
vt 0.00390625 0.708984375
vt 0.01953125 0.708984375
vt 0.03515625 0.708984375
vt 0.01953125 0.708984375
vt 0.01953125 0.705078125
vt 0.03515625 0.705078125
vn 0 0 -1
vn 1 0 0
vn 0 0 1
vn -1 0 0
vn 0 1 0
vn 0 -1 0
usemtl m_752d9ec4-c8dc-ccf0-b51b-b09c8f003af1
f 220/652/163 223/651/163 221/650/163 218/649/163
f 219/656/164 220/655/164 218/654/164 217/653/164
f 224/660/165 219/659/165 217/658/165 222/657/165
f 223/664/166 224/663/166 222/662/166 221/661/166
f 222/668/167 217/667/167 218/666/167 221/665/167
f 223/672/168 220/671/168 219/670/168 224/669/168
o Ram
v 0.28125 1.23125 0.54375
v 0.28125 1.23125 0.41874999999999996
v 0.28125 0.73125 0.54375
v 0.28125 0.73125 0.41874999999999996
v -0.21875 1.23125 0.41874999999999996
v -0.21875 1.23125 0.54375
v -0.21875 0.73125 0.41874999999999996
v -0.21875 0.73125 0.54375
vt 0.310546875 0.8359375
vt 0.326171875 0.8359375
vt 0.326171875 0.8203125
vt 0.310546875 0.8203125
vt 0.306640625 0.8359375
vt 0.310546875 0.8359375
vt 0.310546875 0.8203125
vt 0.306640625 0.8203125
vt 0.330078125 0.8359375
vt 0.345703125 0.8359375
vt 0.345703125 0.8203125
vt 0.330078125 0.8203125
vt 0.326171875 0.8359375
vt 0.330078125 0.8359375
vt 0.330078125 0.8203125
vt 0.326171875 0.8203125
vt 0.326171875 0.8359375
vt 0.310546875 0.8359375
vt 0.310546875 0.83984375
vt 0.326171875 0.83984375
vt 0.341796875 0.83984375
vt 0.326171875 0.83984375
vt 0.326171875 0.8359375
vt 0.341796875 0.8359375
vn 0 0 -1
vn 1 0 0
vn 0 0 1
vn -1 0 0
vn 0 1 0
vn 0 -1 0
usemtl m_752d9ec4-c8dc-ccf0-b51b-b09c8f003af1
f 228/676/169 231/675/169 229/674/169 226/673/169
f 227/680/170 228/679/170 226/678/170 225/677/170
f 232/684/171 227/683/171 225/682/171 230/681/171
f 231/688/172 232/687/172 230/686/172 229/685/172
f 230/692/173 225/691/173 226/690/173 229/689/173
f 231/696/174 228/695/174 227/694/174 232/693/174
o Ram
v 0.28125 1.23125 -0.70625
v 0.28125 1.23125 -0.83125
v 0.28125 0.73125 -0.70625
v 0.28125 0.73125 -0.83125
v -0.21875 1.23125 -0.83125
v -0.21875 1.23125 -0.70625
v -0.21875 0.73125 -0.83125
v -0.21875 0.73125 -0.70625
vt 0.04296875 0.705078125
vt 0.05859375 0.705078125
vt 0.05859375 0.689453125
vt 0.04296875 0.689453125
vt 0.0390625 0.705078125
vt 0.04296875 0.705078125
vt 0.04296875 0.689453125
vt 0.0390625 0.689453125
vt 0.0625 0.705078125
vt 0.078125 0.705078125
vt 0.078125 0.689453125
vt 0.0625 0.689453125
vt 0.05859375 0.705078125
vt 0.0625 0.705078125
vt 0.0625 0.689453125
vt 0.05859375 0.689453125
vt 0.05859375 0.705078125
vt 0.04296875 0.705078125
vt 0.04296875 0.708984375
vt 0.05859375 0.708984375
vt 0.07421875 0.708984375
vt 0.05859375 0.708984375
vt 0.05859375 0.705078125
vt 0.07421875 0.705078125
vn 0 0 -1
vn 1 0 0
vn 0 0 1
vn -1 0 0
vn 0 1 0
vn 0 -1 0
usemtl m_752d9ec4-c8dc-ccf0-b51b-b09c8f003af1
f 236/700/175 239/699/175 237/698/175 234/697/175
f 235/704/176 236/703/176 234/702/176 233/701/176
f 240/708/177 235/707/177 233/706/177 238/705/177
f 239/712/178 240/711/178 238/710/178 237/709/178
f 238/716/179 233/715/179 234/714/179 237/713/179
f 239/720/180 236/719/180 235/718/180 240/717/180
o Ram
v 0.28125 1.23125 1.60625
v 0.28125 1.23125 1.48125
v 0.28125 0.73125 1.60625
v 0.28125 0.73125 1.48125
v -0.21875 1.23125 1.48125
v -0.21875 1.23125 1.60625
v -0.21875 0.73125 1.48125
v -0.21875 0.73125 1.60625
vt 0.306640625 0.697265625
vt 0.322265625 0.697265625
vt 0.322265625 0.681640625
vt 0.306640625 0.681640625
vt 0.302734375 0.697265625
vt 0.306640625 0.697265625
vt 0.306640625 0.681640625
vt 0.302734375 0.681640625
vt 0.326171875 0.697265625
vt 0.341796875 0.697265625
vt 0.341796875 0.681640625
vt 0.326171875 0.681640625
vt 0.322265625 0.697265625
vt 0.326171875 0.697265625
vt 0.326171875 0.681640625
vt 0.322265625 0.681640625
vt 0.322265625 0.697265625
vt 0.306640625 0.697265625
vt 0.306640625 0.701171875
vt 0.322265625 0.701171875
vt 0.337890625 0.701171875
vt 0.322265625 0.701171875
vt 0.322265625 0.697265625
vt 0.337890625 0.697265625
vn 0 0 -1
vn 1 0 0
vn 0 0 1
vn -1 0 0
vn 0 1 0
vn 0 -1 0
usemtl m_752d9ec4-c8dc-ccf0-b51b-b09c8f003af1
f 244/724/181 247/723/181 245/722/181 242/721/181
f 243/728/182 244/727/182 242/726/182 241/725/182
f 248/732/183 243/731/183 241/730/183 246/729/183
f 247/736/184 248/735/184 246/734/184 245/733/184
f 246/740/185 241/739/185 242/738/185 245/737/185
f 247/744/186 244/743/186 243/742/186 248/741/186
o Ram
v 0.28125 1.23125 2.325
v 0.28125 1.23125 2.2
v 0.28125 0.73125 2.325
v 0.28125 0.73125 2.2
v -0.21875 1.23125 2.2
v -0.21875 1.23125 2.325
v -0.21875 0.73125 2.2
v -0.21875 0.73125 2.325
vt 0.306640625 0.857421875
vt 0.322265625 0.857421875
vt 0.322265625 0.841796875
vt 0.306640625 0.841796875
vt 0.302734375 0.857421875
vt 0.306640625 0.857421875
vt 0.306640625 0.841796875
vt 0.302734375 0.841796875
vt 0.326171875 0.857421875
vt 0.341796875 0.857421875
vt 0.341796875 0.841796875
vt 0.326171875 0.841796875
vt 0.322265625 0.857421875
vt 0.326171875 0.857421875
vt 0.326171875 0.841796875
vt 0.322265625 0.841796875
vt 0.322265625 0.857421875
vt 0.306640625 0.857421875
vt 0.306640625 0.861328125
vt 0.322265625 0.861328125
vt 0.337890625 0.861328125
vt 0.322265625 0.861328125
vt 0.322265625 0.857421875
vt 0.337890625 0.857421875
vn 0 0 -1
vn 1 0 0
vn 0 0 1
vn -1 0 0
vn 0 1 0
vn 0 -1 0
usemtl m_752d9ec4-c8dc-ccf0-b51b-b09c8f003af1
f 252/748/187 255/747/187 253/746/187 250/745/187
f 251/752/188 252/751/188 250/750/188 249/749/188
f 256/756/189 251/755/189 249/754/189 254/753/189
f 255/760/190 256/759/190 254/758/190 253/757/190
f 254/764/191 249/763/191 250/762/191 253/761/191
f 255/768/192 252/767/192 251/766/192 256/765/192
o Ram
v 0.3603936489785134 1.1189948442382938 1.575
v 0.3603936489785134 1.1189948442382938 1.5125
v 0.3364759344556953 1.0612523734563384 1.575
v 0.3364759344556953 1.0612523734563384 1.5125
v 0.24490870741460252 1.16683027328393 1.5125
v 0.24490870741460252 1.16683027328393 1.575
v 0.22099099289178442 1.1090878025019746 1.5125
v 0.22099099289178442 1.1090878025019746 1.575
vt 0.013671875 0.845703125
vt 0.017578125 0.845703125
vt 0.017578125 0.84375
vt 0.013671875 0.84375
vt 0.01171875 0.845703125
vt 0.013671875 0.845703125
vt 0.013671875 0.84375
vt 0.01171875 0.84375
vt 0.01953125 0.845703125
vt 0.0234375 0.845703125
vt 0.0234375 0.84375
vt 0.01953125 0.84375
vt 0.017578125 0.845703125
vt 0.01953125 0.845703125
vt 0.01953125 0.84375
vt 0.017578125 0.84375
vt 0.017578125 0.845703125
vt 0.013671875 0.845703125
vt 0.013671875 0.84765625
vt 0.017578125 0.84765625
vt 0.021484375 0.84765625
vt 0.017578125 0.84765625
vt 0.017578125 0.845703125
vt 0.021484375 0.845703125
vn 0 0 -1
vn 0.9238795325112867 -0.3826834323650897 0
vn 0 0 1
vn -0.9238795325112867 0.3826834323650897 0
vn 0.3826834323650897 0.9238795325112867 0
vn -0.3826834323650897 -0.9238795325112867 0
usemtl m_752d9ec4-c8dc-ccf0-b51b-b09c8f003af1
f 260/772/193 263/771/193 261/770/193 258/769/193
f 259/776/194 260/775/194 258/774/194 257/773/194
f 264/780/195 259/779/195 257/778/195 262/777/195
f 263/784/196 264/783/196 262/782/196 261/781/196
f 262/788/197 257/787/197 258/786/197 261/785/197
f 263/792/198 260/791/198 259/790/198 264/789/198
o Ram
v 0.39240375 1.12775625 1.5749375
v 0.39240375 1.12775625 1.5124375
v 0.39240375 0.81525625 1.5749375
v 0.39240375 0.81525625 1.5124375
v 0.32990375 1.12775625 1.5124375
v 0.32990375 1.12775625 1.5749375
v 0.32990375 0.81525625 1.5124375
v 0.32990375 0.81525625 1.5749375
vt 0.126953125 0.771484375
vt 0.12890625 0.771484375
vt 0.12890625 0.76171875
vt 0.126953125 0.76171875
vt 0.125 0.771484375
vt 0.126953125 0.771484375
vt 0.126953125 0.76171875
vt 0.125 0.76171875
vt 0.130859375 0.771484375
vt 0.1328125 0.771484375
vt 0.1328125 0.76171875
vt 0.130859375 0.76171875
vt 0.12890625 0.771484375
vt 0.130859375 0.771484375
vt 0.130859375 0.76171875
vt 0.12890625 0.76171875
vt 0.12890625 0.771484375
vt 0.126953125 0.771484375
vt 0.126953125 0.7734375
vt 0.12890625 0.7734375
vt 0.130859375 0.7734375
vt 0.12890625 0.7734375
vt 0.12890625 0.771484375
vt 0.130859375 0.771484375
vn 0 0 -1
vn 1 0 0
vn 0 0 1
vn -1 0 0
vn 0 1 0
vn 0 -1 0
usemtl m_752d9ec4-c8dc-ccf0-b51b-b09c8f003af1
f 268/796/199 271/795/199 269/794/199 266/793/199
f 267/800/200 268/799/200 266/798/200 265/797/200
f 272/804/201 267/803/201 265/802/201 270/801/201
f 271/808/202 272/807/202 270/806/202 269/805/202
f 270/812/203 265/811/203 266/810/203 269/809/203
f 271/816/204 268/815/204 267/814/204 272/813/204
o Ram
v 0.3346852010440633 0.8775595479562861 1.575
v 0.3346852010440633 0.8775595479562861 1.5125
v 0.3586029155668814 0.8198170771743307 1.575
v 0.3586029155668814 0.8198170771743307 1.5125
v 0.21920025948015245 0.8297241189106499 1.5125
v 0.21920025948015245 0.8297241189106499 1.575
v 0.24311797400297055 0.7719816481286945 1.5125
v 0.24311797400297055 0.7719816481286945 1.575
vt 0.025390625 0.845703125
vt 0.029296875 0.845703125
vt 0.029296875 0.84375
vt 0.025390625 0.84375
vt 0.0234375 0.845703125
vt 0.025390625 0.845703125
vt 0.025390625 0.84375
vt 0.0234375 0.84375
vt 0.03125 0.845703125
vt 0.03515625 0.845703125
vt 0.03515625 0.84375
vt 0.03125 0.84375
vt 0.029296875 0.845703125
vt 0.03125 0.845703125
vt 0.03125 0.84375
vt 0.029296875 0.84375
vt 0.029296875 0.845703125
vt 0.025390625 0.845703125
vt 0.025390625 0.84765625
vt 0.029296875 0.84765625
vt 0.033203125 0.84765625
vt 0.029296875 0.84765625
vt 0.029296875 0.845703125
vt 0.033203125 0.845703125
vn 0 0 -1
vn 0.9238795325112867 0.3826834323650897 0
vn 0 0 1
vn -0.9238795325112867 -0.3826834323650897 0
vn -0.3826834323650897 0.9238795325112867 0
vn 0.3826834323650897 -0.9238795325112867 0
usemtl m_752d9ec4-c8dc-ccf0-b51b-b09c8f003af1
f 276/820/205 279/819/205 277/818/205 274/817/205
f 275/824/206 276/823/206 274/822/206 273/821/206
f 280/828/207 275/827/207 273/826/207 278/825/207
f 279/832/208 280/831/208 278/830/208 277/829/208
f 278/836/209 273/835/209 274/834/209 277/833/209
f 279/840/210 276/839/210 275/838/210 280/837/210
o Ram
v 0.3346852010440633 0.8775595479562861 0.5125
v 0.3346852010440633 0.8775595479562861 0.44999999999999996
v 0.3586029155668814 0.8198170771743307 0.5125
v 0.3586029155668814 0.8198170771743307 0.44999999999999996
v 0.21920025948015245 0.8297241189106499 0.44999999999999996
v 0.21920025948015245 0.8297241189106499 0.5125
v 0.24311797400297055 0.7719816481286945 0.44999999999999996
v 0.24311797400297055 0.7719816481286945 0.5125
vt 0.107421875 0.845703125
vt 0.111328125 0.845703125
vt 0.111328125 0.84375
vt 0.107421875 0.84375
vt 0.10546875 0.845703125
vt 0.107421875 0.845703125
vt 0.107421875 0.84375
vt 0.10546875 0.84375
vt 0.11328125 0.845703125
vt 0.1171875 0.845703125
vt 0.1171875 0.84375
vt 0.11328125 0.84375
vt 0.111328125 0.845703125
vt 0.11328125 0.845703125
vt 0.11328125 0.84375
vt 0.111328125 0.84375
vt 0.111328125 0.845703125
vt 0.107421875 0.845703125
vt 0.107421875 0.84765625
vt 0.111328125 0.84765625
vt 0.115234375 0.84765625
vt 0.111328125 0.84765625
vt 0.111328125 0.845703125
vt 0.115234375 0.845703125
vn 0 0 -1
vn 0.9238795325112867 0.3826834323650897 0
vn 0 0 1
vn -0.9238795325112867 -0.3826834323650897 0
vn -0.3826834323650897 0.9238795325112867 0
vn 0.3826834323650897 -0.9238795325112867 0
usemtl m_752d9ec4-c8dc-ccf0-b51b-b09c8f003af1
f 284/844/211 287/843/211 285/842/211 282/841/211
f 283/848/212 284/847/212 282/846/212 281/845/212
f 288/852/213 283/851/213 281/850/213 286/849/213
f 287/856/214 288/855/214 286/854/214 285/853/214
f 286/860/215 281/859/215 282/858/215 285/857/215
f 287/864/216 284/863/216 283/862/216 288/861/216
o Ram
v 0.39240375 1.12775625 0.5124375
v 0.39240375 1.12775625 0.4499375
v 0.39240375 0.81525625 0.5124375
v 0.39240375 0.81525625 0.4499375
v 0.32990375 1.12775625 0.4499375
v 0.32990375 1.12775625 0.5124375
v 0.32990375 0.81525625 0.4499375
v 0.32990375 0.81525625 0.5124375
vt 0.3359375 0.755859375
vt 0.337890625 0.755859375
vt 0.337890625 0.74609375
vt 0.3359375 0.74609375
vt 0.333984375 0.755859375
vt 0.3359375 0.755859375
vt 0.3359375 0.74609375
vt 0.333984375 0.74609375
vt 0.33984375 0.755859375
vt 0.341796875 0.755859375
vt 0.341796875 0.74609375
vt 0.33984375 0.74609375
vt 0.337890625 0.755859375
vt 0.33984375 0.755859375
vt 0.33984375 0.74609375
vt 0.337890625 0.74609375
vt 0.337890625 0.755859375
vt 0.3359375 0.755859375
vt 0.3359375 0.7578125
vt 0.337890625 0.7578125
vt 0.33984375 0.7578125
vt 0.337890625 0.7578125
vt 0.337890625 0.755859375
vt 0.33984375 0.755859375
vn 0 0 -1
vn 1 0 0
vn 0 0 1
vn -1 0 0
vn 0 1 0
vn 0 -1 0
usemtl m_752d9ec4-c8dc-ccf0-b51b-b09c8f003af1
f 292/868/217 295/867/217 293/866/217 290/865/217
f 291/872/218 292/871/218 290/870/218 289/869/218
f 296/876/219 291/875/219 289/874/219 294/873/219
f 295/880/220 296/879/220 294/878/220 293/877/220
f 294/884/221 289/883/221 290/882/221 293/881/221
f 295/888/222 292/887/222 291/886/222 296/885/222
o Ram
v 0.3603936489785134 1.1189948442382938 0.5125
v 0.3603936489785134 1.1189948442382938 0.44999999999999996
v 0.3364759344556953 1.0612523734563384 0.5125
v 0.3364759344556953 1.0612523734563384 0.44999999999999996
v 0.24490870741460252 1.16683027328393 0.44999999999999996
v 0.24490870741460252 1.16683027328393 0.5125
v 0.22099099289178442 1.1090878025019746 0.44999999999999996
v 0.22099099289178442 1.1090878025019746 0.5125
vt 0.119140625 0.845703125
vt 0.123046875 0.845703125
vt 0.123046875 0.84375
vt 0.119140625 0.84375
vt 0.1171875 0.845703125
vt 0.119140625 0.845703125
vt 0.119140625 0.84375
vt 0.1171875 0.84375
vt 0.125 0.845703125
vt 0.12890625 0.845703125
vt 0.12890625 0.84375
vt 0.125 0.84375
vt 0.123046875 0.845703125
vt 0.125 0.845703125
vt 0.125 0.84375
vt 0.123046875 0.84375
vt 0.123046875 0.845703125
vt 0.119140625 0.845703125
vt 0.119140625 0.84765625
vt 0.123046875 0.84765625
vt 0.126953125 0.84765625
vt 0.123046875 0.84765625
vt 0.123046875 0.845703125
vt 0.126953125 0.845703125
vn 0 0 -1
vn 0.9238795325112867 -0.3826834323650897 0
vn 0 0 1
vn -0.9238795325112867 0.3826834323650897 0
vn 0.3826834323650897 0.9238795325112867 0
vn -0.3826834323650897 -0.9238795325112867 0
usemtl m_752d9ec4-c8dc-ccf0-b51b-b09c8f003af1
f 300/892/223 303/891/223 301/890/223 298/889/223
f 299/896/224 300/895/224 298/894/224 297/893/224
f 304/900/225 299/899/225 297/898/225 302/897/225
f 303/904/226 304/903/226 302/902/226 301/901/226
f 302/908/227 297/907/227 298/906/227 301/905/227
f 303/912/228 300/911/228 299/910/228 304/909/228
o Ram
v 0.3603936489785134 1.1189948442382938 -0.7375
v 0.3603936489785134 1.1189948442382938 -0.8
v 0.3364759344556953 1.0612523734563384 -0.7375
v 0.3364759344556953 1.0612523734563384 -0.8
v 0.24490870741460252 1.16683027328393 -0.8
v 0.24490870741460252 1.16683027328393 -0.7375
v 0.22099099289178442 1.1090878025019746 -0.8
v 0.22099099289178442 1.1090878025019746 -0.7375
vt 0.095703125 0.845703125
vt 0.099609375 0.845703125
vt 0.099609375 0.84375
vt 0.095703125 0.84375
vt 0.09375 0.845703125
vt 0.095703125 0.845703125
vt 0.095703125 0.84375
vt 0.09375 0.84375
vt 0.1015625 0.845703125
vt 0.10546875 0.845703125
vt 0.10546875 0.84375
vt 0.1015625 0.84375
vt 0.099609375 0.845703125
vt 0.1015625 0.845703125
vt 0.1015625 0.84375
vt 0.099609375 0.84375
vt 0.099609375 0.845703125
vt 0.095703125 0.845703125
vt 0.095703125 0.84765625
vt 0.099609375 0.84765625
vt 0.103515625 0.84765625
vt 0.099609375 0.84765625
vt 0.099609375 0.845703125
vt 0.103515625 0.845703125
vn 0 0 -1
vn 0.9238795325112867 -0.3826834323650897 0
vn 0 0 1
vn -0.9238795325112867 0.3826834323650897 0
vn 0.3826834323650897 0.9238795325112867 0
vn -0.3826834323650897 -0.9238795325112867 0
usemtl m_752d9ec4-c8dc-ccf0-b51b-b09c8f003af1
f 308/916/229 311/915/229 309/914/229 306/913/229
f 307/920/230 308/919/230 306/918/230 305/917/230
f 312/924/231 307/923/231 305/922/231 310/921/231
f 311/928/232 312/927/232 310/926/232 309/925/232
f 310/932/233 305/931/233 306/930/233 309/929/233
f 311/936/234 308/935/234 307/934/234 312/933/234
o Ram
v 0.39865375 1.12775625 -0.7375625000000001
v 0.39865375 1.12775625 -0.8000625000000001
v 0.39865375 0.81525625 -0.7375625000000001
v 0.39865375 0.81525625 -0.8000625000000001
v 0.33615375 1.12775625 -0.8000625000000001
v 0.33615375 1.12775625 -0.7375625000000001
v 0.33615375 0.81525625 -0.8000625000000001
v 0.33615375 0.81525625 -0.7375625000000001
vt 0.322265625 0.740234375
vt 0.32421875 0.740234375
vt 0.32421875 0.73046875
vt 0.322265625 0.73046875
vt 0.3203125 0.740234375
vt 0.322265625 0.740234375
vt 0.322265625 0.73046875
vt 0.3203125 0.73046875
vt 0.326171875 0.740234375
vt 0.328125 0.740234375
vt 0.328125 0.73046875
vt 0.326171875 0.73046875
vt 0.32421875 0.740234375
vt 0.326171875 0.740234375
vt 0.326171875 0.73046875
vt 0.32421875 0.73046875
vt 0.32421875 0.740234375
vt 0.322265625 0.740234375
vt 0.322265625 0.7421875
vt 0.32421875 0.7421875
vt 0.326171875 0.7421875
vt 0.32421875 0.7421875
vt 0.32421875 0.740234375
vt 0.326171875 0.740234375
vn 0 0 -1
vn 1 0 0
vn 0 0 1
vn -1 0 0
vn 0 1 0
vn 0 -1 0
usemtl m_752d9ec4-c8dc-ccf0-b51b-b09c8f003af1
f 316/940/235 319/939/235 317/938/235 314/937/235
f 315/944/236 316/943/236 314/942/236 313/941/236
f 320/948/237 315/947/237 313/946/237 318/945/237
f 319/952/238 320/951/238 318/950/238 317/949/238
f 318/956/239 313/955/239 314/954/239 317/953/239
f 319/960/240 316/959/240 315/958/240 320/957/240
o Ram
v 0.3346852010440633 0.8775595479562861 -0.7375
v 0.3346852010440633 0.8775595479562861 -0.8
v 0.3586029155668814 0.8198170771743307 -0.7375
v 0.3586029155668814 0.8198170771743307 -0.8
v 0.21920025948015245 0.8297241189106499 -0.8
v 0.21920025948015245 0.8297241189106499 -0.7375
v 0.24311797400297055 0.7719816481286945 -0.8
v 0.24311797400297055 0.7719816481286945 -0.7375
vt 0.083984375 0.845703125
vt 0.087890625 0.845703125
vt 0.087890625 0.84375
vt 0.083984375 0.84375
vt 0.08203125 0.845703125
vt 0.083984375 0.845703125
vt 0.083984375 0.84375
vt 0.08203125 0.84375
vt 0.08984375 0.845703125
vt 0.09375 0.845703125
vt 0.09375 0.84375
vt 0.08984375 0.84375
vt 0.087890625 0.845703125
vt 0.08984375 0.845703125
vt 0.08984375 0.84375
vt 0.087890625 0.84375
vt 0.087890625 0.845703125
vt 0.083984375 0.845703125
vt 0.083984375 0.84765625
vt 0.087890625 0.84765625
vt 0.091796875 0.84765625
vt 0.087890625 0.84765625
vt 0.087890625 0.845703125
vt 0.091796875 0.845703125
vn 0 0 -1
vn 0.9238795325112867 0.3826834323650897 0
vn 0 0 1
vn -0.9238795325112867 -0.3826834323650897 0
vn -0.3826834323650897 0.9238795325112867 0
vn 0.3826834323650897 -0.9238795325112867 0
usemtl m_752d9ec4-c8dc-ccf0-b51b-b09c8f003af1
f 324/964/241 327/963/241 325/962/241 322/961/241
f 323/968/242 324/967/242 322/966/242 321/965/242
f 328/972/243 323/971/243 321/970/243 326/969/243
f 327/976/244 328/975/244 326/974/244 325/973/244
f 326/980/245 321/979/245 322/978/245 325/977/245
f 327/984/246 324/983/246 323/982/246 328/981/246
o Ram
v 0.3603936489785134 1.1189948442382938 -1.8625
v 0.3603936489785134 1.1189948442382938 -1.925
v 0.3364759344556953 1.0612523734563384 -1.8625
v 0.3364759344556953 1.0612523734563384 -1.925
v 0.24490870741460252 1.16683027328393 -1.925
v 0.24490870741460252 1.16683027328393 -1.8625
v 0.22099099289178442 1.1090878025019746 -1.925
v 0.22099099289178442 1.1090878025019746 -1.8625
vt 0.130859375 0.845703125
vt 0.134765625 0.845703125
vt 0.134765625 0.84375
vt 0.130859375 0.84375
vt 0.12890625 0.845703125
vt 0.130859375 0.845703125
vt 0.130859375 0.84375
vt 0.12890625 0.84375
vt 0.13671875 0.845703125
vt 0.140625 0.845703125
vt 0.140625 0.84375
vt 0.13671875 0.84375
vt 0.134765625 0.845703125
vt 0.13671875 0.845703125
vt 0.13671875 0.84375
vt 0.134765625 0.84375
vt 0.134765625 0.845703125
vt 0.130859375 0.845703125
vt 0.130859375 0.84765625
vt 0.134765625 0.84765625
vt 0.138671875 0.84765625
vt 0.134765625 0.84765625
vt 0.134765625 0.845703125
vt 0.138671875 0.845703125
vn 0 0 -1
vn 0.9238795325112867 -0.3826834323650897 0
vn 0 0 1
vn -0.9238795325112867 0.3826834323650897 0
vn 0.3826834323650897 0.9238795325112867 0
vn -0.3826834323650897 -0.9238795325112867 0
usemtl m_752d9ec4-c8dc-ccf0-b51b-b09c8f003af1
f 332/988/247 335/987/247 333/986/247 330/985/247
f 331/992/248 332/991/248 330/990/248 329/989/248
f 336/996/249 331/995/249 329/994/249 334/993/249
f 335/1000/250 336/999/250 334/998/250 333/997/250
f 334/1004/251 329/1003/251 330/1002/251 333/1001/251
f 335/1008/252 332/1007/252 331/1006/252 336/1005/252
o Ram
v 0.39865375 1.12775625 -1.8625625
v 0.39865375 1.12775625 -1.9250625
v 0.39865375 0.81525625 -1.8625625
v 0.39865375 0.81525625 -1.9250625
v 0.33615375 1.12775625 -1.9250625
v 0.33615375 1.12775625 -1.8625625
v 0.33615375 0.81525625 -1.9250625
v 0.33615375 0.81525625 -1.8625625
vt 0.3515625 0.947265625
vt 0.353515625 0.947265625
vt 0.353515625 0.9375
vt 0.3515625 0.9375
vt 0.349609375 0.947265625
vt 0.3515625 0.947265625
vt 0.3515625 0.9375
vt 0.349609375 0.9375
vt 0.35546875 0.947265625
vt 0.357421875 0.947265625
vt 0.357421875 0.9375
vt 0.35546875 0.9375
vt 0.353515625 0.947265625
vt 0.35546875 0.947265625
vt 0.35546875 0.9375
vt 0.353515625 0.9375
vt 0.353515625 0.947265625
vt 0.3515625 0.947265625
vt 0.3515625 0.94921875
vt 0.353515625 0.94921875
vt 0.35546875 0.94921875
vt 0.353515625 0.94921875
vt 0.353515625 0.947265625
vt 0.35546875 0.947265625
vn 0 0 -1
vn 1 0 0
vn 0 0 1
vn -1 0 0
vn 0 1 0
vn 0 -1 0
usemtl m_752d9ec4-c8dc-ccf0-b51b-b09c8f003af1
f 340/1012/253 343/1011/253 341/1010/253 338/1009/253
f 339/1016/254 340/1015/254 338/1014/254 337/1013/254
f 344/1020/255 339/1019/255 337/1018/255 342/1017/255
f 343/1024/256 344/1023/256 342/1022/256 341/1021/256
f 342/1028/257 337/1027/257 338/1026/257 341/1025/257
f 343/1032/258 340/1031/258 339/1030/258 344/1029/258
o Ram
v 0.3346852010440633 0.8775595479562861 -1.8625
v 0.3346852010440633 0.8775595479562861 -1.925
v 0.3586029155668814 0.8198170771743307 -1.8625
v 0.3586029155668814 0.8198170771743307 -1.925
v 0.21920025948015245 0.8297241189106499 -1.925
v 0.21920025948015245 0.8297241189106499 -1.8625
v 0.24311797400297055 0.7719816481286945 -1.925
v 0.24311797400297055 0.7719816481286945 -1.8625
vt 0.142578125 0.845703125
vt 0.146484375 0.845703125
vt 0.146484375 0.84375
vt 0.142578125 0.84375
vt 0.140625 0.845703125
vt 0.142578125 0.845703125
vt 0.142578125 0.84375
vt 0.140625 0.84375
vt 0.1484375 0.845703125
vt 0.15234375 0.845703125
vt 0.15234375 0.84375
vt 0.1484375 0.84375
vt 0.146484375 0.845703125
vt 0.1484375 0.845703125
vt 0.1484375 0.84375
vt 0.146484375 0.84375
vt 0.146484375 0.845703125
vt 0.142578125 0.845703125
vt 0.142578125 0.84765625
vt 0.146484375 0.84765625
vt 0.150390625 0.84765625
vt 0.146484375 0.84765625
vt 0.146484375 0.845703125
vt 0.150390625 0.845703125
vn 0 0 -1
vn 0.9238795325112867 0.3826834323650897 0
vn 0 0 1
vn -0.9238795325112867 -0.3826834323650897 0
vn -0.3826834323650897 0.9238795325112867 0
vn 0.3826834323650897 -0.9238795325112867 0
usemtl m_752d9ec4-c8dc-ccf0-b51b-b09c8f003af1
f 348/1036/259 351/1035/259 349/1034/259 346/1033/259
f 347/1040/260 348/1039/260 346/1038/260 345/1037/260
f 352/1044/261 347/1043/261 345/1042/261 350/1041/261
f 351/1048/262 352/1047/262 350/1046/262 349/1045/262
f 350/1052/263 345/1051/263 346/1050/263 349/1049/263
f 351/1056/264 348/1055/264 347/1054/264 352/1053/264
o Ram
v -0.16041418130617113 0.8285526313897542 -1.8625
v -0.16041418130617113 0.8285526313897542 -1.925
v -0.18433189582898923 0.7708101606077987 -1.8625
v -0.18433189582898923 0.7708101606077987 -1.925
v -0.27589912287008195 0.8763880604353904 -1.925
v -0.27589912287008195 0.8763880604353904 -1.8625
v -0.29981683739290005 0.8186455896534349 -1.925
v -0.29981683739290005 0.8186455896534349 -1.8625
vt 0.056640625 0.6875
vt 0.060546875 0.6875
vt 0.060546875 0.685546875
vt 0.056640625 0.685546875
vt 0.0546875 0.6875
vt 0.056640625 0.6875
vt 0.056640625 0.685546875
vt 0.0546875 0.685546875
vt 0.0625 0.6875
vt 0.06640625 0.6875
vt 0.06640625 0.685546875
vt 0.0625 0.685546875
vt 0.060546875 0.6875
vt 0.0625 0.6875
vt 0.0625 0.685546875
vt 0.060546875 0.685546875
vt 0.060546875 0.6875
vt 0.056640625 0.6875
vt 0.056640625 0.689453125
vt 0.060546875 0.689453125
vt 0.064453125 0.689453125
vt 0.060546875 0.689453125
vt 0.060546875 0.6875
vt 0.064453125 0.6875
vn 0 0 -1
vn 0.9238795325112867 -0.3826834323650897 0
vn 0 0 1
vn -0.9238795325112867 0.3826834323650897 0
vn 0.3826834323650897 0.9238795325112867 0
vn -0.3826834323650897 -0.9238795325112867 0
usemtl m_752d9ec4-c8dc-ccf0-b51b-b09c8f003af1
f 356/1060/265 359/1059/265 357/1058/265 354/1057/265
f 355/1064/266 356/1063/266 354/1062/266 353/1061/266
f 360/1068/267 355/1067/267 353/1066/267 358/1065/267
f 359/1072/268 360/1071/268 358/1070/268 357/1069/268
f 358/1076/269 353/1075/269 354/1074/269 357/1073/269
f 359/1080/270 356/1079/270 355/1078/270 360/1077/270
o Ram
v -0.27695375 1.127753125 -1.8625625
v -0.27695375 1.127753125 -1.9250625
v -0.27695375 0.8152531249999999 -1.8625625
v -0.27695375 0.8152531249999999 -1.9250625
v -0.33945375 1.127753125 -1.9250625
v -0.33945375 1.127753125 -1.8625625
v -0.33945375 0.8152531249999999 -1.9250625
v -0.33945375 0.8152531249999999 -1.8625625
vt 0.3515625 0.935546875
vt 0.353515625 0.935546875
vt 0.353515625 0.92578125
vt 0.3515625 0.92578125
vt 0.349609375 0.935546875
vt 0.3515625 0.935546875
vt 0.3515625 0.92578125
vt 0.349609375 0.92578125
vt 0.35546875 0.935546875
vt 0.357421875 0.935546875
vt 0.357421875 0.92578125
vt 0.35546875 0.92578125
vt 0.353515625 0.935546875
vt 0.35546875 0.935546875
vt 0.35546875 0.92578125
vt 0.353515625 0.92578125
vt 0.353515625 0.935546875
vt 0.3515625 0.935546875
vt 0.3515625 0.9375
vt 0.353515625 0.9375
vt 0.35546875 0.9375
vt 0.353515625 0.9375
vt 0.353515625 0.935546875
vt 0.35546875 0.935546875
vn 0 0 -1
vn 1 0 0
vn 0 0 1
vn -1 0 0
vn 0 1 0
vn 0 -1 0
usemtl m_752d9ec4-c8dc-ccf0-b51b-b09c8f003af1
f 364/1084/271 367/1083/271 365/1082/271 362/1081/271
f 363/1088/272 364/1087/272 362/1086/272 361/1085/272
f 368/1092/273 363/1091/273 361/1090/273 366/1089/273
f 367/1096/274 368/1095/274 366/1094/274 365/1093/274
f 366/1100/275 361/1099/275 362/1098/275 365/1097/275
f 367/1104/276 364/1103/276 363/1102/276 368/1101/276
o Ram
v -0.18646870033587706 1.16933881977003 -1.8625
v -0.18646870033587706 1.16933881977003 -1.925
v -0.16255098581305893 1.1115963489880747 -1.8625
v -0.16255098581305893 1.1115963489880747 -1.925
v -0.3019536418997879 1.1215033907243939 -1.925
v -0.3019536418997879 1.1215033907243939 -1.8625
v -0.2780359273769698 1.0637609199424385 -1.925
v -0.2780359273769698 1.0637609199424385 -1.8625
vt 0.044921875 0.6875
vt 0.048828125 0.6875
vt 0.048828125 0.685546875
vt 0.044921875 0.685546875
vt 0.04296875 0.6875
vt 0.044921875 0.6875
vt 0.044921875 0.685546875
vt 0.04296875 0.685546875
vt 0.05078125 0.6875
vt 0.0546875 0.6875
vt 0.0546875 0.685546875
vt 0.05078125 0.685546875
vt 0.048828125 0.6875
vt 0.05078125 0.6875
vt 0.05078125 0.685546875
vt 0.048828125 0.685546875
vt 0.048828125 0.6875
vt 0.044921875 0.6875
vt 0.044921875 0.689453125
vt 0.048828125 0.689453125
vt 0.052734375 0.689453125
vt 0.048828125 0.689453125
vt 0.048828125 0.6875
vt 0.052734375 0.6875
vn 0 0 -1
vn 0.9238795325112867 0.3826834323650897 0
vn 0 0 1
vn -0.9238795325112867 -0.3826834323650897 0
vn -0.3826834323650897 0.9238795325112867 0
vn 0.3826834323650897 -0.9238795325112867 0
usemtl m_752d9ec4-c8dc-ccf0-b51b-b09c8f003af1
f 372/1108/277 375/1107/277 373/1106/277 370/1105/277
f 371/1112/278 372/1111/278 370/1110/278 369/1109/278
f 376/1116/279 371/1115/279 369/1114/279 374/1113/279
f 375/1120/280 376/1119/280 374/1118/280 373/1117/280
f 374/1124/281 369/1123/281 370/1122/281 373/1121/281
f 375/1128/282 372/1127/282 371/1126/282 376/1125/282
o Ram
v -0.18646870033587706 1.16933881977003 -0.7375
v -0.18646870033587706 1.16933881977003 -0.8
v -0.16255098581305893 1.1115963489880747 -0.7375
v -0.16255098581305893 1.1115963489880747 -0.8
v -0.3019536418997879 1.1215033907243939 -0.8
v -0.3019536418997879 1.1215033907243939 -0.7375
v -0.2780359273769698 1.0637609199424385 -0.8
v -0.2780359273769698 1.0637609199424385 -0.7375
vt 0.072265625 0.845703125
vt 0.076171875 0.845703125
vt 0.076171875 0.84375
vt 0.072265625 0.84375
vt 0.0703125 0.845703125
vt 0.072265625 0.845703125
vt 0.072265625 0.84375
vt 0.0703125 0.84375
vt 0.078125 0.845703125
vt 0.08203125 0.845703125
vt 0.08203125 0.84375
vt 0.078125 0.84375
vt 0.076171875 0.845703125
vt 0.078125 0.845703125
vt 0.078125 0.84375
vt 0.076171875 0.84375
vt 0.076171875 0.845703125
vt 0.072265625 0.845703125
vt 0.072265625 0.84765625
vt 0.076171875 0.84765625
vt 0.080078125 0.84765625
vt 0.076171875 0.84765625
vt 0.076171875 0.845703125
vt 0.080078125 0.845703125
vn 0 0 -1
vn 0.9238795325112867 0.3826834323650897 0
vn 0 0 1
vn -0.9238795325112867 -0.3826834323650897 0
vn -0.3826834323650897 0.9238795325112867 0
vn 0.3826834323650897 -0.9238795325112867 0
usemtl m_752d9ec4-c8dc-ccf0-b51b-b09c8f003af1
f 380/1132/283 383/1131/283 381/1130/283 378/1129/283
f 379/1136/284 380/1135/284 378/1134/284 377/1133/284
f 384/1140/285 379/1139/285 377/1138/285 382/1137/285
f 383/1144/286 384/1143/286 382/1142/286 381/1141/286
f 382/1148/287 377/1147/287 378/1146/287 381/1145/287
f 383/1152/288 380/1151/288 379/1150/288 384/1149/288
o Ram
v -0.27695375 1.127753125 -0.7375625000000001
v -0.27695375 1.127753125 -0.8000625000000001
v -0.27695375 0.8152531249999999 -0.7375625000000001
v -0.27695375 0.8152531249999999 -0.8000625000000001
v -0.33945375 1.127753125 -0.8000625000000001
v -0.33945375 1.127753125 -0.7375625000000001
v -0.33945375 0.8152531249999999 -0.8000625000000001
v -0.33945375 0.8152531249999999 -0.7375625000000001
vt 0.322265625 0.900390625
vt 0.32421875 0.900390625
vt 0.32421875 0.890625
vt 0.322265625 0.890625
vt 0.3203125 0.900390625
vt 0.322265625 0.900390625
vt 0.322265625 0.890625
vt 0.3203125 0.890625
vt 0.326171875 0.900390625
vt 0.328125 0.900390625
vt 0.328125 0.890625
vt 0.326171875 0.890625
vt 0.32421875 0.900390625
vt 0.326171875 0.900390625
vt 0.326171875 0.890625
vt 0.32421875 0.890625
vt 0.32421875 0.900390625
vt 0.322265625 0.900390625
vt 0.322265625 0.90234375
vt 0.32421875 0.90234375
vt 0.326171875 0.90234375
vt 0.32421875 0.90234375
vt 0.32421875 0.900390625
vt 0.326171875 0.900390625
vn 0 0 -1
vn 1 0 0
vn 0 0 1
vn -1 0 0
vn 0 1 0
vn 0 -1 0
usemtl m_752d9ec4-c8dc-ccf0-b51b-b09c8f003af1
f 388/1156/289 391/1155/289 389/1154/289 386/1153/289
f 387/1160/290 388/1159/290 386/1158/290 385/1157/290
f 392/1164/291 387/1163/291 385/1162/291 390/1161/291
f 391/1168/292 392/1167/292 390/1166/292 389/1165/292
f 390/1172/293 385/1171/293 386/1170/293 389/1169/293
f 391/1176/294 388/1175/294 387/1174/294 392/1173/294
o Ram
v -0.16041418130617113 0.8285526313897542 -0.7375
v -0.16041418130617113 0.8285526313897542 -0.8
v -0.18433189582898923 0.7708101606077987 -0.7375
v -0.18433189582898923 0.7708101606077987 -0.8
v -0.27589912287008195 0.8763880604353904 -0.8
v -0.27589912287008195 0.8763880604353904 -0.7375
v -0.29981683739290005 0.8186455896534349 -0.8
v -0.29981683739290005 0.8186455896534349 -0.7375
vt 0.060546875 0.845703125
vt 0.064453125 0.845703125
vt 0.064453125 0.84375
vt 0.060546875 0.84375
vt 0.05859375 0.845703125
vt 0.060546875 0.845703125
vt 0.060546875 0.84375
vt 0.05859375 0.84375
vt 0.06640625 0.845703125
vt 0.0703125 0.845703125
vt 0.0703125 0.84375
vt 0.06640625 0.84375
vt 0.064453125 0.845703125
vt 0.06640625 0.845703125
vt 0.06640625 0.84375
vt 0.064453125 0.84375
vt 0.064453125 0.845703125
vt 0.060546875 0.845703125
vt 0.060546875 0.84765625
vt 0.064453125 0.84765625
vt 0.068359375 0.84765625
vt 0.064453125 0.84765625
vt 0.064453125 0.845703125
vt 0.068359375 0.845703125
vn 0 0 -1
vn 0.9238795325112867 -0.3826834323650897 0
vn 0 0 1
vn -0.9238795325112867 0.3826834323650897 0
vn 0.3826834323650897 0.9238795325112867 0
vn -0.3826834323650897 -0.9238795325112867 0
usemtl m_752d9ec4-c8dc-ccf0-b51b-b09c8f003af1
f 396/1180/295 399/1179/295 397/1178/295 394/1177/295
f 395/1184/296 396/1183/296 394/1182/296 393/1181/296
f 400/1188/297 395/1187/297 393/1186/297 398/1185/297
f 399/1192/298 400/1191/298 398/1190/298 397/1189/298
f 398/1196/299 393/1195/299 394/1194/299 397/1193/299
f 399/1200/300 396/1199/300 395/1198/300 400/1197/300
o Ram
v -0.18646870033587706 1.16933881977003 0.5125
v -0.18646870033587706 1.16933881977003 0.44999999999999996
v -0.16255098581305893 1.1115963489880747 0.5125
v -0.16255098581305893 1.1115963489880747 0.44999999999999996
v -0.3019536418997879 1.1215033907243939 0.44999999999999996
v -0.3019536418997879 1.1215033907243939 0.5125
v -0.2780359273769698 1.0637609199424385 0.44999999999999996
v -0.2780359273769698 1.0637609199424385 0.5125
vt 0.298828125 0.837890625
vt 0.302734375 0.837890625
vt 0.302734375 0.8359375
vt 0.298828125 0.8359375
vt 0.296875 0.837890625
vt 0.298828125 0.837890625
vt 0.298828125 0.8359375
vt 0.296875 0.8359375
vt 0.3046875 0.837890625
vt 0.30859375 0.837890625
vt 0.30859375 0.8359375
vt 0.3046875 0.8359375
vt 0.302734375 0.837890625
vt 0.3046875 0.837890625
vt 0.3046875 0.8359375
vt 0.302734375 0.8359375
vt 0.302734375 0.837890625
vt 0.298828125 0.837890625
vt 0.298828125 0.83984375
vt 0.302734375 0.83984375
vt 0.306640625 0.83984375
vt 0.302734375 0.83984375
vt 0.302734375 0.837890625
vt 0.306640625 0.837890625
vn 0 0 -1
vn 0.9238795325112867 0.3826834323650897 0
vn 0 0 1
vn -0.9238795325112867 -0.3826834323650897 0
vn -0.3826834323650897 0.9238795325112867 0
vn 0.3826834323650897 -0.9238795325112867 0
usemtl m_752d9ec4-c8dc-ccf0-b51b-b09c8f003af1
f 404/1204/301 407/1203/301 405/1202/301 402/1201/301
f 403/1208/302 404/1207/302 402/1206/302 401/1205/302
f 408/1212/303 403/1211/303 401/1210/303 406/1209/303
f 407/1216/304 408/1215/304 406/1214/304 405/1213/304
f 406/1220/305 401/1219/305 402/1218/305 405/1217/305
f 407/1224/306 404/1223/306 403/1222/306 408/1221/306
o Ram
v -0.27695375 1.127753125 0.5125625
v -0.27695375 1.127753125 0.45006250000000003
v -0.27695375 0.8152531249999999 0.5125625
v -0.27695375 0.8152531249999999 0.45006250000000003
v -0.33945375 1.127753125 0.45006250000000003
v -0.33945375 1.127753125 0.5125625
v -0.33945375 0.8152531249999999 0.45006250000000003
v -0.33945375 0.8152531249999999 0.5125625
vt 0.060546875 0.6484375
vt 0.0625 0.6484375
vt 0.0625 0.638671875
vt 0.060546875 0.638671875
vt 0.05859375 0.6484375
vt 0.060546875 0.6484375
vt 0.060546875 0.638671875
vt 0.05859375 0.638671875
vt 0.064453125 0.6484375
vt 0.06640625 0.6484375
vt 0.06640625 0.638671875
vt 0.064453125 0.638671875
vt 0.0625 0.6484375
vt 0.064453125 0.6484375
vt 0.064453125 0.638671875
vt 0.0625 0.638671875
vt 0.0625 0.6484375
vt 0.060546875 0.6484375
vt 0.060546875 0.650390625
vt 0.0625 0.650390625
vt 0.064453125 0.650390625
vt 0.0625 0.650390625
vt 0.0625 0.6484375
vt 0.064453125 0.6484375
vn 0 0 -1
vn 1 0 0
vn 0 0 1
vn -1 0 0
vn 0 1 0
vn 0 -1 0
usemtl m_752d9ec4-c8dc-ccf0-b51b-b09c8f003af1
f 412/1228/307 415/1227/307 413/1226/307 410/1225/307
f 411/1232/308 412/1231/308 410/1230/308 409/1229/308
f 416/1236/309 411/1235/309 409/1234/309 414/1233/309
f 415/1240/310 416/1239/310 414/1238/310 413/1237/310
f 414/1244/311 409/1243/311 410/1242/311 413/1241/311
f 415/1248/312 412/1247/312 411/1246/312 416/1245/312
o Ram
v -0.16041418130617113 0.8285526313897542 0.5125
v -0.16041418130617113 0.8285526313897542 0.44999999999999996
v -0.18433189582898923 0.7708101606077987 0.5125
v -0.18433189582898923 0.7708101606077987 0.44999999999999996
v -0.27589912287008195 0.8763880604353904 0.44999999999999996
v -0.27589912287008195 0.8763880604353904 0.5125
v -0.29981683739290005 0.8186455896534349 0.44999999999999996
v -0.29981683739290005 0.8186455896534349 0.5125
vt 0.130859375 0.837890625
vt 0.134765625 0.837890625
vt 0.134765625 0.8359375
vt 0.130859375 0.8359375
vt 0.12890625 0.837890625
vt 0.130859375 0.837890625
vt 0.130859375 0.8359375
vt 0.12890625 0.8359375
vt 0.13671875 0.837890625
vt 0.140625 0.837890625
vt 0.140625 0.8359375
vt 0.13671875 0.8359375
vt 0.134765625 0.837890625
vt 0.13671875 0.837890625
vt 0.13671875 0.8359375
vt 0.134765625 0.8359375
vt 0.134765625 0.837890625
vt 0.130859375 0.837890625
vt 0.130859375 0.83984375
vt 0.134765625 0.83984375
vt 0.138671875 0.83984375
vt 0.134765625 0.83984375
vt 0.134765625 0.837890625
vt 0.138671875 0.837890625
vn 0 0 -1
vn 0.9238795325112867 -0.3826834323650897 0
vn 0 0 1
vn -0.9238795325112867 0.3826834323650897 0
vn 0.3826834323650897 0.9238795325112867 0
vn -0.3826834323650897 -0.9238795325112867 0
usemtl m_752d9ec4-c8dc-ccf0-b51b-b09c8f003af1
f 420/1252/313 423/1251/313 421/1250/313 418/1249/313
f 419/1256/314 420/1255/314 418/1254/314 417/1253/314
f 424/1260/315 419/1259/315 417/1258/315 422/1257/315
f 423/1264/316 424/1263/316 422/1262/316 421/1261/316
f 422/1268/317 417/1267/317 418/1266/317 421/1265/317
f 423/1272/318 420/1271/318 419/1270/318 424/1269/318
o Ram
v -0.18646870033587706 1.16933881977003 1.575
v -0.18646870033587706 1.16933881977003 1.5125
v -0.16255098581305893 1.1115963489880747 1.575
v -0.16255098581305893 1.1115963489880747 1.5125
v -0.3019536418997879 1.1215033907243939 1.5125
v -0.3019536418997879 1.1215033907243939 1.575
v -0.2780359273769698 1.0637609199424385 1.5125
v -0.2780359273769698 1.0637609199424385 1.575
vt 0.037109375 0.845703125
vt 0.041015625 0.845703125
vt 0.041015625 0.84375
vt 0.037109375 0.84375
vt 0.03515625 0.845703125
vt 0.037109375 0.845703125
vt 0.037109375 0.84375
vt 0.03515625 0.84375
vt 0.04296875 0.845703125
vt 0.046875 0.845703125
vt 0.046875 0.84375
vt 0.04296875 0.84375
vt 0.041015625 0.845703125
vt 0.04296875 0.845703125
vt 0.04296875 0.84375
vt 0.041015625 0.84375
vt 0.041015625 0.845703125
vt 0.037109375 0.845703125
vt 0.037109375 0.84765625
vt 0.041015625 0.84765625
vt 0.044921875 0.84765625
vt 0.041015625 0.84765625
vt 0.041015625 0.845703125
vt 0.044921875 0.845703125
vn 0 0 -1
vn 0.9238795325112867 0.3826834323650897 0
vn 0 0 1
vn -0.9238795325112867 -0.3826834323650897 0
vn -0.3826834323650897 0.9238795325112867 0
vn 0.3826834323650897 -0.9238795325112867 0
usemtl m_752d9ec4-c8dc-ccf0-b51b-b09c8f003af1
f 428/1276/319 431/1275/319 429/1274/319 426/1273/319
f 427/1280/320 428/1279/320 426/1278/320 425/1277/320
f 432/1284/321 427/1283/321 425/1282/321 430/1281/321
f 431/1288/322 432/1287/322 430/1286/322 429/1285/322
f 430/1292/323 425/1291/323 426/1290/323 429/1289/323
f 431/1296/324 428/1295/324 427/1294/324 432/1293/324
o Ram
v -0.27695375 1.127753125 1.5750625
v -0.27695375 1.127753125 1.5125625
v -0.27695375 0.8152531249999999 1.5750625
v -0.27695375 0.8152531249999999 1.5125625
v -0.33945375 1.127753125 1.5125625
v -0.33945375 1.127753125 1.5750625
v -0.33945375 0.8152531249999999 1.5125625
v -0.33945375 0.8152531249999999 1.5750625
vt 0.087890625 0.69921875
vt 0.08984375 0.69921875
vt 0.08984375 0.689453125
vt 0.087890625 0.689453125
vt 0.0859375 0.69921875
vt 0.087890625 0.69921875
vt 0.087890625 0.689453125
vt 0.0859375 0.689453125
vt 0.091796875 0.69921875
vt 0.09375 0.69921875
vt 0.09375 0.689453125
vt 0.091796875 0.689453125
vt 0.08984375 0.69921875
vt 0.091796875 0.69921875
vt 0.091796875 0.689453125
vt 0.08984375 0.689453125
vt 0.08984375 0.69921875
vt 0.087890625 0.69921875
vt 0.087890625 0.701171875
vt 0.08984375 0.701171875
vt 0.091796875 0.701171875
vt 0.08984375 0.701171875
vt 0.08984375 0.69921875
vt 0.091796875 0.69921875
vn 0 0 -1
vn 1 0 0
vn 0 0 1
vn -1 0 0
vn 0 1 0
vn 0 -1 0
usemtl m_752d9ec4-c8dc-ccf0-b51b-b09c8f003af1
f 436/1300/325 439/1299/325 437/1298/325 434/1297/325
f 435/1304/326 436/1303/326 434/1302/326 433/1301/326
f 440/1308/327 435/1307/327 433/1306/327 438/1305/327
f 439/1312/328 440/1311/328 438/1310/328 437/1309/328
f 438/1316/329 433/1315/329 434/1314/329 437/1313/329
f 439/1320/330 436/1319/330 435/1318/330 440/1317/330
o Ram
v -0.16041418130617113 0.8285526313897542 1.575
v -0.16041418130617113 0.8285526313897542 1.5125
v -0.18433189582898923 0.7708101606077987 1.575
v -0.18433189582898923 0.7708101606077987 1.5125
v -0.27589912287008195 0.8763880604353904 1.5125
v -0.27589912287008195 0.8763880604353904 1.575
v -0.29981683739290005 0.8186455896534349 1.5125
v -0.29981683739290005 0.8186455896534349 1.575
vt 0.048828125 0.845703125
vt 0.052734375 0.845703125
vt 0.052734375 0.84375
vt 0.048828125 0.84375
vt 0.046875 0.845703125
vt 0.048828125 0.845703125
vt 0.048828125 0.84375
vt 0.046875 0.84375
vt 0.0546875 0.845703125
vt 0.05859375 0.845703125
vt 0.05859375 0.84375
vt 0.0546875 0.84375
vt 0.052734375 0.845703125
vt 0.0546875 0.845703125
vt 0.0546875 0.84375
vt 0.052734375 0.84375
vt 0.052734375 0.845703125
vt 0.048828125 0.845703125
vt 0.048828125 0.84765625
vt 0.052734375 0.84765625
vt 0.056640625 0.84765625
vt 0.052734375 0.84765625
vt 0.052734375 0.845703125
vt 0.056640625 0.845703125
vn 0 0 -1
vn 0.9238795325112867 -0.3826834323650897 0
vn 0 0 1
vn -0.9238795325112867 0.3826834323650897 0
vn 0.3826834323650897 0.9238795325112867 0
vn -0.3826834323650897 -0.9238795325112867 0
usemtl m_752d9ec4-c8dc-ccf0-b51b-b09c8f003af1
f 444/1324/331 447/1323/331 445/1322/331 442/1321/331
f 443/1328/332 444/1327/332 442/1326/332 441/1325/332
f 448/1332/333 443/1331/333 441/1330/333 446/1329/333
f 447/1336/334 448/1335/334 446/1334/334 445/1333/334
f 446/1340/335 441/1339/335 442/1338/335 445/1337/335
f 447/1344/336 444/1343/336 443/1342/336 448/1341/336
o Ram
v 0.0625 1.16875 2.575
v 0.0625 1.16875 2.5125
v 0.0625 1.04375 2.575
v 0.0625 1.04375 2.5125
v 0 1.16875 2.5125
v 0 1.16875 2.575
v 0 1.04375 2.5125
v 0 1.04375 2.575
vt 0.095703125 0.724609375
vt 0.09765625 0.724609375
vt 0.09765625 0.720703125
vt 0.095703125 0.720703125
vt 0.09375 0.724609375
vt 0.095703125 0.724609375
vt 0.095703125 0.720703125
vt 0.09375 0.720703125
vt 0.099609375 0.724609375
vt 0.1015625 0.724609375
vt 0.1015625 0.720703125
vt 0.099609375 0.720703125
vt 0.09765625 0.724609375
vt 0.099609375 0.724609375
vt 0.099609375 0.720703125
vt 0.09765625 0.720703125
vt 0.09765625 0.724609375
vt 0.095703125 0.724609375
vt 0.095703125 0.7265625
vt 0.09765625 0.7265625
vt 0.099609375 0.7265625
vt 0.09765625 0.7265625
vt 0.09765625 0.724609375
vt 0.099609375 0.724609375
vn 0 0 -1
vn 1 0 0
vn 0 0 1
vn -1 0 0
vn 0 1 0
vn 0 -1 0
usemtl m_752d9ec4-c8dc-ccf0-b51b-b09c8f003af1
f 452/1348/337 455/1347/337 453/1346/337 450/1345/337
f 451/1352/338 452/1351/338 450/1350/338 449/1349/338
f 456/1356/339 451/1355/339 449/1354/339 454/1353/339
f 455/1360/340 456/1359/340 454/1358/340 453/1357/340
f 454/1364/341 449/1363/341 450/1362/341 453/1361/341
f 455/1368/342 452/1367/342 451/1366/342 456/1365/342
o Ram
v 0.0625 1.10625 2.6375
v 0.0625 1.10625 2.575
v 0.0625 0.85625 2.6375
v 0.0625 0.85625 2.575
v 0 1.10625 2.575
v 0 1.10625 2.6375
v 0 0.85625 2.575
v 0 0.85625 2.6375
vt 0.001953125 0.998046875
vt 0.00390625 0.998046875
vt 0.00390625 0.990234375
vt 0.001953125 0.990234375
vt 0 0.998046875
vt 0.001953125 0.998046875
vt 0.001953125 0.990234375
vt 0 0.990234375
vt 0.005859375 0.998046875
vt 0.0078125 0.998046875
vt 0.0078125 0.990234375
vt 0.005859375 0.990234375
vt 0.00390625 0.998046875
vt 0.005859375 0.998046875
vt 0.005859375 0.990234375
vt 0.00390625 0.990234375
vt 0.00390625 0.998046875
vt 0.001953125 0.998046875
vt 0.001953125 1
vt 0.00390625 1
vt 0.005859375 1
vt 0.00390625 1
vt 0.00390625 0.998046875
vt 0.005859375 0.998046875
vn 0 0 -1
vn 1 0 0
vn 0 0 1
vn -1 0 0
vn 0 1 0
vn 0 -1 0
usemtl m_752d9ec4-c8dc-ccf0-b51b-b09c8f003af1
f 460/1372/343 463/1371/343 461/1370/343 458/1369/343
f 459/1376/344 460/1375/344 458/1374/344 457/1373/344
f 464/1380/345 459/1379/345 457/1378/345 462/1377/345
f 463/1384/346 464/1383/346 462/1382/346 461/1381/346
f 462/1388/347 457/1387/347 458/1386/347 461/1385/347
f 463/1392/348 460/1391/348 459/1390/348 464/1389/348
o Ram
v 0.0625 0.91875 2.575
v 0.0625 0.91875 2.5125
v 0.0625 0.79375 2.575
v 0.0625 0.79375 2.5125
v 0 0.91875 2.5125
v 0 0.91875 2.575
v 0 0.79375 2.5125
v 0 0.79375 2.575
vt 0.27734375 0.998046875
vt 0.279296875 0.998046875
vt 0.279296875 0.994140625
vt 0.27734375 0.994140625
vt 0.275390625 0.998046875
vt 0.27734375 0.998046875
vt 0.27734375 0.994140625
vt 0.275390625 0.994140625
vt 0.28125 0.998046875
vt 0.283203125 0.998046875
vt 0.283203125 0.994140625
vt 0.28125 0.994140625
vt 0.279296875 0.998046875
vt 0.28125 0.998046875
vt 0.28125 0.994140625
vt 0.279296875 0.994140625
vt 0.279296875 0.998046875
vt 0.27734375 0.998046875
vt 0.27734375 1
vt 0.279296875 1
vt 0.28125 1
vt 0.279296875 1
vt 0.279296875 0.998046875
vt 0.28125 0.998046875
vn 0 0 -1
vn 1 0 0
vn 0 0 1
vn -1 0 0
vn 0 1 0
vn 0 -1 0
usemtl m_752d9ec4-c8dc-ccf0-b51b-b09c8f003af1
f 468/1396/349 471/1395/349 469/1394/349 466/1393/349
f 467/1400/350 468/1399/350 466/1398/350 465/1397/350
f 472/1404/351 467/1403/351 465/1402/351 470/1401/351
f 471/1408/352 472/1407/352 470/1406/352 469/1405/352
f 470/1412/353 465/1411/353 466/1410/353 469/1409/353
f 471/1416/354 468/1415/354 467/1414/354 472/1413/354
o Rope1
v 0.6025404515735225 2.089815283994234 -2.20625
v 0.6025404515735225 2.089815283994234 -2.20625
v 0.19593930468561474 1.1081932807009922 -2.20625
v 0.19593930468561474 1.1081932807009922 -2.20625
v 0.5447979807915672 2.1137329985170523 -2.20625
v 0.5447979807915672 2.1137329985170523 -2.20625
v 0.1381968339036593 1.1321109952238104 -2.20625
v 0.1381968339036593 1.1321109952238104 -2.20625
vt 0.1484375 0.947265625
vt 0.150390625 0.947265625
vt 0.150390625 0.9140625
vt 0.1484375 0.9140625
vt 0.1484375 0.947265625
vt 0.1484375 0.947265625
vt 0.1484375 0.9140625
vt 0.1484375 0.9140625
vt 0.150390625 0.947265625
vt 0.15234375 0.947265625
vt 0.15234375 0.9140625
vt 0.150390625 0.9140625
vt 0.150390625 0.947265625
vt 0.150390625 0.947265625
vt 0.150390625 0.9140625
vt 0.150390625 0.9140625
vt 0.150390625 0.947265625
vt 0.1484375 0.947265625
vt 0.1484375 0.947265625
vt 0.150390625 0.947265625
vt 0.15234375 0.947265625
vt 0.150390625 0.947265625
vt 0.150390625 0.947265625
vt 0.15234375 0.947265625
vn 0 0 -1
vn 0.9238795325112867 -0.3826834323650897 0
vn 0 0 1
vn -0.9238795325112867 0.3826834323650897 0
vn 0.3826834323650897 0.9238795325112867 0
vn -0.3826834323650897 -0.9238795325112867 0
usemtl m_752d9ec4-c8dc-ccf0-b51b-b09c8f003af1
f 476/1420/355 479/1419/355 477/1418/355 474/1417/355
f 475/1424/356 476/1423/356 474/1422/356 473/1421/356
f 480/1428/357 475/1427/357 473/1426/357 478/1425/357
f 479/1432/358 480/1431/358 478/1430/358 477/1429/358
f 478/1436/359 473/1435/359 474/1434/359 477/1433/359
f 479/1440/360 476/1439/360 475/1438/360 480/1437/360
o Rope4
v -0.48772360579156715 2.0624104985170524 -2.21875
v -0.48772360579156715 2.0624104985170524 -2.21875
v -0.1050401734264774 1.1385309660057656 -2.21875
v -0.1050401734264774 1.1385309660057656 -2.21875
v -0.5454660765735225 2.038492783994234 -2.21875
v -0.5454660765735225 2.038492783994234 -2.21875
v -0.16278264420843283 1.1146132514829477 -2.21875
v -0.16278264420843283 1.1146132514829477 -2.21875
vt 0.15234375 0.880859375
vt 0.154296875 0.880859375
vt 0.154296875 0.849609375
vt 0.15234375 0.849609375
vt 0.15234375 0.880859375
vt 0.15234375 0.880859375
vt 0.15234375 0.849609375
vt 0.15234375 0.849609375
vt 0.154296875 0.880859375
vt 0.15625 0.880859375
vt 0.15625 0.849609375
vt 0.154296875 0.849609375
vt 0.154296875 0.880859375
vt 0.154296875 0.880859375
vt 0.154296875 0.849609375
vt 0.154296875 0.849609375
vt 0.154296875 0.880859375
vt 0.15234375 0.880859375
vt 0.15234375 0.880859375
vt 0.154296875 0.880859375
vt 0.15625 0.880859375
vt 0.154296875 0.880859375
vt 0.154296875 0.880859375
vt 0.15625 0.880859375
vn 0 0 -1
vn 0.9238795325112867 0.3826834323650897 0
vn 0 0 1
vn -0.9238795325112867 -0.3826834323650897 0
vn -0.3826834323650897 0.9238795325112867 0
vn 0.3826834323650897 -0.9238795325112867 0
usemtl m_752d9ec4-c8dc-ccf0-b51b-b09c8f003af1
f 484/1444/361 487/1443/361 485/1442/361 482/1441/361
f 483/1448/362 484/1447/362 482/1446/362 481/1445/362
f 488/1452/363 483/1451/363 481/1450/363 486/1449/363
f 487/1456/364 488/1455/364 486/1454/364 485/1453/364
f 486/1460/365 481/1459/365 482/1458/365 485/1457/365
f 487/1464/366 484/1463/366 483/1462/366 488/1461/366
o Rope2
v 0.6025404515735225 2.089815283994234 0.012499999999999997
v 0.6025404515735225 2.089815283994234 0.012499999999999997
v 0.19593930468561474 1.1081932807009922 0.012499999999999997
v 0.19593930468561474 1.1081932807009922 0.012499999999999997
v 0.5447979807915672 2.1137329985170523 0.012499999999999997
v 0.5447979807915672 2.1137329985170523 0.012499999999999997
v 0.1381968339036593 1.1321109952238104 0.012499999999999997
v 0.1381968339036593 1.1321109952238104 0.012499999999999997
vt 0.15234375 0.947265625
vt 0.154296875 0.947265625
vt 0.154296875 0.9140625
vt 0.15234375 0.9140625
vt 0.15234375 0.947265625
vt 0.15234375 0.947265625
vt 0.15234375 0.9140625
vt 0.15234375 0.9140625
vt 0.154296875 0.947265625
vt 0.15625 0.947265625
vt 0.15625 0.9140625
vt 0.154296875 0.9140625
vt 0.154296875 0.947265625
vt 0.154296875 0.947265625
vt 0.154296875 0.9140625
vt 0.154296875 0.9140625
vt 0.154296875 0.947265625
vt 0.15234375 0.947265625
vt 0.15234375 0.947265625
vt 0.154296875 0.947265625
vt 0.15625 0.947265625
vt 0.154296875 0.947265625
vt 0.154296875 0.947265625
vt 0.15625 0.947265625
vn 0 0 -1
vn 0.9238795325112867 -0.3826834323650897 0
vn 0 0 1
vn -0.9238795325112867 0.3826834323650897 0
vn 0.3826834323650897 0.9238795325112867 0
vn -0.3826834323650897 -0.9238795325112867 0
usemtl m_752d9ec4-c8dc-ccf0-b51b-b09c8f003af1
f 492/1468/367 495/1467/367 493/1466/367 490/1465/367
f 491/1472/368 492/1471/368 490/1470/368 489/1469/368
f 496/1476/369 491/1475/369 489/1474/369 494/1473/369
f 495/1480/370 496/1479/370 494/1478/370 493/1477/370
f 494/1484/371 489/1483/371 490/1482/371 493/1481/371
f 495/1488/372 492/1487/372 491/1486/372 496/1485/372
o Rope5
v -0.48772360579156715 2.0624104985170524 -0.0125
v -0.48772360579156715 2.0624104985170524 -0.0125
v -0.1050401734264774 1.1385309660057656 -0.0125
v -0.1050401734264774 1.1385309660057656 -0.0125
v -0.5454660765735225 2.038492783994234 -0.0125
v -0.5454660765735225 2.038492783994234 -0.0125
v -0.16278264420843283 1.1146132514829477 -0.0125
v -0.16278264420843283 1.1146132514829477 -0.0125
vt 0.15234375 0.712890625
vt 0.154296875 0.712890625
vt 0.154296875 0.681640625
vt 0.15234375 0.681640625
vt 0.15234375 0.712890625
vt 0.15234375 0.712890625
vt 0.15234375 0.681640625
vt 0.15234375 0.681640625
vt 0.154296875 0.712890625
vt 0.15625 0.712890625
vt 0.15625 0.681640625
vt 0.154296875 0.681640625
vt 0.154296875 0.712890625
vt 0.154296875 0.712890625
vt 0.154296875 0.681640625
vt 0.154296875 0.681640625
vt 0.154296875 0.712890625
vt 0.15234375 0.712890625
vt 0.15234375 0.712890625
vt 0.154296875 0.712890625
vt 0.15625 0.712890625
vt 0.154296875 0.712890625
vt 0.154296875 0.712890625
vt 0.15625 0.712890625
vn 0 0 -1
vn 0.9238795325112867 0.3826834323650897 0
vn 0 0 1
vn -0.9238795325112867 -0.3826834323650897 0
vn -0.3826834323650897 0.9238795325112867 0
vn 0.3826834323650897 -0.9238795325112867 0
usemtl m_752d9ec4-c8dc-ccf0-b51b-b09c8f003af1
f 500/1492/373 503/1491/373 501/1490/373 498/1489/373
f 499/1496/374 500/1495/374 498/1494/374 497/1493/374
f 504/1500/375 499/1499/375 497/1498/375 502/1497/375
f 503/1504/376 504/1503/376 502/1502/376 501/1501/376
f 502/1508/377 497/1507/377 498/1506/377 501/1505/377
f 503/1512/378 500/1511/378 499/1510/378 504/1509/378
o Rope3
v 0.5715970015085905 2.0525017252228674 2.21875
v 0.5715970015085905 2.0525017252228674 2.21875
v 0.20820059922506765 1.0540783156378395 2.21875
v 0.20820059922506765 1.0540783156378395 2.21875
v 0.5128662127094713 2.073877984180722 2.21875
v 0.5128662127094713 2.073877984180722 2.21875
v 0.14946981042594837 1.0754545745956938 2.21875
v 0.14946981042594837 1.0754545745956938 2.21875
vt 0.15234375 0.9140625
vt 0.154296875 0.9140625
vt 0.154296875 0.880859375
vt 0.15234375 0.880859375
vt 0.15234375 0.9140625
vt 0.15234375 0.9140625
vt 0.15234375 0.880859375
vt 0.15234375 0.880859375
vt 0.154296875 0.9140625
vt 0.15625 0.9140625
vt 0.15625 0.880859375
vt 0.154296875 0.880859375
vt 0.154296875 0.9140625
vt 0.154296875 0.9140625
vt 0.154296875 0.880859375
vt 0.154296875 0.880859375
vt 0.154296875 0.9140625
vt 0.15234375 0.9140625
vt 0.15234375 0.9140625
vt 0.154296875 0.9140625
vt 0.15625 0.9140625
vt 0.154296875 0.9140625
vt 0.154296875 0.9140625
vt 0.15625 0.9140625
vn 0 0 -1
vn 0.9396926207859085 -0.34202014332566866 0
vn 0 0 1
vn -0.9396926207859085 0.34202014332566866 0
vn 0.34202014332566866 0.9396926207859085 0
vn -0.34202014332566866 -0.9396926207859085 0
usemtl m_752d9ec4-c8dc-ccf0-b51b-b09c8f003af1
f 508/1516/379 511/1515/379 509/1514/379 506/1513/379
f 507/1520/380 508/1519/380 506/1518/380 505/1517/380
f 512/1524/381 507/1523/381 505/1522/381 510/1521/381
f 511/1528/382 512/1527/382 510/1526/382 509/1525/382
f 510/1532/383 505/1531/383 506/1530/383 509/1529/383
f 511/1536/384 508/1535/384 507/1534/384 512/1533/384
o Rope6
v -0.4981161057915672 2.0932479985170525 2.20625
v -0.4981161057915672 2.0932479985170525 2.20625
v -0.11543267342647742 1.1693684660057657 2.20625
v -0.11543267342647742 1.1693684660057657 2.20625
v -0.5558585765735226 2.0693302839942342 2.20625
v -0.5558585765735226 2.0693302839942342 2.20625
v -0.17317514420843286 1.1454507514829477 2.20625
v -0.17317514420843286 1.1454507514829477 2.20625
vt 0.15234375 0.6796875
vt 0.154296875 0.6796875
vt 0.154296875 0.6484375
vt 0.15234375 0.6484375
vt 0.15234375 0.6796875
vt 0.15234375 0.6796875
vt 0.15234375 0.6484375
vt 0.15234375 0.6484375
vt 0.154296875 0.6796875
vt 0.15625 0.6796875
vt 0.15625 0.6484375
vt 0.154296875 0.6484375
vt 0.154296875 0.6796875
vt 0.154296875 0.6796875
vt 0.154296875 0.6484375
vt 0.154296875 0.6484375
vt 0.154296875 0.6796875
vt 0.15234375 0.6796875
vt 0.15234375 0.6796875
vt 0.154296875 0.6796875
vt 0.15625 0.6796875
vt 0.154296875 0.6796875
vt 0.154296875 0.6796875
vt 0.15625 0.6796875
vn 0 0 -1
vn 0.9238795325112867 0.3826834323650897 0
vn 0 0 1
vn -0.9238795325112867 -0.3826834323650897 0
vn -0.3826834323650897 0.9238795325112867 0
vn 0.3826834323650897 -0.9238795325112867 0
usemtl m_752d9ec4-c8dc-ccf0-b51b-b09c8f003af1
f 516/1540/385 519/1539/385 517/1538/385 514/1537/385
f 515/1544/386 516/1543/386 514/1542/386 513/1541/386
f 520/1548/387 515/1547/387 513/1546/387 518/1545/387
f 519/1552/388 520/1551/388 518/1550/388 517/1549/388
f 518/1556/389 513/1555/389 514/1554/389 517/1553/389
f 519/1560/390 516/1559/390 515/1558/390 520/1557/390