# Made in Blockbench 5.0.3
mtllib trebuchetArm2.mtl

o Crank
v 1.6875 1.814720869120796 5.51875
v 1.6875 1.59375 5.297779130879204
v 1.6875 1.59375 5.739720869120796
v 1.6875 1.372779130879204 5.51875
v -1.6875 1.59375 5.297779130879204
v -1.6875 1.814720869120796 5.51875
v -1.6875 1.372779130879204 5.51875
v -1.6875 1.59375 5.739720869120796
vt 0.0048828125 0.841796875
vt 0.0576171875 0.841796875
vt 0.0576171875 0.8369140625
vt 0.0048828125 0.8369140625
vt 0 0.841796875
vt 0.0048828125 0.841796875
vt 0.0048828125 0.8369140625
vt 0 0.8369140625
vt 0.0625 0.841796875
vt 0.115234375 0.841796875
vt 0.115234375 0.8369140625
vt 0.0625 0.8369140625
vt 0.0576171875 0.841796875
vt 0.0625 0.841796875
vt 0.0625 0.8369140625
vt 0.0576171875 0.8369140625
vt 0.0576171875 0.841796875
vt 0.0048828125 0.841796875
vt 0.0048828125 0.8466796875
vt 0.0576171875 0.8466796875
vt 0.1103515625 0.8466796875
vt 0.0576171875 0.8466796875
vt 0.0576171875 0.841796875
vt 0.1103515625 0.841796875
vn 0 -0.7071067811865476 -0.7071067811865475
vn 1 0 0
vn 0 0.7071067811865476 0.7071067811865475
vn -1 0 0
vn 0 0.7071067811865475 -0.7071067811865476
vn 0 -0.7071067811865475 0.7071067811865476
usemtl m_bb11346e-074a-705b-ba32-04fad56e5cee
f 4/4/1 7/3/1 5/2/1 2/1/1
f 3/8/2 4/7/2 2/6/2 1/5/2
f 8/12/3 3/11/3 1/10/3 6/9/3
f 7/16/4 8/15/4 6/14/4 5/13/4
f 6/20/5 1/19/5 2/18/5 5/17/5
f 7/24/6 4/23/6 3/22/6 8/21/6
o Crank
v 0.8125 1.991497564417433 5.51875
v 0.8125 1.59375 5.121002435582567
v 0.8125 1.59375 5.9164975644174325
v 0.8125 1.196002435582567 5.51875
v -0.8125 1.59375 5.121002435582567
v -0.8125 1.991497564417433 5.51875
v -0.8125 1.196002435582567 5.51875
v -0.8125 1.59375 5.9164975644174325
vt 0.205078125 0.8916015625
vt 0.23046875 0.8916015625
vt 0.23046875 0.8828125
vt 0.205078125 0.8828125
vt 0.1962890625 0.8916015625
vt 0.205078125 0.8916015625
vt 0.205078125 0.8828125
vt 0.1962890625 0.8828125
vt 0.2392578125 0.8916015625
vt 0.2646484375 0.8916015625
vt 0.2646484375 0.8828125
vt 0.2392578125 0.8828125
vt 0.23046875 0.8916015625
vt 0.2392578125 0.8916015625
vt 0.2392578125 0.8828125
vt 0.23046875 0.8828125
vt 0.23046875 0.8916015625
vt 0.205078125 0.8916015625
vt 0.205078125 0.900390625
vt 0.23046875 0.900390625
vt 0.255859375 0.900390625
vt 0.23046875 0.900390625
vt 0.23046875 0.8916015625
vt 0.255859375 0.8916015625
vn 0 -0.7071067811865476 -0.7071067811865475
vn 1 0 0
vn 0 0.7071067811865476 0.7071067811865475
vn -1 0 0
vn 0 0.7071067811865475 -0.7071067811865476
vn 0 -0.7071067811865475 0.7071067811865476
usemtl m_bb11346e-074a-705b-ba32-04fad56e5cee
f 12/28/7 15/27/7 13/26/7 10/25/7
f 11/32/8 12/31/8 10/30/8 9/29/8
f 16/36/9 11/35/9 9/34/9 14/33/9
f 15/40/10 16/39/10 14/38/10 13/37/10
f 14/44/11 9/43/11 10/42/11 13/41/11
f 15/48/12 12/47/12 11/46/12 16/45/12
o Crank
v 1.5625 1.5053616523516815 5.651332521472478
v 1.5625 1.4611674785275224 5.607138347648318
v 1.5625 0.9750315664617709 6.181662607362388
v 1.5625 0.9308373926376118 6.1374684335382295
v 1.4375 1.4611674785275224 5.607138347648318
v 1.4375 1.5053616523516815 5.651332521472478
v 1.4375 0.9308373926376118 6.1374684335382295
v 1.4375 0.9750315664617709 6.181662607362388
vt 0.1142578125 0.931640625
vt 0.1162109375 0.931640625
vt 0.1162109375 0.919921875
vt 0.1142578125 0.919921875
vt 0.11328125 0.931640625
vt 0.1142578125 0.931640625
vt 0.1142578125 0.919921875
vt 0.11328125 0.919921875
vt 0.1171875 0.931640625
vt 0.119140625 0.931640625
vt 0.119140625 0.919921875
vt 0.1171875 0.919921875
vt 0.1162109375 0.931640625
vt 0.1171875 0.931640625
vt 0.1171875 0.919921875
vt 0.1162109375 0.919921875
vt 0.1162109375 0.931640625
vt 0.1142578125 0.931640625
vt 0.1142578125 0.9326171875
vt 0.1162109375 0.9326171875
vt 0.1181640625 0.9326171875
vt 0.1162109375 0.9326171875
vt 0.1162109375 0.931640625
vt 0.1181640625 0.931640625
vn 0 -0.7071067811865476 -0.7071067811865475
vn 1 0 0
vn 0 0.7071067811865476 0.7071067811865475
vn -1 0 0
vn 0 0.7071067811865475 -0.7071067811865476
vn 0 -0.7071067811865475 0.7071067811865476
usemtl m_bb11346e-074a-705b-ba32-04fad56e5cee
f 20/52/13 23/51/13 21/50/13 18/49/13
f 19/56/14 20/55/14 18/54/14 17/53/14
f 24/60/15 19/59/15 17/58/15 22/57/15
f 23/64/16 24/63/16 22/62/16 21/61/16
f 22/68/17 17/67/17 18/66/17 21/65/17
f 23/72/18 20/71/18 19/70/18 24/69/18
o Crank
v 1.5625 2.2566626073623883 4.90003156646177
v 1.5625 2.212468433538229 4.8558373926376115
v 1.5625 1.7263325214724776 5.430361652351682
v 1.5625 1.6821383476483185 5.386167478527522
v 1.4375 2.212468433538229 4.8558373926376115
v 1.4375 2.2566626073623883 4.90003156646177
v 1.4375 1.6821383476483185 5.386167478527522
v 1.4375 1.7263325214724776 5.430361652351682
vt 0.1083984375 0.931640625
vt 0.1103515625 0.931640625
vt 0.1103515625 0.919921875
vt 0.1083984375 0.919921875
vt 0.107421875 0.931640625
vt 0.1083984375 0.931640625
vt 0.1083984375 0.919921875
vt 0.107421875 0.919921875
vt 0.111328125 0.931640625
vt 0.11328125 0.931640625
vt 0.11328125 0.919921875
vt 0.111328125 0.919921875
vt 0.1103515625 0.931640625
vt 0.111328125 0.931640625
vt 0.111328125 0.919921875
vt 0.1103515625 0.919921875
vt 0.1103515625 0.931640625
vt 0.1083984375 0.931640625
vt 0.1083984375 0.9326171875
vt 0.1103515625 0.9326171875
vt 0.1123046875 0.9326171875
vt 0.1103515625 0.9326171875
vt 0.1103515625 0.931640625
vt 0.1123046875 0.931640625
vn 0 -0.7071067811865476 -0.7071067811865475
vn 1 0 0
vn 0 0.7071067811865476 0.7071067811865475
vn -1 0 0
vn 0 0.7071067811865475 -0.7071067811865476
vn 0 -0.7071067811865475 0.7071067811865476
usemtl m_bb11346e-074a-705b-ba32-04fad56e5cee
f 28/76/19 31/75/19 29/74/19 26/73/19
f 27/80/20 28/79/20 26/78/20 25/77/20
f 32/84/21 27/83/21 25/82/21 30/81/21
f 31/88/22 32/87/22 30/86/22 29/85/22
f 30/92/23 25/91/23 26/90/23 29/89/23
f 31/96/24 28/95/24 27/94/24 32/93/24
o Crank
v -1.4375 1.5053616523516815 5.651332521472478
v -1.4375 1.4611674785275224 5.607138347648318
v -1.4375 0.9750315664617709 6.181662607362388
v -1.4375 0.9308373926376118 6.1374684335382295
v -1.5625 1.4611674785275224 5.607138347648318
v -1.5625 1.5053616523516815 5.651332521472478
v -1.5625 0.9308373926376118 6.1374684335382295
v -1.5625 0.9750315664617709 6.181662607362388
vt 0.0615234375 0.931640625
vt 0.0634765625 0.931640625
vt 0.0634765625 0.919921875
vt 0.0615234375 0.919921875
vt 0.060546875 0.931640625
vt 0.0615234375 0.931640625
vt 0.0615234375 0.919921875
vt 0.060546875 0.919921875
vt 0.064453125 0.931640625
vt 0.06640625 0.931640625
vt 0.06640625 0.919921875
vt 0.064453125 0.919921875
vt 0.0634765625 0.931640625
vt 0.064453125 0.931640625
vt 0.064453125 0.919921875
vt 0.0634765625 0.919921875
vt 0.0634765625 0.931640625
vt 0.0615234375 0.931640625
vt 0.0615234375 0.9326171875
vt 0.0634765625 0.9326171875
vt 0.0654296875 0.9326171875
vt 0.0634765625 0.9326171875
vt 0.0634765625 0.931640625
vt 0.0654296875 0.931640625
vn 0 -0.7071067811865476 -0.7071067811865475
vn 1 0 0
vn 0 0.7071067811865476 0.7071067811865475
vn -1 0 0
vn 0 0.7071067811865475 -0.7071067811865476
vn 0 -0.7071067811865475 0.7071067811865476
usemtl m_bb11346e-074a-705b-ba32-04fad56e5cee
f 36/100/25 39/99/25 37/98/25 34/97/25
f 35/104/26 36/103/26 34/102/26 33/101/26
f 40/108/27 35/107/27 33/106/27 38/105/27
f 39/112/28 40/111/28 38/110/28 37/109/28
f 38/116/29 33/115/29 34/114/29 37/113/29
f 39/120/30 36/119/30 35/118/30 40/117/30
o Crank
v -1.4375 2.2566626073623883 4.90003156646177
v -1.4375 2.212468433538229 4.8558373926376115
v -1.4375 1.7263325214724776 5.430361652351682
v -1.4375 1.6821383476483185 5.386167478527522
v -1.5625 2.212468433538229 4.8558373926376115
v -1.5625 2.2566626073623883 4.90003156646177
v -1.5625 1.6821383476483185 5.386167478527522
v -1.5625 1.7263325214724776 5.430361652351682
vt 0.1025390625 0.931640625
vt 0.1044921875 0.931640625
vt 0.1044921875 0.919921875
vt 0.1025390625 0.919921875
vt 0.1015625 0.931640625
vt 0.1025390625 0.931640625
vt 0.1025390625 0.919921875
vt 0.1015625 0.919921875
vt 0.10546875 0.931640625
vt 0.107421875 0.931640625
vt 0.107421875 0.919921875
vt 0.10546875 0.919921875
vt 0.1044921875 0.931640625
vt 0.10546875 0.931640625
vt 0.10546875 0.919921875
vt 0.1044921875 0.919921875
vt 0.1044921875 0.931640625
vt 0.1025390625 0.931640625
vt 0.1025390625 0.9326171875
vt 0.1044921875 0.9326171875
vt 0.1064453125 0.9326171875
vt 0.1044921875 0.9326171875
vt 0.1044921875 0.931640625
vt 0.1064453125 0.931640625
vn 0 -0.7071067811865476 -0.7071067811865475
vn 1 0 0
vn 0 0.7071067811865476 0.7071067811865475
vn -1 0 0
vn 0 0.7071067811865475 -0.7071067811865476
vn 0 -0.7071067811865475 0.7071067811865476
usemtl m_bb11346e-074a-705b-ba32-04fad56e5cee
f 44/124/31 47/123/31 45/122/31 42/121/31
f 43/128/32 44/127/32 42/126/32 41/125/32
f 48/132/33 43/131/33 41/130/33 46/129/33
f 47/136/34 48/135/34 46/134/34 45/133/34
f 46/140/35 41/139/35 42/138/35 45/137/35
f 47/144/36 44/143/36 43/142/36 48/141/36
o Crank
v -1.4375 1.7300617778645713 5.601271053164631
v -1.4375 1.6878373898885926 5.647350886715263
v -1.4375 2.283019780472164 6.107963708876375
v -1.4375 2.240795392496185 6.154043542427008
v -1.5625 1.6878373898885926 5.647350886715263
v -1.5625 1.7300617778645713 5.601271053164631
v -1.5625 2.240795392496185 6.154043542427008
v -1.5625 2.283019780472164 6.107963708876375
vt 0.0576171875 0.9736328125
vt 0.0595703125 0.9736328125
vt 0.0595703125 0.9619140625
vt 0.0576171875 0.9619140625
vt 0.056640625 0.9736328125
vt 0.0576171875 0.9736328125
vt 0.0576171875 0.9619140625
vt 0.056640625 0.9619140625
vt 0.060546875 0.9736328125
vt 0.0625 0.9736328125
vt 0.0625 0.9619140625
vt 0.060546875 0.9619140625
vt 0.0595703125 0.9736328125
vt 0.060546875 0.9736328125
vt 0.060546875 0.9619140625
vt 0.0595703125 0.9619140625
vt 0.0595703125 0.9736328125
vt 0.0576171875 0.9736328125
vt 0.0576171875 0.974609375
vt 0.0595703125 0.974609375
vt 0.0615234375 0.974609375
vt 0.0595703125 0.974609375
vt 0.0595703125 0.9736328125
vt 0.0615234375 0.9736328125
vn 0 -0.6755902076156605 0.737277336810124
vn 1 0 0
vn 0 0.6755902076156605 -0.737277336810124
vn -1 0 0
vn 0 -0.737277336810124 -0.6755902076156605
vn 0 0.737277336810124 0.6755902076156605
usemtl m_bb11346e-074a-705b-ba32-04fad56e5cee
f 52/148/37 55/147/37 53/146/37 50/145/37
f 51/152/38 52/151/38 50/150/38 49/149/38
f 56/156/39 51/155/39 49/154/39 54/153/39
f 55/160/40 56/159/40 54/158/40 53/157/40
f 54/164/41 49/163/41 50/162/41 53/161/41
f 55/168/42 52/167/42 51/166/42 56/165/42
o Crank
v -1.4375 0.9467046075038147 4.883456457572992
v -1.4375 0.904480219527836 4.9295362911236245
v -1.4375 1.4996626101114074 5.390149113284736
v -1.4375 1.4574382221354287 5.436228946835369
v -1.5625 0.904480219527836 4.9295362911236245
v -1.5625 0.9467046075038147 4.883456457572992
v -1.5625 1.4574382221354287 5.436228946835369
v -1.5625 1.4996626101114074 5.390149113284736
vt 0.0556640625 0.931640625
vt 0.0576171875 0.931640625
vt 0.0576171875 0.919921875
vt 0.0556640625 0.919921875
vt 0.0546875 0.931640625
vt 0.0556640625 0.931640625
vt 0.0556640625 0.919921875
vt 0.0546875 0.919921875
vt 0.05859375 0.931640625
vt 0.060546875 0.931640625
vt 0.060546875 0.919921875
vt 0.05859375 0.919921875
vt 0.0576171875 0.931640625
vt 0.05859375 0.931640625
vt 0.05859375 0.919921875
vt 0.0576171875 0.919921875
vt 0.0576171875 0.931640625
vt 0.0556640625 0.931640625
vt 0.0556640625 0.9326171875
vt 0.0576171875 0.9326171875
vt 0.0595703125 0.9326171875
vt 0.0576171875 0.9326171875
vt 0.0576171875 0.931640625
vt 0.0595703125 0.931640625
vn 0 -0.6755902076156605 0.737277336810124
vn 1 0 0
vn 0 0.6755902076156605 -0.737277336810124
vn -1 0 0
vn 0 -0.737277336810124 -0.6755902076156605
vn 0 0.737277336810124 0.6755902076156605
usemtl m_bb11346e-074a-705b-ba32-04fad56e5cee
f 60/172/43 63/171/43 61/170/43 58/169/43
f 59/176/44 60/175/44 58/174/44 57/173/44
f 64/180/45 59/179/45 57/178/45 62/177/45
f 63/184/46 64/183/46 62/182/46 61/181/46
f 62/188/47 57/187/47 58/186/47 61/185/47
f 63/192/48 60/191/48 59/190/48 64/189/48
o Crank
v 1.5625 1.7300617778645713 5.601271053164631
v 1.5625 1.6878373898885926 5.647350886715263
v 1.5625 2.283019780472164 6.107963708876375
v 1.5625 2.240795392496185 6.154043542427008
v 1.4375 1.6878373898885926 5.647350886715263
v 1.4375 1.7300617778645713 5.601271053164631
v 1.4375 2.240795392496185 6.154043542427008
v 1.4375 2.283019780472164 6.107963708876375
vt 0.0576171875 0.9990234375
vt 0.0595703125 0.9990234375
vt 0.0595703125 0.9873046875
vt 0.0576171875 0.9873046875
vt 0.056640625 0.9990234375
vt 0.0576171875 0.9990234375
vt 0.0576171875 0.9873046875
vt 0.056640625 0.9873046875
vt 0.060546875 0.9990234375
vt 0.0625 0.9990234375
vt 0.0625 0.9873046875
vt 0.060546875 0.9873046875
vt 0.0595703125 0.9990234375
vt 0.060546875 0.9990234375
vt 0.060546875 0.9873046875
vt 0.0595703125 0.9873046875
vt 0.0595703125 0.9990234375
vt 0.0576171875 0.9990234375
vt 0.0576171875 1
vt 0.0595703125 1
vt 0.0615234375 1
vt 0.0595703125 1
vt 0.0595703125 0.9990234375
vt 0.0615234375 0.9990234375
vn 0 -0.6755902076156605 0.737277336810124
vn 1 0 0
vn 0 0.6755902076156605 -0.737277336810124
vn -1 0 0
vn 0 -0.737277336810124 -0.6755902076156605
vn 0 0.737277336810124 0.6755902076156605
usemtl m_bb11346e-074a-705b-ba32-04fad56e5cee
f 68/196/49 71/195/49 69/194/49 66/193/49
f 67/200/50 68/199/50 66/198/50 65/197/50
f 72/204/51 67/203/51 65/202/51 70/201/51
f 71/208/52 72/207/52 70/206/52 69/205/52
f 70/212/53 65/211/53 66/210/53 69/209/53
f 71/216/54 68/215/54 67/214/54 72/213/54
o Crank
v 1.5625 0.9467046075038147 4.883456457572992
v 1.5625 0.904480219527836 4.9295362911236245
v 1.5625 1.4996626101114074 5.390149113284736
v 1.5625 1.4574382221354287 5.436228946835369
v 1.4375 0.904480219527836 4.9295362911236245
v 1.4375 0.9467046075038147 4.883456457572992
v 1.4375 1.4574382221354287 5.436228946835369
v 1.4375 1.4996626101114074 5.390149113284736
vt 0.0576171875 0.986328125
vt 0.0595703125 0.986328125
vt 0.0595703125 0.974609375
vt 0.0576171875 0.974609375
vt 0.056640625 0.986328125
vt 0.0576171875 0.986328125
vt 0.0576171875 0.974609375
vt 0.056640625 0.974609375
vt 0.060546875 0.986328125
vt 0.0625 0.986328125
vt 0.0625 0.974609375
vt 0.060546875 0.974609375
vt 0.0595703125 0.986328125
vt 0.060546875 0.986328125
vt 0.060546875 0.974609375
vt 0.0595703125 0.974609375
vt 0.0595703125 0.986328125
vt 0.0576171875 0.986328125
vt 0.0576171875 0.9873046875
vt 0.0595703125 0.9873046875
vt 0.0615234375 0.9873046875
vt 0.0595703125 0.9873046875
vt 0.0595703125 0.986328125
vt 0.0615234375 0.986328125
vn 0 -0.6755902076156605 0.737277336810124
vn 1 0 0
vn 0 0.6755902076156605 -0.737277336810124
vn -1 0 0
vn 0 -0.737277336810124 -0.6755902076156605
vn 0 0.737277336810124 0.6755902076156605
usemtl m_bb11346e-074a-705b-ba32-04fad56e5cee
f 76/220/55 79/219/55 77/218/55 74/217/55
f 75/224/56 76/223/56 74/222/56 73/221/56
f 80/228/57 75/227/57 73/226/57 78/225/57
f 79/232/58 80/231/58 78/230/58 77/229/58
f 78/236/59 73/235/59 74/234/59 77/233/59
f 79/240/60 76/239/60 75/238/60 80/237/60